<svg width="141" height="186" fill="none" xmlns="http://www.w3.org/2000/svg"><path d="M140.5 75.152c2.857-19.427-11.885-29.94-32.226-36.91l6.628-26.399-15.999-4-6.399 25.713c-4.228-1.029-8.57-2.057-12.913-2.971l6.4-25.827-16-4-6.513 26.284c-3.543-.8-6.971-1.6-10.285-2.4v-.114l-22.17-5.485-4.228 17.141s11.885 2.743 11.656 2.857c6.514 1.6 7.657 5.942 7.428 9.37l-7.542 30.055c.457.115 1.029.229 1.714.572-.571-.115-1.143-.229-1.714-.457l-10.513 42.053c-.8 1.943-2.857 4.914-7.314 3.771.114.229-11.656-2.857-11.656-2.857l-8 18.399 20.913 5.257c3.885 1.028 7.657 1.942 11.428 2.971l-6.628 26.626 15.998 4 6.628-26.398c4.343 1.143 8.685 2.285 12.8 3.314L55.477 182l16 4 6.627-26.626c27.426 5.142 47.996 3.085 56.567-21.713 6.971-19.884-.343-31.426-14.742-38.968 10.628-2.4 18.513-9.37 20.57-23.54zm-36.683 51.425c-4.914 19.884-38.51 9.142-49.367 6.399l8.8-35.311c10.856 2.742 45.824 8.113 40.567 28.912zm5.028-51.767c-4.571 18.17-32.454 8.913-41.482 6.627l8-31.997c9.027 2.286 38.168 6.514 33.482 25.37z" fill="url(#paint0_linear)"/><defs><linearGradient id="paint0_linear" x1="255" y1="73" x2="255" y2="258.242" gradientUnits="userSpaceOnUse"><stop stop-color="#fff" stop-opacity=".16"/><stop offset="1" stop-color="#fff" stop-opacity="0"/></linearGradient></defs></svg>