<svg width="299" height="183" fill="none" xmlns="http://www.w3.org/2000/svg"><path d="M243.074 84.395h-2.316c-3.779-9.654-12.192-18.821-25.175-26.422-36.574-21.159-96.007-21.159-132.642 0-12.192 7.093-20.441 15.67-24.485 24.715H55.51v12.011c-.731 14.391 8.412 28.923 27.43 39.898 36.575 21.158 96.028 21.158 132.663 0 18.287-10.569 27.471-24.39 27.471-38.292v-11.91z" fill="url(#paint0_linear)"/><path d="M149.262 138.56c51.8 0 93.792-24.251 93.792-54.166 0-29.915-41.992-54.166-93.792-54.166-51.8 0-93.793 24.251-93.793 54.166 0 29.915 41.993 54.166 93.793 54.166z" fill="url(#paint1_linear)"/><path opacity=".05" d="M.894 84.192L0 83.664 144.711.108l.894.508L.894 84.192zm2.559 1.463l-.894-.508L147.27 1.57l.874.508L3.454 85.655zm2.539 1.463l-.894-.508L149.81 3.034l.894.508L5.992 87.118zm2.543 1.484l-.874-.509L152.373 4.518l.874.508L8.535 88.602zm2.56 1.463l-.895-.508L154.912 5.981l.894.508L11.094 90.065zm2.539 1.484l-.873-.508L157.472 7.465l.874.508L13.634 91.55zm2.56 1.463l-.894-.508L160.01 8.928l.894.508-144.71 83.576zm2.539 1.484l-.873-.529 144.71-83.555.874.508L18.733 94.496zm2.56 1.464l-.894-.508L165.11 11.876l.894.508L21.293 95.96zm2.539 1.462l-.873-.508L167.65 13.338l.894.529L23.832 97.422zm2.562 1.484l-.894-.508 144.71-83.576.894.508-144.71 83.576zm2.542 1.465l-.874-.508 144.691-83.576.894.528-144.711 83.556zm2.559 1.482l-.894-.508 144.712-83.576.873.509-144.69 83.575zm2.539 1.465l-.874-.508 144.691-83.576.894.508-144.711 83.576zm2.559 1.484l-.894-.528 144.712-83.555.873.508-144.69 83.575zm2.539 1.461l-.894-.508L182.95 22.179l.894.509-144.712 83.575zm2.563 1.484l-.895-.528 144.712-83.556.874.508-144.691 83.576zm2.539 1.465l-.894-.508 144.71-83.576.894.508-144.711 83.576zm2.541 1.462l-.874-.508L190.612 26.59l.874.529-144.712 83.555zm2.559 1.484l-.894-.508 144.71-83.576.894.509-144.711 83.575zm2.54 1.465l-.874-.508 144.71-83.576.874.528-144.711 83.556zm2.559 1.482l-.894-.508L198.25 31.022l.894.508-144.711 83.575zm2.541 1.464l-.874-.508 144.711-83.576.874.508L56.974 116.57zm2.559 1.484l-.894-.528L203.35 33.969l.895.508-144.712 83.576zm2.542 1.462l-.874-.508 144.712-83.576.873.509-144.71 83.575zm2.559 1.465l-.894-.508 144.712-83.576.894.528L64.634 120.98zm2.539 1.484l-.874-.509L210.991 38.38l.894.508-144.712 83.576zm2.56 1.462l-.895-.508L213.55 39.842l.894.529-144.712 83.555zm2.542 1.484l-.873-.508 144.711-83.576.874.508L72.275 125.41zm2.56 1.463l-.894-.508 144.711-83.576.894.508-144.711 83.576zm2.538 1.484l-.874-.528L221.19 44.273l.894.508-144.712 83.576zm2.563 1.464l-.894-.508 144.711-83.576.894.508L79.936 129.82zm2.539 1.484l-.894-.528 144.711-83.556.895.508-144.712 83.576zm2.559 1.462l-.894-.508 144.712-83.576.894.508-144.712 83.576zm2.54 1.485l-.874-.528 144.691-83.576.894.528-144.711 83.576zm2.561 1.464l-.894-.508 144.712-83.576.873.508-144.69 83.576zm2.539 1.461l-.894-.508 144.712-83.576.894.529-144.712 83.555zm2.562 1.484l-.894-.508 144.711-83.575.874.508L95.236 138.66zm2.539 1.465l-.894-.508 144.711-83.576.894.528-144.711 83.556zm2.56 1.482l-.894-.508 144.711-83.576.874.508-144.691 83.576zm2.539 1.465l-.894-.508 144.711-83.576.894.508-144.711 83.576zm2.541 1.484l-.874-.529 144.711-83.555.874.508-144.711 83.576zm2.559 1.463l-.894-.508 144.711-83.576.894.508-144.711 83.576zm2.541 1.484l-.874-.529L254.352 63.42l.874.508-144.711 83.576zm2.559 1.463l-.894-.508 144.712-83.576.894.508-144.712 83.576zm2.54 1.462l-.874-.508 144.712-83.575.873.528-144.711 83.555zm2.559 1.485l-.894-.508L261.991 67.83l.894.508-144.712 83.576zm2.543 1.464l-.873-.508 144.711-83.576.874.528-144.712 83.556zm2.56 1.483l-.894-.529 144.711-83.555.894.508-144.711 83.576zm2.539 1.463l-.873-.508L269.633 72.24l.894.508-144.712 83.576zm2.56 1.485l-.894-.529 144.711-83.555.874.508-144.691 83.576zm2.541 1.462l-.874-.508 144.691-83.576.894.508-144.711 83.576zm2.559 1.464l-.894-.508 144.711-83.576.874.528-144.691 83.556zm2.539 1.484l-.874-.508 144.691-83.576.894.508-144.711 83.576zm2.561 1.463l-.894-.509 144.712-83.575.873.528-144.691 83.556zm2.539 1.483l-.894-.508 144.712-83.576.894.508-144.712 83.576zm2.541 1.464l-.874-.508 144.712-83.576.873.508-144.711 83.576zm2.559 1.484l-.894-.529 144.712-83.555.894.508-144.712 83.576zm2.54 1.462l-.874-.508 144.712-83.576.873.508-144.711 83.576zm2.559 1.484l-.894-.528 144.712-83.556.894.509-144.712 83.575zm2.541 1.464l-.873-.508 144.711-83.576.874.508-144.712 83.576z" fill="#97A6FD"/><path opacity=".4" d="M149.262 182.767c51.8 0 93.792-24.251 93.792-54.166 0-29.915-41.992-54.166-93.792-54.166-51.8 0-93.793 24.251-93.793 54.166 0 29.915 41.993 54.166 93.793 54.166z" fill="#0F054C"/><path d="M149.262 161.04c51.8 0 93.792-24.251 93.792-54.166 0-29.915-41.992-54.166-93.792-54.166-51.8 0-93.793 24.251-93.793 54.166 0 29.915 41.993 54.166 93.793 54.166z" fill="url(#paint2_linear)"/><path opacity=".3" d="M149.305 30.228c-21.253 0-42.507 4.065-59.819 12.419l-27.979 60.852a62.194 62.194 0 0021.437 19.187 106.535 106.535 0 0019.81 8.74l46.551-101.198zm26.271 2.155l-48.135 104.693a162.062 162.062 0 0035.111.935l44.315-96.36a127.977 127.977 0 00-31.291-9.268z" fill="#97A6FD"/><path opacity=".48" d="M243.074 89.028h-2.316c-3.779-9.654-12.192-18.82-25.175-26.422-36.574-21.158-96.007-21.158-132.642 0C70.749 69.7 62.5 78.256 58.456 87.321H55.51v11.992c-.731 14.41 8.412 28.922 27.43 39.918 36.575 21.138 96.028 21.158 132.663 0 18.287-10.589 27.471-24.39 27.471-38.313v-11.89z" fill="url(#paint3_linear)"/><path d="M90.561 53.706c32.511-18.74 85.015-18.74 117.464 0 15.503 8.942 23.59 20.568 24.281 32.296.732-12.805-7.355-25.752-24.281-35.528-32.51-18.74-85.035-18.74-117.464 0-16.946 9.776-25.033 22.723-24.28 35.528.65-11.728 8.736-23.353 24.28-32.296z" fill="url(#paint4_linear)"/><path d="M182.016 65.696l-80.992-10.02 17.353 46.767 52.748-6.3 10.891-30.447z" fill="url(#paint5_linear)"/><path opacity=".4" d="M118.376 102.443l22.168-34.166 30.58 27.865-52.748 6.301z" fill="#0F1C75"/><path opacity=".4" d="M182.016 65.697l-41.471 2.58 30.58 27.866 10.891-30.447z" fill="#0F1C75"/><path opacity=".4" d="M182.016 65.696l-80.992-10.02 39.521 12.6 30.58 27.866 10.891-30.446z" fill="#0F1C75"/><path d="M126.039 106.854l74.448 6.26-10.83-43.007-10.911 23.617-52.707 13.13z" fill="url(#paint6_linear)"/><path opacity=".4" d="M178.745 93.724l21.742 19.39-10.83-43.007-10.912 23.617z" fill="#0F1C75"/><defs><linearGradient id="paint0_linear" x1="61920" y1="19145.2" x2="79068.9" y2="19145.2" gradientUnits="userSpaceOnUse"><stop stop-color="#97A6FD"/><stop offset=".02" stop-color="#411D97"/><stop offset=".09" stop-color="#3AC5E2"/><stop offset=".17" stop-color="#349BCD"/><stop offset=".26" stop-color="#2F78BB"/><stop offset=".35" stop-color="#2B5BAC"/><stop offset=".44" stop-color="#2845A1"/><stop offset=".54" stop-color="#263599"/><stop offset=".66" stop-color="#242C94"/><stop offset=".82" stop-color="#242993"/></linearGradient><linearGradient id="paint1_linear" x1="101482" y1="-27632.7" x2="106645" y2="-19245.5" gradientUnits="userSpaceOnUse"><stop stop-color="#7366C8"/><stop offset=".02" stop-color="#40F4FA"/><stop offset=".09" stop-color="#3AC5E2"/><stop offset=".17" stop-color="#349BCD"/><stop offset=".26" stop-color="#2F78BB"/><stop offset=".35" stop-color="#2B5BAC"/><stop offset=".44" stop-color="#2845A1"/><stop offset=".54" stop-color="#263599"/><stop offset=".66" stop-color="#242C94"/><stop offset=".82" stop-color="#242993"/></linearGradient><linearGradient id="paint2_linear" x1="100749" y1="-25980.9" x2="105911" y2="-17593.6" gradientUnits="userSpaceOnUse"><stop stop-color="#654DB3"/><stop offset=".02" stop-color="#40F4FA"/><stop offset=".09" stop-color="#3AC5E2"/><stop offset=".17" stop-color="#349BCD"/><stop offset=".26" stop-color="#2F78BB"/><stop offset=".35" stop-color="#2B5BAC"/><stop offset=".44" stop-color="#2845A1"/><stop offset=".54" stop-color="#263599"/><stop offset=".66" stop-color="#242C94"/><stop offset=".82" stop-color="#242993"/></linearGradient><linearGradient id="paint3_linear" x1="41.307" y1="100.979" x2="227.043" y2="100.979" gradientUnits="userSpaceOnUse"><stop stop-color="#654DB3"/><stop offset=".15" stop-color="#654DB3"/><stop offset=".33" stop-color="#654DB3"/><stop offset=".52" stop-color="#654DB3"/><stop offset=".72" stop-color="#654DB3"/><stop offset=".93" stop-color="#654DB3"/><stop offset="1" stop-color="#654DB3"/></linearGradient><linearGradient id="paint4_linear" x1="66.219" y1="61.206" x2="232.326" y2="61.206" gradientUnits="userSpaceOnUse"><stop stop-color="#2B3AA5"/><stop offset="1" stop-color="#182484"/></linearGradient><linearGradient id="paint5_linear" x1="120025" y1="-65691.9" x2="121424" y2="-63466.3" gradientUnits="userSpaceOnUse"><stop stop-color="#7E7AD9"/><stop offset=".02" stop-color="#40F4FA"/><stop offset=".09" stop-color="#3AC5E2"/><stop offset=".17" stop-color="#349BCD"/><stop offset=".26" stop-color="#2F78BB"/><stop offset=".35" stop-color="#2B5BAC"/><stop offset=".44" stop-color="#2845A1"/><stop offset=".54" stop-color="#263599"/><stop offset=".66" stop-color="#242C94"/><stop offset=".82" stop-color="#242993"/></linearGradient><linearGradient id="paint6_linear" x1="111068" y1="-59766.5" x2="111806" y2="-58744.8" gradientUnits="userSpaceOnUse"><stop stop-color="#7F7BDA"/><stop offset=".078" stop-color="#2B237C"/><stop offset=".177" stop-color="#2B237C"/><stop offset=".26" stop-color="#2B237C"/><stop offset=".35" stop-color="#2B5BAC"/><stop offset=".375" stop-color="#2B237C"/><stop offset=".44" stop-color="#2845A1"/><stop offset=".54" stop-color="#263599"/><stop offset=".66" stop-color="#242C94"/><stop offset=".82" stop-color="#2B237C"/></linearGradient></defs></svg>