<svg xmlns="http://www.w3.org/2000/svg" viewBox="0 0 512 512"><path d="M0 192l246.528 156.896c2.816 2.08 6.144 3.104 9.472 3.104s6.656-1.024 9.472-3.104L512 192 265.6 3.2a16.032 16.032 0 00-19.2 0L0 192z" fill="#64b5f6"/><path d="M416 0H96C78.368 0 64 14.368 64 32v352c0 8.832 7.168 16 16 16h352c8.832 0 16-7.168 16-16V32c0-17.632-14.336-32-32-32z" fill="#eceff1"/><path d="M144 96h224c8.832 0 16-7.168 16-16s-7.168-16-16-16H144c-8.832 0-16 7.168-16 16s7.168 16 16 16zm224 32H144c-8.832 0-16 7.168-16 16s7.168 16 16 16h224c8.832 0 16-7.168 16-16s-7.168-16-16-16zm-96 64H144c-8.832 0-16 7.168-16 16s7.168 16 16 16h128c8.832 0 16-7.168 16-16s-7.168-16-16-16z" fill="#90a4ae"/><path d="M265.472 348.896c-2.816 2.08-6.144 3.104-9.472 3.104s-6.656-1.024-9.472-3.104L0 192v288c0 17.664 14.336 32 32 32h448c17.664 0 32-14.336 32-32V192L265.472 348.896z" fill="#1e88e5"/><path d="M480 512H32c-17.952 0-32-14.048-32-32a16.02 16.02 0 016.528-12.896l240-160c2.816-2.08 6.144-3.104 9.472-3.104s6.656 1.024 9.472 3.104l240 160A16.02 16.02 0 01512 480c0 17.952-14.048 32-32 32z" fill="#2196f3"/></svg>