<svg width="299" height="183" fill="none" xmlns="http://www.w3.org/2000/svg"><path d="M243.074 84.395h-2.316c-3.779-9.654-12.192-18.821-25.175-26.422-36.574-21.159-96.007-21.159-132.642 0-12.192 7.093-20.441 15.67-24.485 24.715H55.51v12.011c-.731 14.391 8.412 28.923 27.43 39.898 36.575 21.158 96.028 21.158 132.663 0 18.287-10.569 27.471-24.39 27.471-38.292v-11.91z" fill="url(#paint0_linear)"/><path opacity=".48" d="M240.756 84.375l-.426-1.017v-7.926h-4.917v-.57a50.79 50.79 0 00-4.166-4.898v5.468h-2.824v-8.13a66.875 66.875 0 00-4.186-3.476v11.606h-2.804v-13.72a97.148 97.148 0 00-4.206-2.744v16.464h-2.723v-18.09a81.806 81.806 0 00-4.206-2.215v20.325h-2.783V53.847a115.01 115.01 0 00-4.227-1.83v23.415h-2.763V56.428h-4.308v19.004h-2.743v-13.78h-4.267v13.78h-2.743v-8.557h-4.267v8.557h-2.722v-3.354h-4.288v3.354h-51.793v-3.354h-4.267v3.354h-2.743v-8.557h-4.267v8.557h-2.743v-13.78h-4.246v13.78h-2.743V56.428h-4.247v19.004h-2.764V51.997c-1.442.59-2.844 1.2-4.246 1.83v21.605h-2.763V55.107a92.087 92.087 0 00-4.227 2.215v18.11h-2.784V58.948a83.305 83.305 0 00-4.206 2.724v13.76h-2.844V63.704a66.779 66.779 0 00-4.186 3.496v8.232h-2.824v-5.508a48.768 48.768 0 00-4.186 4.898v.61h-4.917v7.276h-2.032v20.142a36.237 36.237 0 004.165 10.691V100.96h2.825v16.849a51.075 51.075 0 004.185 4.898V100.96h2.906v24.389a66.565 66.565 0 004.186 3.476V100.98h2.804v29.979a97.605 97.605 0 004.206 2.744V100.98h2.783v34.329a92.431 92.431 0 004.227 2.235V100.96h2.763v37.885a78.01 78.01 0 004.247 1.829V100.98h2.763v40.772a87.857 87.857 0 004.247 1.504V100.98h2.743v43.17l4.246 1.24v-44.41h2.744v45.121l4.267.976V100.98h2.743v46.747l4.267.772V100.98h2.722v47.865l4.288.569V100.98h2.702v48.78c1.443.142 2.865.264 4.308.365V100.98h2.682v49.267l4.328.183v-49.45h2.682v49.511h4.328V100.98h2.661v49.45l4.328-.183V100.98h2.683v49.085a149.9 149.9 0 004.307-.366v-48.78h2.702v48.414a101.15 101.15 0 004.308-.569V100.98h2.703v47.438l4.287-.772v-46.747h2.723v46.096a93.442 93.442 0 004.267-.995v-45.02h2.743v44.389c1.442-.386 2.844-.792 4.267-1.239v-43.15h2.722v42.276c1.443-.488 2.845-.976 4.247-1.504V100.98h2.763v39.674a88.007 88.007 0 004.227-1.809V100.98h2.783v36.585a82.7 82.7 0 004.206-2.236V100.98h2.804v32.703a83.937 83.937 0 004.206-2.744V100.98h2.804v27.926a59.916 59.916 0 004.186-3.496v-24.389h2.824v21.707a48.396 48.396 0 004.166-4.899v-16.808h2.845v12.52a36.448 36.448 0 004.165-10.793V84.456l-1.687-.081z" fill="url(#paint1_linear)"/><path d="M149.262 138.56c51.8 0 93.792-24.251 93.792-54.166 0-29.915-41.992-54.166-93.792-54.166-51.8 0-93.793 24.251-93.793 54.166 0 29.915 41.993 54.166 93.793 54.166z" fill="url(#paint2_linear)"/><path opacity=".4" d="M149.262 182.767c51.8 0 93.792-24.251 93.792-54.166 0-29.915-41.992-54.166-93.792-54.166-51.8 0-93.793 24.251-93.793 54.166 0 29.915 41.993 54.166 93.793 54.166z" fill="#0F054C"/><path d="M149.262 161.04c51.8 0 93.792-24.251 93.792-54.166 0-29.915-41.992-54.166-93.792-54.166-51.8 0-93.793 24.251-93.793 54.166 0 29.915 41.993 54.166 93.793 54.166z" fill="url(#paint3_linear)"/><path opacity=".3" d="M149.305 30.228c-21.253 0-42.507 4.065-59.819 12.419l-27.979 60.852a62.194 62.194 0 0021.437 19.187 106.535 106.535 0 0019.81 8.74l46.551-101.198zm26.271 2.155l-48.135 104.693a162.062 162.062 0 0035.111.935l44.315-96.36a127.977 127.977 0 00-31.291-9.268z" fill="#97A6FD"/><path opacity=".48" d="M243.074 89.028h-2.316c-3.779-9.654-12.192-18.82-25.175-26.422-36.574-21.158-96.007-21.158-132.642 0C70.749 69.7 62.5 78.256 58.456 87.321H55.51v11.992c-.731 14.41 8.412 28.922 27.43 39.918 36.575 21.138 96.028 21.158 132.663 0 18.287-10.589 27.471-24.39 27.471-38.313v-11.89z" fill="url(#paint4_linear)"/><path d="M90.561 53.706c32.511-18.74 85.015-18.74 117.464 0 15.503 8.942 23.59 20.568 24.281 32.296.732-12.805-7.355-25.752-24.281-35.528-32.51-18.74-85.035-18.74-117.464 0-16.946 9.776-25.033 22.723-24.28 35.528.65-11.728 8.736-23.353 24.28-32.296z" fill="url(#paint5_linear)"/><path d="M182.016 65.696l-80.992-10.02 17.353 46.767 52.748-6.3 10.891-30.447z" fill="url(#paint6_linear)"/><path opacity=".4" d="M118.376 102.443l22.168-34.166 30.58 27.865-52.748 6.301z" fill="#0F1C75"/><path opacity=".4" d="M182.016 65.697l-41.471 2.58 30.58 27.866 10.891-30.447z" fill="#0F1C75"/><path opacity=".4" d="M182.016 65.696l-80.992-10.02 39.521 12.6 30.58 27.866 10.891-30.446z" fill="#0F1C75"/><path d="M126.039 106.854l74.448 6.26-10.83-43.007-10.911 23.617-52.707 13.13z" fill="url(#paint7_linear)"/><path opacity=".4" d="M178.745 93.724l21.742 19.39-10.83-43.007-10.912 23.617z" fill="#0F1C75"/><defs><linearGradient id="paint0_linear" x1="61920" y1="19145.2" x2="79068.9" y2="19145.2" gradientUnits="userSpaceOnUse"><stop stop-color="#97A6FD"/><stop offset=".02" stop-color="#411D97"/><stop offset=".09" stop-color="#3AC5E2"/><stop offset=".17" stop-color="#349BCD"/><stop offset=".26" stop-color="#2F78BB"/><stop offset=".35" stop-color="#2B5BAC"/><stop offset=".44" stop-color="#2845A1"/><stop offset=".54" stop-color="#263599"/><stop offset=".66" stop-color="#242C94"/><stop offset=".82" stop-color="#242993"/></linearGradient><linearGradient id="paint1_linear" x1="62846.9" y1="17653.9" x2="79923.5" y2="17653.9" gradientUnits="userSpaceOnUse"><stop stop-color="#97A6FC"/><stop offset=".15" stop-color="#7366C9"/><stop offset=".33" stop-color="#7E7AD9"/><stop offset=".52" stop-color="#6368C6"/><stop offset=".72" stop-color="#4EB3FF"/><stop offset=".93" stop-color="#5489FF"/><stop offset="1" stop-color="#5778FF"/></linearGradient><linearGradient id="paint2_linear" x1="101482" y1="-27632.7" x2="106645" y2="-19245.5" gradientUnits="userSpaceOnUse"><stop stop-color="#7366C8"/><stop offset=".02" stop-color="#40F4FA"/><stop offset=".09" stop-color="#3AC5E2"/><stop offset=".17" stop-color="#349BCD"/><stop offset=".26" stop-color="#2F78BB"/><stop offset=".35" stop-color="#2B5BAC"/><stop offset=".44" stop-color="#2845A1"/><stop offset=".54" stop-color="#263599"/><stop offset=".66" stop-color="#242C94"/><stop offset=".82" stop-color="#242993"/></linearGradient><linearGradient id="paint3_linear" x1="100749" y1="-25980.9" x2="105911" y2="-17593.6" gradientUnits="userSpaceOnUse"><stop stop-color="#654DB3"/><stop offset=".02" stop-color="#40F4FA"/><stop offset=".09" stop-color="#3AC5E2"/><stop offset=".17" stop-color="#349BCD"/><stop offset=".26" stop-color="#2F78BB"/><stop offset=".35" stop-color="#2B5BAC"/><stop offset=".44" stop-color="#2845A1"/><stop offset=".54" stop-color="#263599"/><stop offset=".66" stop-color="#242C94"/><stop offset=".82" stop-color="#242993"/></linearGradient><linearGradient id="paint4_linear" x1="41.307" y1="100.979" x2="227.043" y2="100.979" gradientUnits="userSpaceOnUse"><stop stop-color="#654DB3"/><stop offset=".15" stop-color="#654DB3"/><stop offset=".33" stop-color="#654DB3"/><stop offset=".52" stop-color="#654DB3"/><stop offset=".72" stop-color="#654DB3"/><stop offset=".93" stop-color="#654DB3"/><stop offset="1" stop-color="#654DB3"/></linearGradient><linearGradient id="paint5_linear" x1="66.219" y1="61.206" x2="232.326" y2="61.206" gradientUnits="userSpaceOnUse"><stop stop-color="#2B3AA5"/><stop offset="1" stop-color="#182484"/></linearGradient><linearGradient id="paint6_linear" x1="120025" y1="-65691.9" x2="121424" y2="-63466.3" gradientUnits="userSpaceOnUse"><stop stop-color="#7E7AD9"/><stop offset=".02" stop-color="#40F4FA"/><stop offset=".09" stop-color="#3AC5E2"/><stop offset=".17" stop-color="#349BCD"/><stop offset=".26" stop-color="#2F78BB"/><stop offset=".35" stop-color="#2B5BAC"/><stop offset=".44" stop-color="#2845A1"/><stop offset=".54" stop-color="#263599"/><stop offset=".66" stop-color="#242C94"/><stop offset=".82" stop-color="#242993"/></linearGradient><linearGradient id="paint7_linear" x1="111068" y1="-59766.5" x2="111806" y2="-58744.8" gradientUnits="userSpaceOnUse"><stop stop-color="#7F7BDA"/><stop offset=".078" stop-color="#2B237C"/><stop offset=".177" stop-color="#2B237C"/><stop offset=".26" stop-color="#2B237C"/><stop offset=".35" stop-color="#2B5BAC"/><stop offset=".375" stop-color="#2B237C"/><stop offset=".44" stop-color="#2845A1"/><stop offset=".54" stop-color="#263599"/><stop offset=".66" stop-color="#242C94"/><stop offset=".82" stop-color="#2B237C"/></linearGradient></defs></svg>