<svg width="249" height="164" fill="none" xmlns="http://www.w3.org/2000/svg"><g filter="url(#filter0_d)"><rect x="25" y="20" width="169" height="84" rx="16" fill="#491F98"/><path d="M75.322 61.182h2.012l.017-1.969c3.69-.281 5.83-2.241 5.838-5.199-.009-2.906-2.2-4.449-5.233-5.13l-.503-.12.034-4.261c1.134.264 1.824.989 1.926 2.062h3.537c-.043-2.82-2.148-4.84-5.429-5.198l.017-2.003h-2.011l-.017 1.985c-3.333.324-5.685 2.336-5.668 5.242-.008 2.574 1.807 4.048 4.756 4.756l.818.204-.043 4.509c-1.389-.265-2.326-1.117-2.42-2.54h-3.571c.085 3.443 2.344 5.37 5.957 5.684l-.017 1.978zm2.063-5.122l.034-3.98c1.32.417 2.037.954 2.045 1.926-.008 1.03-.792 1.798-2.08 2.054zm-1.943-7.816c-1.066-.366-1.833-.92-1.816-1.9 0-.912.648-1.62 1.85-1.867l-.034 3.767zm17.96-6.699h-3.468l-4.321 2.736v3.273l3.997-2.506h.102V59h3.69V41.545zm10.764 17.694c3.886 0 6.528-2.532 6.52-6.06.008-3.34-2.327-5.744-5.472-5.744-1.534 0-2.855.639-3.469 1.5h-.102l.452-4.373h7.628v-3.017h-10.67l-.828 9.205 3.282.588c.537-.724 1.576-1.176 2.608-1.176 1.755.008 3.017 1.278 3.017 3.11 0 1.816-1.236 3.069-2.966 3.069-1.466 0-2.651-.92-2.736-2.276h-3.58c.069 3.017 2.702 5.174 6.316 5.174zm10.951-.017c1.091 0 2.037-.912 2.045-2.046-.008-1.116-.954-2.028-2.045-2.028-1.125 0-2.054.912-2.046 2.028a2.041 2.041 0 002.046 2.046zm11.145.017c3.92 0 6.724-2.157 6.716-5.14.008-2.173-1.373-3.724-3.938-4.048v-.136c1.952-.35 3.298-1.73 3.29-3.69.008-2.753-2.404-4.918-6.017-4.918-3.58 0-6.273 2.096-6.324 5.113h3.537c.042-1.33 1.261-2.19 2.77-2.19 1.491 0 2.488.904 2.48 2.216.008 1.372-1.159 2.301-2.838 2.301h-1.628v2.71h1.628c1.977 0 3.213.989 3.204 2.395.009 1.39-1.184 2.344-2.872 2.344-1.628 0-2.846-.852-2.915-2.13h-3.716c.06 3.05 2.787 5.173 6.623 5.173zM135.87 59h12.443v-3.017h-7.329v-.12l2.548-2.496c3.588-3.273 4.551-4.91 4.551-6.895 0-3.026-2.471-5.165-6.213-5.165-3.665 0-6.179 2.19-6.17 5.616h3.503c-.009-1.67 1.048-2.693 2.642-2.693 1.534 0 2.676.955 2.676 2.489 0 1.389-.852 2.343-2.438 3.87l-6.213 5.752V59z" fill="#fff"/><path d="M58.61 84h1.409v-4.25h2.545c2.71 0 3.932-1.648 3.932-3.704 0-2.057-1.222-3.682-3.955-3.682H58.61V84zm1.409-5.5v-4.886h2.477c1.892 0 2.613 1.034 2.613 2.431 0 1.398-.721 2.455-2.59 2.455h-2.5zm8.725 5.5h1.34v-5.523c0-1.181.933-2.045 2.205-2.045.358 0 .728.068.819.09V75.16a12.855 12.855 0 00-.705-.023c-1.046 0-1.955.591-2.273 1.455h-.09v-1.318h-1.296V84zm6.113 0h1.34v-8.727h-1.34V84zm.682-10.182c.522 0 .954-.409.954-.909S76.062 72 75.54 72c-.523 0-.955.41-.955.91s.432.908.955.908zm6.82 10.364c1.932 0 3.205-1.182 3.432-2.728h-1.34c-.25.955-1.046 1.523-2.092 1.523-1.59 0-2.613-1.318-2.613-3.34 0-1.978 1.045-3.273 2.613-3.273 1.182 0 1.887.727 2.091 1.522h1.341c-.227-1.636-1.614-2.727-3.454-2.727-2.364 0-3.932 1.864-3.932 4.523 0 2.614 1.5 4.5 3.954 4.5zm9.211 0c1.773 0 3.069-.886 3.478-2.205l-1.296-.363c-.34.909-1.13 1.363-2.182 1.363-1.573 0-2.659-1.017-2.721-2.886h6.335v-.568c0-3.25-1.932-4.364-3.75-4.364-2.364 0-3.932 1.864-3.932 4.545 0 2.682 1.546 4.478 4.068 4.478zm-2.721-5.25c.09-1.358 1.051-2.568 2.585-2.568 1.455 0 2.386 1.09 2.386 2.568h-4.97zM102.044 84h1.341v-8.727h-1.341V84zm.682-10.182c.522 0 .954-.409.954-.909s-.432-.909-.954-.909c-.523 0-.955.41-.955.91s.432.908.955.908zm4.616 4.932c0-1.523.943-2.386 2.227-2.386 1.244 0 2 .812 2 2.181V84h1.341v-5.546c0-2.227-1.188-3.295-2.955-3.295-1.318 0-2.136.591-2.545 1.477h-.114v-1.363h-1.295V84h1.341v-5.25zm16.134 5.432c1.681 0 2.25-1.046 2.545-1.523h.159V84h1.296V72.364h-1.341v4.295h-.114c-.295-.455-.818-1.5-2.523-1.5-2.204 0-3.727 1.75-3.727 4.5 0 2.773 1.523 4.523 3.705 4.523zm.181-1.205c-1.681 0-2.545-1.477-2.545-3.34 0-1.841.841-3.273 2.545-3.273 1.637 0 2.5 1.318 2.5 3.272 0 1.978-.886 3.341-2.5 3.341zm10.166 1.205c2.364 0 3.955-1.796 3.955-4.5 0-2.728-1.591-4.523-3.955-4.523s-3.955 1.795-3.955 4.523c0 2.704 1.591 4.5 3.955 4.5zm0-1.205c-1.795 0-2.614-1.545-2.614-3.295s.819-3.318 2.614-3.318 2.614 1.568 2.614 3.318-.819 3.295-2.614 3.295zm7.502-10.613h-1.341V84h1.341V72.364zm3.957 0h-1.341V84h1.341V72.364zm5.184 11.84c1.523 0 2.319-.818 2.591-1.386h.068V84h1.341v-5.75c0-2.773-2.113-3.09-3.227-3.09-1.318 0-2.818.454-3.5 2.044l1.273.455c.295-.636.994-1.318 2.273-1.318 1.233 0 1.84.653 1.84 1.773v.045c0 .648-.659.591-2.25.795-1.619.21-3.386.569-3.386 2.569 0 1.704 1.318 2.681 2.977 2.681zm.205-1.204c-1.068 0-1.841-.477-1.841-1.41 0-1.022.932-1.34 1.977-1.476.568-.069 2.091-.228 2.318-.5v1.227c0 1.09-.863 2.159-2.454 2.159zm6.403 1h1.341v-5.523c0-1.181.932-2.045 2.204-2.045.358 0 .728.068.818.09V75.16a12.815 12.815 0 00-.704-.023c-1.046 0-1.955.591-2.273 1.455h-.091v-1.318h-1.295V84z" fill="#F2F2F2"/></g><defs><filter id="filter0_d" x="0" y="0" width="249" height="164" filterUnits="userSpaceOnUse" color-interpolation-filters="sRGB"><feFlood flood-opacity="0" result="BackgroundImageFix"/><feColorMatrix in="SourceAlpha" values="0 0 0 0 0 0 0 0 0 0 0 0 0 0 0 0 0 0 127 0"/><feOffset dx="15" dy="20"/><feGaussianBlur stdDeviation="20"/><feColorMatrix values="0 0 0 0 0.454902 0 0 0 0 0.458824 0 0 0 0 0.854902 0 0 0 0.15 0"/><feBlend in2="BackgroundImageFix" result="effect1_dropShadow"/><feBlend in="SourceGraphic" in2="effect1_dropShadow" result="shape"/></filter></defs></svg>