<svg width="178" height="184" fill="none" xmlns="http://www.w3.org/2000/svg"><g filter="url(#filter0_b)"><rect width="178" height="184" rx="16" fill="#491F98"/></g><path d="M20.07 30.454h-2.635V45h2.635V30.454zm5.51 8.154c0-1.577.952-2.486 2.309-2.486 1.328 0 2.123.874 2.123 2.33V45h2.571v-6.946c.007-2.614-1.484-4.105-3.736-4.105-1.633 0-2.755.781-3.253 1.996h-.127V34.09h-2.458V45h2.571v-6.392zm14.575 6.605c2.742 0 4.489-1.626 4.674-3.942H42.37c-.22 1.172-1.065 1.847-2.194 1.847-1.605 0-2.642-1.342-2.642-3.573 0-2.201 1.058-3.522 2.642-3.522 1.235 0 1.995.795 2.194 1.846h2.458c-.178-2.365-2.025-3.92-4.688-3.92-3.196 0-5.213 2.308-5.213 5.64 0 3.302 1.967 5.624 5.227 5.624zM47.14 45h2.57v-6.413c0-1.385 1.045-2.365 2.458-2.365.433 0 .973.078 1.193.149v-2.365a6.176 6.176 0 00-.923-.071c-1.25 0-2.294.71-2.692 1.974h-.113v-1.818H47.14V45zm12.51.213c2.542 0 4.29-1.243 4.744-3.14l-2.4-.269c-.349.923-1.2 1.406-2.309 1.406-1.662 0-2.763-1.093-2.784-2.961h7.6v-.789c0-3.828-2.302-5.511-4.986-5.511-3.125 0-5.163 2.294-5.163 5.66 0 3.424 2.01 5.604 5.298 5.604zm-2.742-6.697c.078-1.392 1.108-2.564 2.642-2.564 1.478 0 2.472 1.08 2.486 2.564h-5.128zm13.107 6.704c1.712 0 2.734-.802 3.203-1.719h.085V45h2.472v-7.301c0-2.884-2.351-3.75-4.432-3.75-2.294 0-4.055 1.023-4.624 3.011l2.401.341c.256-.746.98-1.385 2.237-1.385 1.193 0 1.847.611 1.847 1.683v.043c0 .739-.774.774-2.699.98-2.117.227-4.14.86-4.14 3.317 0 2.145 1.569 3.281 3.65 3.281zm.668-1.889c-1.073 0-1.84-.49-1.84-1.435 0-.987.86-1.399 2.01-1.562.675-.093 2.024-.263 2.358-.533v1.286c0 1.214-.98 2.244-2.528 2.244zm16.5-6.357c-.356-1.846-1.833-3.025-4.39-3.025-2.628 0-4.418 1.293-4.41 3.31-.008 1.59.973 2.642 3.068 3.075l1.86.39c1.002.22 1.47.625 1.47 1.243 0 .746-.809 1.307-2.03 1.307-1.18 0-1.947-.511-2.167-1.491l-2.507.241c.32 2.003 2.003 3.19 4.68 3.19 2.728 0 4.652-1.414 4.66-3.481-.008-1.555-1.009-2.507-3.069-2.955l-1.86-.397c-1.108-.249-1.549-.632-1.542-1.264-.007-.74.81-1.25 1.883-1.25 1.186 0 1.81.646 2.01 1.363l2.343-.256zm7.383 8.24c2.543 0 4.29-1.244 4.745-3.14l-2.401-.27c-.348.923-1.2 1.406-2.308 1.406-1.662 0-2.763-1.093-2.784-2.961h7.599v-.789c0-3.828-2.301-5.511-4.986-5.511-3.125 0-5.163 2.294-5.163 5.66 0 3.424 2.01 5.604 5.298 5.604zm-2.741-6.698c.078-1.392 1.108-2.564 2.642-2.564 1.477 0 2.471 1.08 2.486 2.564h-5.128zM106.953 45h2.571V34.09h-2.571V45zm1.293-12.457c.816 0 1.484-.625 1.484-1.392 0-.775-.668-1.4-1.484-1.4-.824 0-1.492.625-1.492 1.4 0 .767.668 1.392 1.492 1.392zm6.693 6.065c0-1.577.952-2.486 2.308-2.486 1.328 0 2.124.874 2.124 2.33V45h2.571v-6.946c.007-2.614-1.485-4.105-3.736-4.105-1.634 0-2.756.781-3.253 1.996h-.128V34.09h-2.457V45h2.571v-6.392zM16.796 60.663h4.495V73h2.614V60.663H28.4v-2.208H16.796v2.208zM29.59 73h2.571v-6.413c0-1.385 1.044-2.365 2.458-2.365.433 0 .973.078 1.193.149v-2.365a6.175 6.175 0 00-.923-.071c-1.25 0-2.294.71-2.692 1.974h-.114v-1.818H29.59V73zm11.054.22c1.712 0 2.735-.802 3.203-1.719h.086V73h2.471v-7.301c0-2.884-2.35-3.75-4.431-3.75-2.294 0-4.056 1.023-4.624 3.011l2.4.341c.256-.746.98-1.385 2.238-1.385 1.193 0 1.846.611 1.846 1.683v.043c0 .739-.774.774-2.699.98-2.116.227-4.14.86-4.14 3.317 0 2.145 1.57 3.281 3.65 3.281zm.668-1.889c-1.072 0-1.84-.49-1.84-1.435 0-.987.86-1.399 2.01-1.562.675-.093 2.025-.263 2.358-.533v1.286c0 1.214-.98 2.244-2.528 2.244zm11.926 1.86c1.875 0 2.72-1.114 3.125-1.91h.156V73h2.528V58.455H56.47v5.44h-.106c-.39-.789-1.193-1.946-3.118-1.946-2.521 0-4.503 1.974-4.503 5.61 0 3.594 1.925 5.633 4.496 5.633zm.717-2.109c-1.697 0-2.592-1.491-2.592-3.536 0-2.032.88-3.488 2.592-3.488 1.655 0 2.564 1.371 2.564 3.487 0 2.117-.923 3.537-2.564 3.537zm12.862 2.131c2.542 0 4.29-1.243 4.744-3.14l-2.4-.269c-.349.923-1.2 1.406-2.309 1.406-1.662 0-2.762-1.093-2.784-2.961h7.6v-.789c0-3.828-2.301-5.511-4.986-5.511-3.125 0-5.164 2.294-5.164 5.66 0 3.424 2.01 5.604 5.299 5.604zm-2.742-6.697c.078-1.392 1.108-2.564 2.642-2.564 1.478 0 2.472 1.08 2.486 2.564h-5.128z" fill="#fff"/><path d="M23.773 147.273h1.363c-.062-1.756-1.681-3.068-3.931-3.068-2.228 0-3.978 1.295-3.978 3.25 0 1.568 1.137 2.5 2.955 3.022l1.432.409c1.227.341 2.318.773 2.318 1.932 0 1.273-1.227 2.114-2.841 2.114-1.387 0-2.614-.614-2.727-1.932h-1.455c.137 1.909 1.682 3.205 4.182 3.205 2.682 0 4.204-1.478 4.204-3.364 0-2.182-2.068-2.886-3.272-3.205l-1.182-.318c-.864-.227-2.25-.682-2.25-1.932 0-1.113 1.023-1.931 2.568-1.931 1.41 0 2.477.67 2.614 1.818zm7.477 8.909c1.772 0 3.068-.887 3.477-2.205l-1.296-.363c-.34.909-1.13 1.363-2.181 1.363-1.574 0-2.66-1.017-2.722-2.886h6.335v-.568c0-3.25-1.932-4.364-3.75-4.364-2.363 0-3.932 1.864-3.932 4.546 0 2.681 1.546 4.477 4.069 4.477zm-2.722-5.25c.09-1.358 1.051-2.568 2.585-2.568 1.455 0 2.386 1.091 2.386 2.568h-4.971zm9.876-6.568h-1.341V156h1.34v-11.636zm3.957 0H41.02V156h1.34v-11.636zm10.821 11.818c2.364 0 3.955-1.796 3.955-4.5 0-2.727-1.591-4.523-3.955-4.523s-3.954 1.796-3.954 4.523c0 2.704 1.59 4.5 3.954 4.5zm0-1.205c-1.795 0-2.614-1.545-2.614-3.295s.819-3.318 2.614-3.318c1.796 0 2.614 1.568 2.614 3.318s-.818 3.295-2.614 3.295zm6.161 4.296h1.341v-4.614h.114c.295.477.864 1.523 2.545 1.523 2.182 0 3.705-1.75 3.705-4.523 0-2.75-1.523-4.5-3.727-4.5-1.705 0-2.227 1.046-2.523 1.5h-.159v-1.386h-1.296v12zm1.319-7.637c0-1.954.863-3.272 2.5-3.272 1.704 0 2.545 1.431 2.545 3.272 0 1.864-.863 3.341-2.545 3.341-1.614 0-2.5-1.363-2.5-3.341zm12.387-4.363h-1.864v-2.091h-1.34v2.091h-1.319v1.136h1.318v5.455c0 1.522 1.228 2.25 2.364 2.25.5 0 .818-.091 1-.159l-.273-1.205c-.113.023-.295.068-.59.068-.591 0-1.16-.182-1.16-1.318v-5.091h1.864v-1.136zM75.226 156h1.34v-8.727h-1.34V156zm.682-10.182c.523 0 .954-.409.954-.909s-.431-.909-.954-.909c-.523 0-.955.409-.955.909s.432.909.955.909zm6.82 10.364c2.364 0 3.955-1.796 3.955-4.5 0-2.727-1.591-4.523-3.955-4.523-2.363 0-3.954 1.796-3.954 4.523 0 2.704 1.59 4.5 3.954 4.5zm0-1.205c-1.795 0-2.613-1.545-2.613-3.295s.818-3.318 2.613-3.318c1.796 0 2.614 1.568 2.614 3.318s-.818 3.295-2.614 3.295zm7.503-4.227c0-1.523.943-2.386 2.227-2.386 1.244 0 2 .812 2 2.181V156h1.34v-5.545c0-2.228-1.187-3.296-2.954-3.296-1.318 0-2.136.591-2.545 1.477h-.114v-1.363H88.89V156h1.34v-5.25z" fill="#F2F2F2"/><path d="M22.63 116.341h3.052v-4.509h4.508v-3.051h-4.508v-4.508H22.63v4.508h-4.509v3.051h4.509v4.509zM33.956 119h3.81l7.243-14.395v-3.06H32.761v3.017h8.43v.12L33.954 119zm19.963.239c3.887 0 6.529-2.532 6.52-6.06.009-3.341-2.327-5.744-5.471-5.744-1.535 0-2.856.639-3.47 1.5h-.102l.452-4.373h7.628v-3.017h-10.67l-.827 9.205 3.281.588c.537-.724 1.577-1.176 2.608-1.176 1.756.008 3.017 1.278 3.017 3.111 0 1.815-1.236 3.068-2.966 3.068-1.466 0-2.65-.921-2.736-2.276h-3.58c.07 3.017 2.703 5.174 6.316 5.174zm18.888-3.512c.008 2.097 1.347 3.878 3.844 3.878 2.471 0 3.852-1.781 3.843-3.878v-.92c.009-2.114-1.338-3.878-3.843-3.878-2.463 0-3.836 1.781-3.844 3.878v.92zm-8.957-9.988c.008 2.096 1.346 3.86 3.835 3.86 2.48 0 3.86-1.747 3.852-3.86v-.921c.009-2.113-1.338-3.878-3.852-3.878-2.438 0-3.827 1.765-3.835 3.878v.921zM64.684 119h2.224l12-17.455h-2.224l-12 17.455zm10.602-4.193c.009-.835.341-1.696 1.364-1.696 1.074 0 1.355.861 1.346 1.696v.92c.009.835-.306 1.679-1.346 1.679s-1.355-.869-1.364-1.679v-.92zm-8.94-9.989c.008-.809.324-1.696 1.338-1.696 1.074 0 1.363.861 1.355 1.696v.921c.008.835-.315 1.679-1.355 1.679-1.006 0-1.33-.844-1.338-1.679v-.921z" fill="#fff"/><path d="M107.71 110.29l-5-5a.988.988 0 00-.33-.21 1 1 0 00-.76 0 .998.998 0 00-.33.21l-5 5a1 1 0 00-.294.71 1.004 1.004 0 001.714.71l3.29-3.3V116a1.003 1.003 0 001 1 1 1 0 001-1v-7.59l3.29 3.3a1.001 1.001 0 001.639-.326.99.99 0 000-.769.997.997 0 00-.219-.325z" fill="#FD8589"/><defs><filter id="filter0_b" x="-250" y="-250" width="678" height="684" filterUnits="userSpaceOnUse" color-interpolation-filters="sRGB"><feFlood flood-opacity="0" result="BackgroundImageFix"/><feGaussianBlur in="BackgroundImage" stdDeviation="125"/><feComposite in2="SourceAlpha" operator="in" result="effect1_backgroundBlur"/><feBlend in="SourceGraphic" in2="effect1_backgroundBlur" result="shape"/></filter></defs></svg>