<svg width="245" height="333" fill="none" xmlns="http://www.w3.org/2000/svg"><path style="mix-blend-mode:lighten" opacity=".2" d="M100.674 92.234L.196 92.72l10.81 215.566c-.101 6.097 3.901 12.195 11.988 16.93 15.97 9.228 41.877 9.228 57.848 0 8.128-4.695 12.192-10.873 11.968-17.052l7.864-215.931z" fill="url(#paint0_linear)"/><path style="mix-blend-mode:lighten" opacity=".1" d="M92.812 84.145H11.008v224.142c-.101 6.098 3.902 12.195 11.989 16.931 15.97 9.227 41.877 9.227 57.847 0 8.128-4.695 12.192-10.874 11.968-17.053V84.145z" fill="url(#paint1_linear)"/><path style="mix-blend-mode:lighten" opacity=".2" d="M172.705 50.06l-100.477.488 10.81 215.586c0 6.097 3.88 12.195 11.967 16.93 15.991 9.228 41.898 9.228 57.868 0 8.128-4.695 12.192-10.894 11.968-17.052l7.864-215.952z" fill="url(#paint2_linear)"/><path style="mix-blend-mode:lighten" opacity=".1" d="M164.78 41.97H83.037v224.163c0 6.098 3.88 12.195 11.967 16.931 15.991 9.227 41.898 9.227 57.869 0 8.127-4.695 12.191-10.894 11.968-17.053l-.061-224.04z" fill="url(#paint3_linear)"/><path style="mix-blend-mode:lighten" opacity=".2" d="M244.898 8.09l-100.436.487 10.83 215.566c-.122 6.097 3.881 12.195 11.968 16.93 15.97 9.228 41.877 9.228 57.848 0 8.127-4.695 12.191-10.874 11.968-17.052l7.822-215.932z" fill="url(#paint4_linear)"/><path style="mix-blend-mode:lighten" opacity=".1" d="M237.034 0H155.23v224.143c-.122 6.097 3.881 12.194 11.968 16.93 15.971 9.228 41.877 9.228 57.848 0 8.128-4.695 12.191-10.874 11.968-17.052L237.034 0z" fill="url(#paint5_linear)"/><defs><linearGradient id="paint0_linear" x1="50.445" y1="92.234" x2="50.445" y2="332.148" gradientUnits="userSpaceOnUse"><stop stop-color="#182484"/><stop offset=".21" stop-color="#21529E"/><stop offset="1" stop-color="#97A6FD"/></linearGradient><linearGradient id="paint1_linear" x1="40382.5" y1="27916.5" x2="40382.5" y2="58176.7" gradientUnits="userSpaceOnUse"><stop stop-color="#182484"/><stop offset=".21" stop-color="#21529E"/><stop offset="1" stop-color="#97A6FD"/></linearGradient><linearGradient id="paint2_linear" x1="53141.2" y1="22953.3" x2="53141.2" y2="51274" gradientUnits="userSpaceOnUse"><stop stop-color="#182484"/><stop offset=".21" stop-color="#21529E"/><stop offset="1" stop-color="#97A6FD"/></linearGradient><linearGradient id="paint3_linear" x1="43353.9" y1="22730.3" x2="43353.9" y2="52993" gradientUnits="userSpaceOnUse"><stop stop-color="#182484"/><stop offset=".21" stop-color="#21529E"/><stop offset="1" stop-color="#97A6FD"/></linearGradient><linearGradient id="paint4_linear" x1="56761.5" y1="17955.3" x2="56761.5" y2="46273.7" gradientUnits="userSpaceOnUse"><stop stop-color="#182484"/><stop offset=".21" stop-color="#21529E"/><stop offset="1" stop-color="#97A6FD"/></linearGradient><linearGradient id="paint5_linear" x1="46329.4" y1="17565.4" x2="46329.4" y2="47825.6" gradientUnits="userSpaceOnUse"><stop stop-color="#182484"/><stop offset=".21" stop-color="#21529E"/><stop offset="1" stop-color="#97A6FC"/></linearGradient></defs></svg>