<svg width="40" height="40" fill="none" xmlns="http://www.w3.org/2000/svg"><g fill="#fff"><path d="M20 40c11.046 0 20-8.954 20-20S31.046 0 20 0 0 8.954 0 20s8.954 20 20 20z" fill-opacity=".1"/><path d="M18.842 28.046a8.141 8.141 0 01-6.946-8.057 8.14 8.14 0 016.946-8.057v-4.24c-6.256.599-11.15 5.876-11.15 12.297s4.893 11.698 11.15 12.297v-4.24zm8.157-3.172l-.062.075v3.836l.062.18L32 21.92l-5 2.954z"/><path d="M26.998 28.965v-4.09L22 21.92l4.998 7.044zm0-16.965l-.109.371V23.14l.11.11 4.998-2.955L26.998 12z"/><path d="M26.998 12L22 20.294l4.998 2.954V12zm0 11.248l4.999-2.954-4.999-2.272v5.226z"/><path d="M22 20.294l4.998 2.954v-5.226L22 20.294z"/></g></svg>