<svg width="487" height="465" fill="none" xmlns="http://www.w3.org/2000/svg"><path opacity=".4" d="M243.174 449.362l1.484.853a4.255 4.255 0 003.901 0l68.678-39.654a1.193 1.193 0 00.792-1.128 1.199 1.199 0 00-.792-1.128l-.305-.182-2.032-1.118a1.2 1.2 0 010-2.256l.711-.427a4.39 4.39 0 013.902 0 4.31 4.31 0 003.921 0l7.498-4.329a1.2 1.2 0 000-2.257l-2.885-1.646 101.594-58.637-18.632-47.926-82.962-10.732-217.616 125.71-1.727.996-14.223 8.251 3.291 1.911 14.223-8.252 98.324 56.767 12.821-7.398 5.141 2.907a4.382 4.382 0 003.901 0l8.27-4.777a1.199 1.199 0 000-2.256l-1.504-.853a1.2 1.2 0 010-2.256l.427-.244a4.263 4.263 0 013.799.061z" fill="#0F1C75"/><path d="M204.972 325.543l5.283 11.199a10.154 10.154 0 004.511 4.756 19.29 19.29 0 0017.372.122l-27.166-16.077z" fill="#111E72"/><path d="M201.377 324.467l-34.4 2.235c.549 6.098 9.388 15.427 16.255 17.642l18.145-19.877z" fill="url(#paint0_linear)"/><path d="M203.083 324.975l-17.21 11.911c3.597 6.402 14.955 10.874 22.818 10.305l-5.608-22.216z" fill="url(#paint1_linear)"/><path d="M204.972 324.791l5.019 10.629a11.681 11.681 0 005.933 5.874 19.145 19.145 0 0016.255-.427l-27.207-16.076z" fill="url(#paint2_linear)"/><path d="M206.337 324.627l27.837 7.48c6.096 1.605 10.159-.143 10.485-3.679l-38.322-3.801z" fill="#111E72"/><path d="M206.337 324.019l27.837 7.459c6.096 1.605 10.159-.122 10.485-3.679l-38.322-3.78z" fill="url(#paint3_linear)"/><path d="M207.128 329.364v.894l-.731-1.178.731.284zm6.604-3.373v.874l-.549-.122s-.183-.671-.163-.671l.712-.081z" fill="#2D36AD"/><path d="M346.882 319.69l-9.408-5.427-8.716 5.02-88.53 51.138-16.011 9.248 10.464 6.097 4.429 2.561 3.841 2.215a1.41 1.41 0 001.219 0l11.48-6.626a.384.384 0 000-.711l-3.84-2.215 3.332-1.931 3.84 2.215a1.297 1.297 0 001.219 0l87.372-50.426a.363.363 0 00.178-.557.365.365 0 00-.178-.134l-3.84-2.215 2.986-1.728a4.302 4.302 0 003.922 0l9.428-5.447c1.097-.63 1.097-1.646 0-2.256l-2.479-1.443a4.312 4.312 0 00-3.921 0l-4.613 2.663a2.246 2.246 0 01-1.092.262 2.248 2.248 0 01-1.082-.303z" fill="#192584"/><path d="M347.732 328.043v2.419l-2.987-1.199 2.987-1.22zm13.066-10.833v2.398l-2.072-1.402 2.072-.996z" fill="#192584"/><path d="M346.882 317.271l-9.408-5.427-8.716 5.041-88.53 51.117-16.011 9.268 10.464 6.098 4.429 2.56 3.841 2.216a1.293 1.293 0 001.219 0l11.48-6.626a.383.383 0 00.236-.356.384.384 0 00-.236-.355l-3.84-2.216 3.332-1.931 3.84 2.216a1.305 1.305 0 001.219 0l87.372-50.406c.345-.203.345-.508 0-.711l-3.922-2.216 2.987-1.727a4.312 4.312 0 003.922 0l9.428-5.447c1.097-.63 1.097-1.626 0-2.256l-2.479-1.443a4.3 4.3 0 00-3.922 0l-4.612 2.662a2.223 2.223 0 01-2.093-.061z" fill="#2D36AD"/><path d="M236.162 384.181l121.345-69.572-4.125-2.419-118.723 71.117 1.503.874zm19.71-3.07v2.439l-3.109-1.056 3.109-1.383z" fill="#192584"/><path d="M255.732 376.966l3.231 1.849a1.293 1.293 0 001.219 0l87.371-50.405c.346-.204.346-.508 0-.712l-3.23-1.87-88.591 51.138z" fill="url(#paint4_linear)"/><path d="M244.15 388.083l11.48-6.626a.385.385 0 000-.711l-3.231-1.85-12.699 7.317 3.231 1.87a1.296 1.296 0 001.219 0z" fill="url(#paint5_linear)"/><path d="M427.831 257.881L211.8 382.655l-10.972-13.699-77.436-44.735-10.972 1.037 216.031-124.775 17.596-4.857 62.115 8.861 15.341 35.874 4.328 17.52z" fill="#242993"/><path d="M198.696 367.717L422.651 238.39l-14.487-33.902-58.701-8.374-223.956 129.348 73.189 42.255z" fill="#242993"/><path d="M200.829 368.957l222.675-128.595 4.328 17.52-216.031 124.774-10.972-13.699z" fill="url(#paint6_linear)"/><path d="M123.392 324.221l222.655-128.595-17.596 4.857L112.42 325.258l10.972-1.037z" fill="url(#paint7_linear)"/><path d="M198.696 364.607L422.651 235.28l-14.487-33.901-58.701-8.374-223.956 129.347 73.189 42.255z" fill="url(#paint8_linear)"/><path d="M167.08 346.355l243.055-140.363-1.971-4.614-5.71-.813-243.908 140.851 8.534 4.939z" fill="url(#paint9_linear)"/><path d="M402.454 201.988l5.71.813 1.483 3.455.488-.264-1.971-4.614-5.71-.813-243.908 140.851 1.239.712 242.669-140.14z" fill="#242993"/><path d="M198.696 364.608v3.109l-73.189-42.255v-3.11l73.189 42.256z" fill="#192584"/><path d="M198.696 364.608v3.109l-73.189-42.255v-3.11l73.189 42.256z" fill="#404FCE"/><path d="M198.695 364.606L422.65 235.279v3.11L198.695 367.716v-3.11z" fill="url(#paint10_linear)"/><path d="M211.8 382.656v39.349l-99.38-57.398v-39.349l10.972-1.036 77.436 44.735 10.972 13.699z" fill="#2D36AD"/><path d="M209.73 383.835v39.369l-99.38-57.398v-39.369l10.972-1.016 77.435 44.715 10.973 13.699z" fill="#2D36AD"/><path d="M211.8 382.656v14.329l216.031-124.774v-14.329L211.8 382.656z" fill="url(#paint11_linear)"/><path d="M209.727 423.204l2.073-1.199v-39.349l-2.073 1.179v39.369z" fill="#5F74EA"/><path d="M211.802 382.656l-10.972-13.699-2.072 1.178 10.972 13.699 2.072-1.178z" fill="#5F74EA"/><path opacity=".3" d="M210.927 341.478a64.262 64.262 0 01-31.474-7.52c-8.635-4.98-13.329-11.646-13.207-18.76.122-7.114 4.795-13.415 13.207-18.293 17.353-10.02 45.576-10.02 62.989 0 8.351 4.817 13.024 11.26 13.207 18.13.183 6.87-4.51 13.862-13.187 18.882a64.259 64.259 0 01-31.535 7.561zm0-50.914a63.161 63.161 0 00-30.884 7.378c-8.026 4.634-12.517 10.772-12.618 17.276-.102 6.504 4.368 12.967 12.618 17.744 17.027 9.837 44.701 9.837 61.79 0 8.31-4.797 12.78-11.138 12.618-17.866-.163-6.727-4.653-12.54-12.618-17.154a63.187 63.187 0 00-30.926-7.378h.02z" fill="#0B196D"/><path d="M252.357 307.007v-4.898l-6.563-7.805-7.558-4.268-11.399-4.37-11.155-1.463h-13.329l-12.679 2.723-8.453 3.496-6.949 4.96-5.791 9.41v3.943a15.299 15.299 0 00-1.544 7.236h3.007a14.456 14.456 0 01.975-5.671l27.268-17.276 2.357-.407 18.836 2.155 17.312 5.081 13.126 8.293a14.47 14.47 0 011.889 8.983h2.987c.39-3.541-.434-7.11-2.337-10.122z" fill="url(#paint12_linear)"/><path d="M274.728 314.406l-69.044-39.857 1.544-.895 69.044 39.857-1.544.895z" fill="#5F74EA"/><path d="M273.571 315.075l-69.044-39.877 1.158-.65 69.044 39.857-1.158.67z" fill="#3C53C9"/><path d="M272.027 315.97l-69.044-39.878 1.544-.894 69.044 39.877-1.544.895z" fill="#5F74EA"/><path d="M270.89 316.642l-69.044-39.878 1.138-.67 69.044 39.877-1.138.671z" fill="#3C53C9"/><path d="M269.322 317.536l-69.023-39.878 1.544-.894 69.044 39.877-1.565.895z" fill="#5F74EA"/><path d="M268.185 318.186l-69.044-39.877 1.158-.65 69.023 39.877-1.137.65z" fill="#3C53C9"/><path d="M266.641 319.08l-69.044-39.857 1.544-.914 69.044 39.877-1.544.894z" fill="#5F74EA"/><path d="M265.483 319.751l-69.023-39.877 1.138-.651 69.044 39.857-1.159.671z" fill="#3C53C9"/><path d="M263.939 320.645l-69.044-39.878 1.565-.894 69.023 39.877-1.544.895z" fill="#5F74EA"/><path d="M262.801 321.294l-69.044-39.857 1.138-.67 69.044 39.877-1.138.65z" fill="#3C53C9"/><path d="M261.258 322.189l-69.044-39.857 1.545-.894 69.043 39.857-1.544.894z" fill="#5F74EA"/><path d="M260.101 322.861l-69.044-39.877 1.158-.651 69.044 39.858-1.158.67z" fill="#3C53C9"/><path d="M258.554 323.755l-69.044-39.878 1.544-.894 69.044 39.877-1.544.895z" fill="#5F74EA"/><path d="M257.397 324.404l-69.024-39.857 1.138-.671 69.044 39.878-1.158.65z" fill="#3C53C9"/><path d="M255.853 325.299l-69.024-39.857 1.545-.895 69.023 39.857-1.544.895z" fill="#5F74EA"/><path d="M254.713 325.97l-69.044-39.878 1.158-.65 69.024 39.857-1.138.671z" fill="#3C53C9"/><path d="M253.168 326.865l-69.044-39.878 1.544-.894 69.044 39.878-1.544.894z" fill="#5F74EA"/><path d="M252.01 327.536l-69.044-39.877 1.158-.671 69.044 39.877-1.158.671z" fill="#3C53C9"/><path d="M250.467 328.43l-69.044-39.878 1.545-.894 69.043 39.877-1.544.895z" fill="#5F74EA"/><path d="M249.329 329.08l-69.044-39.857 1.138-.671 69.044 39.877-1.138.651z" fill="#3C53C9"/><path d="M247.766 329.975l-69.024-39.877 1.545-.874 69.043 39.857-1.564.894z" fill="#5F74EA"/><path d="M246.628 330.644l-69.044-39.878 1.158-.67 69.024 39.877-1.138.671z" fill="#3C53C9"/><path d="M245.084 331.539l-69.044-39.878 1.545-.894 69.043 39.877-1.544.895z" fill="#5F74EA"/><path d="M243.923 332.19L174.9 292.333l1.138-.671 69.044 39.878-1.159.65z" fill="#3C53C9"/><path d="M242.381 333.084l-69.044-39.857 1.565-.895 69.023 39.857-1.544.895z" fill="#5F74EA"/><path d="M241.243 333.754l-69.044-39.877 1.138-.65 69.044 39.857-1.138.67z" fill="#3C53C9"/><path d="M239.7 334.649l-69.044-39.877 1.544-.895 69.044 39.878-1.544.894z" fill="#5F74EA"/><path d="M238.538 335.32l-69.044-39.878 1.158-.67 69.044 39.877-1.158.671z" fill="#3C53C9"/><path d="M236.995 336.194l-69.044-39.857 1.545-.895 69.043 39.878-1.544.874z" fill="#5F74EA"/><path d="M235.838 336.865l-69.024-39.878 1.138-.65 69.044 39.857-1.158.671z" fill="#3C53C9"/><path d="M234.293 337.758l-69.024-39.877 1.545-.895 69.023 39.878-1.544.894z" fill="#5F74EA"/><path d="M233.156 338.429l-69.044-39.877 1.158-.671 69.024 39.877-1.138.671z" fill="#3C53C9"/><path d="M231.612 339.324l-69.044-39.878 1.545-.894 69.043 39.877-1.544.895z" fill="#5F74EA"/><path d="M230.455 339.974l-69.044-39.857 1.158-.67 69.044 39.877-1.158.65z" fill="#3C53C9"/><path d="M228.91 340.868l-69.044-39.857 1.545-.894 69.043 39.857-1.544.894z" fill="#5F74EA"/><path d="M227.77 341.539l-69.044-39.877 1.138-.651 69.044 39.857-1.138.671z" fill="#3C53C9"/><path d="M226.207 342.433l-69.024-39.878 1.545-.894 69.043 39.877-1.564.895z" fill="#5F74EA"/><path d="M225.069 343.084l-69.044-39.857 1.158-.671 69.024 39.877-1.138.651z" fill="#3C53C9"/><path d="M223.524 343.977L154.48 304.12l1.545-.894 69.043 39.857-1.544.894z" fill="#5F74EA"/><path d="M222.368 344.649l-69.024-39.878 1.138-.65 69.044 39.857-1.158.671z" fill="#3C53C9"/><path d="M220.821 345.544l-69.044-39.878 1.565-.894 69.023 39.877-1.544.895z" fill="#5F74EA"/><path d="M219.684 346.194l-69.044-39.857 1.138-.671 69.044 39.877-1.138.651z" fill="#3C53C9"/><path d="M218.12 347.087l-69.024-39.857 1.545-.895 69.043 39.858-1.564.894z" fill="#5F74EA"/><path d="M216.982 347.758l-69.044-39.878 1.158-.65 69.024 39.857-1.138.671z" fill="#3C53C9"/><path d="M215.438 348.653l-69.043-39.877 1.544-.895 69.043 39.878-1.544.894z" fill="#5F74EA"/><path d="M214.28 349.323l-69.024-39.878 1.138-.67 69.044 39.877-1.158.671z" fill="#3C53C9"/><path d="M212.735 350.217l-69.024-39.877 1.545-.894 69.023 39.877-1.544.894z" fill="#5F74EA"/><path d="M211.597 350.868l-69.044-39.878 1.158-.65 69.024 39.877-1.138.651z" fill="#3C53C9"/><path d="M210.052 351.763l-69.044-39.877 1.545-.895 69.043 39.878-1.544.894z" fill="#5F74EA"/><path d="M208.895 352.433l-69.044-39.877 1.158-.671 69.044 39.878-1.158.67z" fill="#3C53C9"/><path opacity=".5" d="M239.842 332.107c-15.971 9.228-41.877 9.228-57.848 0-15.971-9.227-15.991-24.186 0-33.414 15.991-9.227 41.877-9.227 57.848 0 15.971 9.228 15.991 24.187 0 33.414z" fill="#09185E"/><path d="M241.976 290.585c-17.149-9.919-44.965-9.919-62.114 0-8.473 4.877-12.761 11.28-12.862 17.702h3.007c.101-5.975 4.064-11.93 11.988-16.483 15.971-9.227 41.877-9.227 57.848 0 7.843 4.532 11.826 10.447 11.968 16.26 1.016-.529 2.032 0 3.027.142-.142-6.321-4.368-12.723-12.862-17.621z" fill="#7990FC"/><path opacity=".6" d="M249.676 322.982l-28.101-2.784c.222-.471.34-.984.346-1.504v-.448l28.202-3.638a4.243 4.243 0 00.63-2.642c.244-2.032-1.219-3.354-4.063-2.805l-24.851 7.094a3.852 3.852 0 00-.528-1.789l23.225-12.54a32.536 32.536 0 00-4.674-3.232 40.426 40.426 0 00-4.51-2.216 8.741 8.741 0 00-4.999 2.521l-11.765 12.926a12.46 12.46 0 00-2.255-.914l10.546-17.358a66.416 66.416 0 00-13.736-1.829 18.285 18.285 0 00-6.441 4.512v1.24l3.21 12.784-1.199.163-4.063-18.455a62.752 62.752 0 00-13.756 2.744 22.656 22.656 0 00-4.247 4.065l-1.93-1.646a32.13 32.13 0 00-2.764 1.443 35.398 35.398 0 00-4.165 2.804 39.51 39.51 0 00-3.454 7.277l-1.605-.488a36.89 36.89 0 00-.813 8.13 22.573 22.573 0 001.382 8.414 25.054 25.054 0 003.901 4.065l2.194-.63a28.968 28.968 0 003.414 4.37 50.512 50.512 0 0011.724 4.492l2.235-2.439a20.809 20.809 0 005.263 3.841c4.507.573 9.059.709 13.593.407l-3.576-14.228c.789-.04 1.576-.121 2.357-.243l3.23 6.849a9.412 9.412 0 004.206 4.451 18.3 18.3 0 004.389 1.545 53.778 53.778 0 009.835-3.313l-17.942-10.65c.264-.122.528-.224.772-.366a7.33 7.33 0 001.605-1.199l19.486 5.223c2.081.654 4.3.731 6.421.224a21.391 21.391 0 003.271-4.228z" fill="#0B196D"/><path d="M209.607 315.136l-6.095-28.251c-7.112.813-17.312 7.418-19.181 13.292l25.276 14.959z" fill="#111E72"/><path d="M208.349 315.868l-25.927-22.235c-4.938 3.069-9.774 14.003-9.774 18.719l35.701 3.516z" fill="#111E72"/><path d="M208.065 316.579l-35.822-10.67c-.874 4.065-2.235 14.105 3.352 19.918l32.47-9.248z" fill="#111E72"/><path d="M208.875 317.413l-32.043 2.032c.508 5.772 8.737 14.39 15.199 16.443l16.844-18.475z" fill="#111E72"/><path d="M210.461 317.8l-16.032 11.097c3.353 5.955 13.939 10.162 21.254 9.614l-5.222-20.711z" fill="#111E72"/><path d="M209.607 313.917l-6.095-28.252c-7.112.793-17.312 7.398-19.181 13.272l25.276 14.98z" fill="url(#paint13_linear)"/><path d="M208.349 314.649l-25.927-22.255c-4.938 3.069-9.774 14.003-9.774 18.719l35.701 3.536z" fill="url(#paint14_linear)"/><path d="M208.065 315.666l-35.822-10.671c-.874 4.167-2.235 14.106 3.352 19.919l32.47-9.248z" fill="url(#paint15_linear)"/><path d="M211.376 314.995l16.032-26.422c-6.563-1.768-15.869-.285-21.254 5.691l5.222 20.731z" fill="#111E72"/><path d="M227.407 288.593v-1.24l-16.032 26.402v1.24l16.032-26.402z" fill="#242993"/><path d="M206.154 293.043v1.239l5.222 20.711v-1.239l-4.409-19.167-.813-1.544z" fill="#242993"/><path d="M211.376 313.754l16.032-26.422c-6.563-1.768-15.869-.284-21.254 5.691l5.222 20.731z" fill="url(#paint16_linear)"/><path d="M212.959 315.381l32.043-17.378c-3.495-3.659-10.586-5.752-15.198-1.138l-16.845 18.516z" fill="#111E72"/><path d="M245.002 298.084v-1.24l-11.988 3.354-20.055 14.024v1.24l32.043-17.378z" fill="#242993"/><path d="M212.959 314.222l32.043-17.378c-3.495-3.658-10.586-5.752-15.198-1.138l-16.845 18.516z" fill="url(#paint17_linear)"/><path d="M213.772 315.93l35.822-4.614c1.625-2.845.203-5.325-3.353-4.613l-32.469 9.227z" fill="#242993"/><path d="M213.772 315.136l35.822-4.634c1.625-2.866.203-5.345-3.353-4.634l-32.469 9.268z" fill="url(#paint18_linear)"/><path d="M220.559 313.043a6.871 6.871 0 00-2.235-1.931 16.401 16.401 0 00-14.812 0 7.101 7.101 0 00-2.235 1.931h-.833v5.183a5.178 5.178 0 003.068 4.268 16.39 16.39 0 0014.812 0 5.186 5.186 0 003.068-4.268v-5.183h-.833z" fill="#2D36AD"/><path opacity=".6" d="M214.241 321.905v2.033c.302-.047.601-.115.894-.203.365-.102.426-2.034.426-2.034l-1.32.183v.021z" fill="#0B196D"/><path d="M212.227 317.595l4.917 10.427a9.51 9.51 0 004.206 4.451 18.043 18.043 0 0016.255.102l-25.378-14.98z" fill="#111E72"/><path d="M208.875 316.579l-32.043 2.033c.508 5.772 8.738 14.37 15.199 16.443l16.844-18.476z" fill="url(#paint19_linear)"/><path d="M210.46 317.046l-16.032 11.097c3.353 5.956 13.939 10.163 21.254 9.594l-5.222-20.691z" fill="url(#paint20_linear)"/><path d="M212.227 316.884l4.673 9.898a10.893 10.893 0 005.527 5.468 17.824 17.824 0 0015.097-.386l-25.297-14.98z" fill="url(#paint21_linear)"/><path opacity=".6" d="M220.375 318.571v2.257c.304-.378.557-.795.752-1.24.162-.313.232-.666.203-1.017h-.955z" fill="#0B196D"/><path d="M213.488 316.742l25.927 6.951c5.588 1.504 9.367-.122 9.773-3.434l-35.7-3.517z" fill="#111E72"/><path d="M213.488 316.153l25.927 6.951c5.588 1.504 9.367-.122 9.773-3.415l-35.7-3.536z" fill="url(#paint22_linear)"/><path d="M218.325 317.413a16.258 16.258 0 01-14.813 0c-4.063-2.358-4.063-6.098 0-8.557a16.39 16.39 0 0114.813 0c4.084 2.276 4.084 6.097 0 8.557z" fill="#4149C7"/><path d="M217.795 316.579a15.19 15.19 0 01-13.755 0c-3.8-2.195-3.8-5.752 0-7.947a15.189 15.189 0 0113.755 0c3.8 2.195 3.8 5.752 0 7.947z" fill="#7990FC"/><path d="M213.913 314.345a6.629 6.629 0 01-5.994 0 1.835 1.835 0 01-.911-.665 1.836 1.836 0 010-2.146c.226-.312.545-.544.911-.665a6.623 6.623 0 015.994 0 1.832 1.832 0 011.257 1.738 1.83 1.83 0 01-1.257 1.738z" fill="#4149C7"/><path d="M207.963 311.316a6.502 6.502 0 015.994 0 2.224 2.224 0 011.219 1.504 2.039 2.039 0 00-.282-1.213 2.041 2.041 0 00-.937-.82 6.626 6.626 0 00-5.994 0 2.034 2.034 0 00-1.199 2.033 2.158 2.158 0 011.199-1.504z" fill="#2D36AD"/><path d="M254.838 308.307l-2.844 6.098-4.613 6.301-4.511 4.065-10.159 4.715-13.817 3.171-10.606.366-12.354-1.647-11.115-3.353-7.599-4.492-7.193-7.012v-.732h-.264L167 308.368v7.886c.447 6.098 4.693 12.195 12.801 16.85 17.149 9.918 44.965 9.918 62.114 0 7.844-4.512 12.192-10.325 12.761-16.26v-3.679l.162-4.858z" fill="#2D36AD"/><path d="M251.811 308.166c.162 6.097-3.82 12.357-11.968 17.052-15.971 9.228-41.877 9.228-57.848 0-8.128-4.675-12.191-10.813-11.988-16.93H167c0 6.565 4.185 13.15 12.862 18.17 17.149 9.898 44.965 9.898 62.114 0 8.677-5 12.964-11.585 12.862-18.15-1.016-.203-2.011-.671-3.027-.142z" fill="#7990FC"/><path d="M210.928 332.413a59.327 59.327 0 01-29.076-6.87c-7.924-4.573-12.191-10.67-12.191-17.174s4.409-12.195 12.191-16.728c16.032-9.247 42.101-9.247 58.132 0 7.661 4.431 11.948 10.325 12.192 16.606.244 6.28-4.064 12.703-12.192 17.296a59.292 59.292 0 01-29.056 6.87zm0-47.235a58.91 58.91 0 00-28.771 6.87c-7.539 4.349-11.745 10.162-11.846 16.26-.102 6.097 4.064 12.195 11.846 16.686 15.869 9.167 41.694 9.167 57.563 0 7.782-4.491 11.989-10.446 11.826-16.788-.163-6.341-4.348-11.809-11.826-16.138a58.914 58.914 0 00-28.812-6.89h.02z" fill="#2D36AD"/><path opacity=".3" d="M283.142 299.568a64.49 64.49 0 01-31.474-7.52c-8.636-5-13.329-11.647-13.208-18.781.122-7.134 4.796-13.394 13.187-18.292 17.373-10.02 45.596-10.02 62.989 0 8.351 4.817 13.025 11.26 13.207 18.13.163 7.175-4.51 13.882-13.207 18.902a64.461 64.461 0 01-31.494 7.561zm0-50.914a63.154 63.154 0 00-30.885 7.378c-8.026 4.634-12.517 10.752-12.618 17.256-.102 6.504 4.368 12.987 12.618 17.743 17.048 9.858 44.702 9.838 61.79 0 8.29-4.776 12.78-11.138 12.618-17.845-.163-6.707-4.653-12.561-12.618-17.154a63.178 63.178 0 00-30.905-7.378z" fill="#0B196D"/><path d="M324.591 265.097v-4.919l-6.563-7.804-7.579-4.269-11.378-4.369-11.155-1.464h-13.33l-12.618 2.703-8.432 3.476-6.969 4.959-5.791 9.431v3.923a15.361 15.361 0 00-1.545 7.235h3.008c-.077-1.937.255-3.87.975-5.67l27.187-17.297 2.336-.386 18.856 2.155 17.292 5.06 13.146 8.293a14.54 14.54 0 011.89 9.004h3.027a15.71 15.71 0 00-2.357-10.061z" fill="url(#paint23_linear)"/><path d="M346.963 272.495l-69.044-39.877 1.544-.895 69.044 39.878-1.544.894z" fill="#5F74EA"/><path d="M345.806 273.144l-69.044-39.857 1.158-.67 69.044 39.877-1.158.65z" fill="#3C53C9"/><path d="M344.262 274.041l-69.044-39.858 1.544-.894 69.044 39.857-1.544.895z" fill="#5F74EA"/><path d="M343.105 274.711l-69.024-39.878 1.138-.65 69.044 39.857-1.158.671z" fill="#3C53C9"/><path d="M341.56 275.605l-69.024-39.877 1.544-.895 69.024 39.878-1.544.894z" fill="#5F74EA"/><path d="M340.423 276.276l-69.044-39.877 1.158-.671 69.024 39.878-1.138.67z" fill="#3C53C9"/><path d="M338.876 277.149l-69.044-39.857 1.544-.894 69.044 39.877-1.544.874z" fill="#5F74EA"/><path d="M337.717 277.821l-69.044-39.857 1.158-.671 69.044 39.858-1.158.67z" fill="#3C53C9"/><path d="M336.172 278.714l-69.044-39.877 1.544-.874 69.044 39.857-1.544.894z" fill="#5F74EA"/><path d="M335.035 279.384l-69.044-39.877 1.138-.671 69.044 39.878-1.138.67z" fill="#3C53C9"/><path d="M333.471 280.279l-69.024-39.877 1.544-.894 69.044 39.877-1.564.894z" fill="#5F74EA"/><path d="M332.334 280.931l-69.044-39.857 1.158-.671 69.024 39.877-1.138.651z" fill="#3C53C9"/><path d="M330.789 281.824l-69.044-39.857 1.544-.894 69.044 39.857-1.544.894z" fill="#5F74EA"/><path d="M329.632 282.495l-69.024-39.877 1.138-.651 69.044 39.857-1.158.671z" fill="#3C53C9"/><path d="M328.088 283.39l-69.044-39.878 1.565-.894 69.023 39.877-1.544.895z" fill="#5F74EA"/><path d="M326.951 284.039l-69.044-39.857 1.138-.671 69.044 39.877-1.138.651z" fill="#3C53C9"/><path d="M325.387 284.933l-69.024-39.857 1.545-.894 69.043 39.857-1.564.894z" fill="#5F74EA"/><path d="M324.248 285.604l-69.044-39.877 1.158-.651 69.024 39.857-1.138.671z" fill="#3C53C9"/><path d="M322.702 286.499l-69.044-39.878 1.545-.894 69.043 39.877-1.544.895z" fill="#5F74EA"/><path d="M321.544 287.171l-69.024-39.878 1.138-.671 69.044 39.878-1.158.671z" fill="#3C53C9"/><path d="M320.001 288.065l-69.024-39.877 1.545-.894 69.023 39.877-1.544.894z" fill="#5F74EA"/><path d="M318.861 288.715l-69.044-39.878 1.158-.65 69.024 39.877-1.138.651z" fill="#3C53C9"/><path d="M317.317 289.609l-69.044-39.878 1.545-.894 69.043 39.877-1.544.895z" fill="#5F74EA"/><path d="M316.16 290.28l-69.044-39.877 1.158-.671 69.044 39.877-1.158.671z" fill="#3C53C9"/><path d="M314.616 291.174l-69.044-39.878 1.544-.894 69.044 39.877-1.544.895z" fill="#5F74EA"/><path d="M313.458 291.823l-69.024-39.857 1.138-.671 69.044 39.878-1.158.65z" fill="#3C53C9"/><path d="M311.915 292.718l-69.024-39.857 1.545-.894 69.023 39.857-1.544.894z" fill="#5F74EA"/><path d="M310.776 293.389l-69.044-39.877 1.158-.651 69.024 39.857-1.138.671z" fill="#3C53C9"/><path d="M309.232 294.284l-69.044-39.878 1.545-.894 69.043 39.877-1.544.895z" fill="#5F74EA"/><path d="M308.073 294.935l-69.024-39.858 1.138-.67 69.044 39.877-1.158.651z" fill="#3C53C9"/><path d="M306.528 295.828l-69.024-39.857 1.544-.894 69.024 39.857-1.544.894z" fill="#5F74EA"/><path d="M305.391 296.499l-69.044-39.877 1.158-.651 69.024 39.857-1.138.671z" fill="#3C53C9"/><path d="M303.827 297.393l-69.024-39.877 1.545-.894 69.043 39.877-1.564.894z" fill="#5F74EA"/><path d="M302.687 298.064l-69.044-39.878 1.158-.67 69.024 39.877-1.138.671z" fill="#3C53C9"/><path d="M301.144 298.938L232.1 259.081l1.545-.895 69.043 39.878-1.544.874z" fill="#5F74EA"/><path d="M299.984 299.609l-69.023-39.857 1.138-.671 69.044 39.857-1.159.671z" fill="#3C53C9"/><path d="M298.442 300.503l-69.024-39.877 1.545-.874 69.023 39.857-1.544.894z" fill="#5F74EA"/><path d="M297.304 301.174l-69.044-39.878 1.158-.671 69.024 39.878-1.138.671z" fill="#3C53C9"/><path d="M295.759 302.068l-69.044-39.878 1.545-.894 69.043 39.877-1.544.895z" fill="#5F74EA"/><path d="M294.603 302.719l-69.024-39.857 1.138-.671 69.044 39.877-1.158.651z" fill="#3C53C9"/><path d="M293.058 303.612l-69.044-39.857 1.565-.894 69.024 39.857-1.545.894z" fill="#5F74EA"/><path d="M291.921 304.283l-69.044-39.878 1.138-.65 69.044 39.857-1.138.671z" fill="#3C53C9"/><path d="M290.355 305.177L221.331 265.3l1.545-.894 69.043 39.877-1.564.894z" fill="#5F74EA"/><path d="M289.217 305.828l-69.044-39.857 1.158-.671 69.024 39.877-1.138.651z" fill="#3C53C9"/><path d="M287.673 306.723l-69.044-39.857 1.545-.895 69.043 39.857-1.544.895z" fill="#5F74EA"/><path d="M286.515 307.393l-69.024-39.878 1.138-.65 69.044 39.857-1.158.671z" fill="#3C53C9"/><path d="M284.97 308.287l-69.024-39.877 1.545-.895 69.023 39.878-1.544.894z" fill="#5F74EA"/><path d="M283.832 308.958l-69.044-39.877 1.158-.671 69.024 39.878-1.138.67z" fill="#3C53C9"/><path d="M282.287 309.852l-69.044-39.877 1.545-.894 69.043 39.877-1.544.894z" fill="#5F74EA"/><path d="M281.13 310.502l-69.044-39.857 1.159-.671 69.043 39.878-1.158.65z" fill="#3C53C9"/><path opacity=".5" d="M312.076 290.178c-15.971 9.228-41.877 9.228-57.848 0-15.971-9.227-15.991-24.186 0-33.414 15.991-9.227 41.877-9.227 57.848 0 15.971 9.228 15.991 24.187 0 33.414z" fill="#09185E"/><path d="M314.209 248.654c-17.149-9.898-44.965-9.898-62.115 0-8.473 4.899-12.76 11.301-12.861 17.703h3.007c.101-5.955 4.064-11.91 11.988-16.463 15.971-9.227 41.877-9.227 57.848 0 7.843 4.512 11.826 10.427 11.968 16.362 1.016-.549 2.032 0 3.027.142-.081-6.443-4.368-12.845-12.862-17.744z" fill="#7990FC"/><path opacity=".6" d="M321.91 281.051l-28.101-2.784c.222-.471.339-.984.345-1.504v-.447l28.203-3.618a4.21 4.21 0 00.63-2.622c.243-2.033-1.24-3.354-4.064-2.805l-24.85 7.093a4.053 4.053 0 00-.529-1.808l23.123-12.521a32.57 32.57 0 00-4.673-3.252 44.121 44.121 0 00-4.511-2.215 8.863 8.863 0 00-4.998 2.52l-11.765 12.927a13.12 13.12 0 00-2.255-.915l10.545-17.357a66.322 66.322 0 00-13.735-1.809 18.285 18.285 0 00-6.441 4.512v1.24l3.21 12.784-1.199.143-4.064-18.455a63.137 63.137 0 00-13.776 2.743 23.922 23.922 0 00-4.226 4.065l-2.032-1.646c-.955.468-1.89.935-2.763 1.443a34.994 34.994 0 00-4.186 2.825 38.764 38.764 0 00-3.434 7.277l-1.605-.488a35.37 35.37 0 00-.813 8.13 22.473 22.473 0 001.382 8.394 25.097 25.097 0 003.901 4.065l2.194-.63a26.86 26.86 0 003.414 4.37 49.626 49.626 0 0012.049 4.349l2.215-2.439a21.309 21.309 0 005.283 3.842c4.507.572 9.059.708 13.593.406l-3.576-14.227c.791-.02 1.579-.102 2.357-.244l3.231 6.87a9.425 9.425 0 004.185 4.43c1.4.698 2.881 1.217 4.409 1.545a52.23 52.23 0 009.835-3.313l-18.023-10.65c.264-.122.528-.224.772-.366a7.904 7.904 0 001.605-1.219l19.486 5.223c2.081.653 4.3.731 6.421.224a21.577 21.577 0 003.231-4.086z" fill="#0B196D"/><path d="M281.841 273.227l-6.095-28.252c-7.112.793-17.332 7.399-19.181 13.272l25.276 14.98z" fill="#111E72"/><path d="M280.581 273.959l-25.927-22.358c-4.938 3.069-9.774 14.004-9.774 18.72l35.701 3.638z" fill="#111E72"/><path d="M280.298 274.732L244.537 264c-.894 4.065-2.235 14.086 3.353 19.919l32.408-9.187z" fill="#111E72"/><path d="M281.109 275.524l-32.043 2.032c.508 5.752 8.737 14.37 15.199 16.423l16.844-18.455z" fill="#111E72"/><path d="M282.695 275.89l-16.032 11.036c3.353 5.955 13.939 10.163 21.254 9.594l-5.222-20.63z" fill="#111E72"/><path d="M281.841 271.988l-6.095-28.252c-7.112.793-17.332 7.398-19.181 13.272l25.276 14.98z" fill="url(#paint24_linear)"/><path d="M280.58 272.698l-25.886-22.215c-4.938 3.049-9.774 14.004-9.774 18.699l35.66 3.516z" fill="url(#paint25_linear)"/><path d="M280.298 273.736l-35.761-10.651c-.894 4.065-2.235 14.085 3.353 19.919l32.408-9.268z" fill="url(#paint26_linear)"/><path d="M283.609 273.065l16.032-26.423c-6.563-1.748-15.869-.284-21.254 5.691l5.222 20.732z" fill="#111E72"/><path d="M299.64 246.662v-1.219l-16.032 26.381v1.24l16.032-26.402z" fill="#242993"/><path d="M278.387 251.134v1.24l5.222 20.69v-1.239l-4.409-19.146-.813-1.545z" fill="#242993"/><path d="M283.609 271.825l16.032-26.422c-6.563-1.768-15.869-.285-21.254 5.691l5.222 20.731z" fill="url(#paint27_linear)"/><path d="M285.175 273.531l32.043-17.378c-3.515-3.638-10.586-5.752-15.198-1.138l-16.845 18.516z" fill="#111E72"/><path d="M317.236 256.153v-1.219l-11.988 3.353-20.055 14.004v1.24l32.043-17.378z" fill="#242993"/><path d="M285.175 272.292l32.043-17.358c-3.515-3.658-10.586-5.751-15.198-1.158l-16.845 18.516z" fill="url(#paint28_linear)"/><path d="M286.007 274.019l35.741-4.634c1.625-2.865.203-5.345-3.353-4.634l-32.388 9.268z" fill="#242993"/><path d="M286.007 273.206l35.741-4.573c1.625-2.846.203-5.325-3.353-4.614l-32.388 9.187z" fill="url(#paint29_linear)"/><path d="M292.792 271.112a7.316 7.316 0 00-2.235-1.91 16.246 16.246 0 00-14.812 0 7.07 7.07 0 00-2.235 1.91h-.833v5.183a5.242 5.242 0 003.068 4.289 16.401 16.401 0 0014.812 0 5.237 5.237 0 003.068-4.289v-5.183h-.833z" fill="#2D36AD"/><path opacity=".6" d="M286.477 279.975v2.033l.894-.203c.365-.122.426-2.033.426-2.033l-1.32.183v.02z" fill="#0B196D"/><path d="M284.463 275.665l4.917 10.447a9.372 9.372 0 004.206 4.43 17.916 17.916 0 0016.255.102l-25.378-14.979z" fill="#111E72"/><path d="M281.111 274.73l-32.043 2.033c.508 5.752 8.738 14.37 15.199 16.422l16.844-18.455z" fill="url(#paint30_linear)"/><path d="M282.696 275.116l-16.032 11.118c3.353 5.935 13.939 10.162 21.254 9.593l-5.222-20.711z" fill="url(#paint31_linear)"/><path d="M284.463 274.954l4.775 9.939a11.015 11.015 0 005.527 5.488 17.895 17.895 0 0015.097-.406l-25.399-15.021z" fill="url(#paint32_linear)"/><path opacity=".6" d="M292.613 276.765v2.257c.307-.384.56-.808.752-1.261.162-.305.233-.652.203-.996h-.955z" fill="#0B196D"/><path d="M285.725 274.73l25.866 7.033c5.588 1.504 9.367-.122 9.773-3.415l-35.639-3.618z" fill="#111E72"/><path d="M285.725 274.223l25.866 6.971c5.588 1.484 9.367-.122 9.773-3.435l-35.639-3.536z" fill="url(#paint33_linear)"/><path d="M290.559 275.402a16.401 16.401 0 01-14.813 0c-4.063-2.378-4.063-6.199 0-8.557a16.25 16.25 0 0114.813 0c4.084 2.358 4.084 6.179 0 8.557z" fill="#4149C7"/><path d="M290.029 274.731a15.19 15.19 0 01-13.755 0c-3.8-2.195-3.8-5.752 0-7.947a15.322 15.322 0 0113.755 0c3.8 2.114 3.8 5.671 0 7.947z" fill="#7990FC"/><path d="M286.149 272.414a6.622 6.622 0 01-6.095 0 1.81 1.81 0 010-3.456 6.502 6.502 0 016.095 0 1.81 1.81 0 010 3.456z" fill="#4149C7"/><path d="M280.155 269.386a6.613 6.613 0 016.095 0 2.199 2.199 0 011.199 1.504 1.913 1.913 0 00-1.199-2.033 6.502 6.502 0 00-6.095 0 2.036 2.036 0 00-1.22 2.033 2.277 2.277 0 011.22-1.504z" fill="#2D36AD"/><path d="M327.071 266.397l-2.844 6.098-4.633 6.3-4.49 4.065-10.16 4.695-13.675 3.435-10.606.346-12.354-1.646-11.114-3.334-7.6-4.512-7.274-7.114v-.731h-.264l-2.824-7.399v7.887c.447 6.097 4.693 12.194 12.801 16.849 17.149 9.898 44.965 9.898 62.115 0 7.843-4.533 12.191-10.346 12.76-16.26v-3.679l.162-5z" fill="#2D36AD"/><path d="M324.043 266.256c.163 6.097-3.82 12.337-11.967 17.053-15.971 9.227-41.878 9.227-57.848 0-8.128-4.675-12.09-10.813-11.989-16.951h-3.007c-.101 6.565 4.186 13.17 12.862 18.17 17.149 9.919 44.966 9.919 62.115 0 8.676-5 12.943-11.585 12.862-18.13-1.016-.203-2.012-.691-3.028-.142z" fill="#7990FC"/><path d="M283.142 290.483a59.54 59.54 0 01-29.076-6.931c-7.924-4.573-12.191-10.691-12.191-17.195s4.409-12.195 12.191-16.707c16.032-9.268 42.101-9.268 58.132 0 7.661 4.411 11.948 10.305 12.192 16.585.244 6.281-4.064 12.703-12.192 17.317a59.519 59.519 0 01-29.056 6.931zm0-47.235a58.666 58.666 0 00-28.771 6.89c-7.539 4.329-11.745 10.162-11.846 16.26-.102 6.097 4.064 12.195 11.846 16.707 15.869 9.166 41.694 9.166 57.563 0 7.803-4.512 11.988-10.468 11.826-16.809-.163-6.341-4.348-11.809-11.826-16.117a58.73 58.73 0 00-28.792-6.931z" fill="#2D36AD"/><path opacity=".3" d="M355.398 257.637a64.342 64.342 0 01-31.495-7.52c-8.615-4.98-13.308-11.646-13.186-18.76.121-7.114 4.795-13.414 13.186-18.292 17.353-10.02 45.596-10.02 62.989 0 8.351 4.796 13.025 11.239 13.207 18.129.183 6.891-4.51 13.862-13.207 18.882a64.24 64.24 0 01-31.494 7.561zm0-50.914a63.165 63.165 0 00-30.885 7.378c-8.128 4.634-12.516 10.772-12.618 17.276-.102 6.504 4.369 12.968 12.618 17.744 17.027 9.837 44.702 9.837 61.79 0 8.29-4.797 12.781-11.138 12.618-17.866-.163-6.727-4.653-12.56-12.618-17.154a63.184 63.184 0 00-30.926-7.378h.021z" fill="#0B196D"/><path d="M396.927 223.167v-4.918l-6.583-7.785-7.64-4.288-11.378-4.37-11.156-1.464h-13.329l-12.618 2.703-8.412 3.496-6.949 4.96-5.791 9.41v3.943a15.283 15.283 0 00-1.483 7.195h3.007a13.731 13.731 0 01.975-5.65l27.187-17.297c.772-.162 1.565-.284 2.337-.406l18.856 2.154 17.291 5.061 13.146 8.313a14.593 14.593 0 011.89 8.984h3.028a15.736 15.736 0 00-2.378-10.041z" fill="url(#paint34_linear)"/><path d="M419.198 230.566l-69.044-39.857 1.544-.894 69.044 39.857-1.544.894z" fill="#5F74EA"/><path d="M418.041 231.236l-69.044-39.878 1.158-.65 69.044 39.857-1.158.671z" fill="#3C53C9"/><path d="M416.497 232.13l-69.044-39.877 1.544-.895 69.044 39.878-1.544.894z" fill="#5F74EA"/><path d="M415.339 232.782l-69.023-39.857 1.138-.671 69.043 39.878-1.158.65z" fill="#3C53C9"/><path d="M413.794 233.675l-69.023-39.857 1.544-.894 69.024 39.857-1.545.894z" fill="#5F74EA"/><path d="M412.658 234.347l-69.044-39.878 1.158-.65 69.024 39.857-1.138.671z" fill="#3C53C9"/><path d="M411.111 235.24l-69.044-39.877 1.544-.894 69.044 39.877-1.544.894z" fill="#5F74EA"/><path d="M409.951 235.911l-69.043-39.877 1.158-.671 69.044 39.878-1.159.67z" fill="#3C53C9"/><path d="M408.409 236.805l-69.044-39.877 1.544-.895 69.044 39.878-1.544.894z" fill="#5F74EA"/><path d="M407.271 237.455l-69.044-39.877 1.138-.651 69.044 39.878-1.138.65z" fill="#3C53C9"/><path d="M405.708 238.349l-69.024-39.877 1.544-.894 69.044 39.877-1.564.894z" fill="#5F74EA"/><path d="M404.571 239.02l-69.044-39.877 1.158-.671 69.024 39.877-1.138.671z" fill="#3C53C9"/><path d="M403.024 239.914l-69.044-39.877 1.544-.894 69.044 39.877-1.544.894z" fill="#5F74EA"/><path d="M401.866 240.565l-69.023-39.857 1.138-.671 69.043 39.877-1.158.651z" fill="#3C53C9"/><path d="M400.323 241.459l-69.044-39.878 1.565-.873 69.023 39.857-1.544.894z" fill="#5F74EA"/><path d="M399.186 242.13l-69.044-39.877 1.138-.671 69.044 39.877-1.138.671z" fill="#3C53C9"/><path d="M397.642 243.025l-69.044-39.877 1.544-.894 69.044 39.877-1.544.894z" fill="#5F74EA"/><path d="M396.483 243.676l-69.044-39.857 1.158-.671 69.044 39.878-1.158.65z" fill="#3C53C9"/><path d="M394.937 244.569l-69.044-39.857 1.544-.894 69.044 39.857-1.544.894z" fill="#5F74EA"/><path d="M393.778 245.241l-69.023-39.877 1.138-.65 69.044 39.857-1.159.67z" fill="#3C53C9"/><path d="M392.236 246.134l-69.024-39.877 1.544-.894 69.024 39.877-1.544.894z" fill="#5F74EA"/><path d="M391.098 246.784l-69.044-39.858 1.158-.67 69.024 39.877-1.138.651z" fill="#3C53C9"/><path d="M389.554 247.679l-69.044-39.857 1.544-.895 69.044 39.857-1.544.895z" fill="#5F74EA"/><path d="M388.395 248.35l-69.044-39.877 1.158-.65 69.044 39.857-1.158.67z" fill="#3C53C9"/><path d="M386.851 249.244l-69.044-39.877 1.544-.895 69.044 39.878-1.544.894z" fill="#5F74EA"/><path d="M385.713 249.916l-69.044-39.878 1.138-.671 69.044 39.878-1.138.671z" fill="#3C53C9"/><path d="M384.15 250.81l-69.024-39.878 1.545-.894 69.043 39.877-1.564.895z" fill="#5F74EA"/><path d="M383.011 251.461l-69.044-39.857 1.158-.671 69.024 39.877-1.138.651z" fill="#3C53C9"/><path d="M381.467 252.354l-69.044-39.857 1.545-.894 69.043 39.857-1.544.894z" fill="#5F74EA"/><path d="M380.308 253.025l-69.024-39.877 1.138-.651 69.044 39.857-1.158.671z" fill="#3C53C9"/><path d="M378.763 253.918l-69.044-39.877 1.565-.895 69.023 39.878-1.544.894z" fill="#5F74EA"/><path d="M377.626 254.569l-69.044-39.857 1.138-.671 69.044 39.878-1.138.65z" fill="#3C53C9"/><path d="M376.062 255.464l-69.024-39.857 1.544-.894 69.044 39.857-1.564.894z" fill="#5F74EA"/><path d="M374.925 256.134l-69.044-39.877 1.158-.65 69.024 39.857-1.138.67z" fill="#3C53C9"/><path d="M373.38 257.028l-69.044-39.877 1.545-.895 69.043 39.878-1.544.894z" fill="#5F74EA"/><path d="M372.223 257.7l-69.024-39.877 1.138-.671 69.044 39.877-1.158.671z" fill="#3C53C9"/><path d="M370.677 258.592l-69.024-39.877 1.544-.894 69.024 39.877-1.544.894z" fill="#5F74EA"/><path d="M369.539 259.244l-69.044-39.878 1.158-.65 69.024 39.877-1.138.651z" fill="#3C53C9"/><path d="M367.994 260.139l-69.044-39.878 1.544-.894 69.044 39.877-1.544.895z" fill="#5F74EA"/><path d="M366.837 260.809l-69.044-39.877 1.158-.671 69.044 39.877-1.158.671z" fill="#3C53C9"/><path d="M365.293 261.704l-69.044-39.878 1.545-.894 69.043 39.877-1.544.895z" fill="#5F74EA"/><path d="M364.136 262.354l-69.024-39.857 1.138-.671 69.044 39.877-1.158.651z" fill="#3C53C9"/><path d="M362.59 263.248l-69.024-39.857 1.545-.894 69.023 39.857-1.544.894z" fill="#5F74EA"/><path d="M361.452 263.918l-69.044-39.877 1.158-.651 69.024 39.857-1.138.671z" fill="#3C53C9"/><path d="M359.908 264.813l-69.044-39.877 1.545-.895 69.043 39.878-1.544.894z" fill="#5F74EA"/><path d="M358.75 265.463l-69.024-39.857 1.138-.671 69.044 39.877-1.158.651z" fill="#3C53C9"/><path d="M357.207 266.357L288.163 226.5l1.565-.894 69.023 39.857-1.544.894z" fill="#5F74EA"/><path d="M356.067 267.028l-69.044-39.877 1.138-.651 69.044 39.857-1.138.671z" fill="#3C53C9"/><path d="M354.502 267.923l-69.024-39.877 1.544-.895 69.044 39.878-1.564.894z" fill="#5F74EA"/><path d="M353.365 268.573l-69.044-39.857 1.158-.67 69.024 39.877-1.138.65z" fill="#3C53C9"/><path opacity=".5" d="M384.309 248.309c-15.971 9.228-41.877 9.228-57.848 0-15.971-9.227-15.991-24.187 0-33.414 15.991-9.228 41.877-9.228 57.848 0 15.971 9.227 15.971 24.146 0 33.414z" fill="#09185E"/><path d="M386.444 206.724c-17.15-9.898-44.966-9.898-62.115 0-8.473 4.898-12.761 11.301-12.862 17.723h3.007c.101-5.975 4.064-11.93 11.988-16.483 15.971-9.227 41.877-9.227 57.848 0 7.843 4.532 11.826 10.427 11.968 16.26 1.016-.529 2.032 0 3.027.142-.101-6.321-4.409-12.642-12.861-17.642z" fill="#7990FC"/><path opacity=".6" d="M394.145 239.122l-28.101-2.764c.22-.472.338-.984.345-1.504v-.448l28.203-3.658a4.189 4.189 0 00.63-2.622c.244-2.032-1.239-3.354-4.064-2.805l-24.708 7.094a3.852 3.852 0 00-.528-1.789l23.123-12.54a30.928 30.928 0 00-4.673-3.232 44.284 44.284 0 00-4.511-2.236 8.898 8.898 0 00-4.999 2.541l-11.764 12.926a11.68 11.68 0 00-2.256-.914l10.546-17.378a67.731 67.731 0 00-13.736-1.809 18.303 18.303 0 00-6.441 4.512v1.26l3.211 12.785-1.199.162-4.064-18.455a63.163 63.163 0 00-13.776 2.724 23.249 23.249 0 00-4.227 4.065l-2.031-1.667c-.955.468-1.89.935-2.764 1.464a34.782 34.782 0 00-4.185 2.804 39.297 39.297 0 00-3.434 7.277l-1.606-.488a35.716 35.716 0 00-.812 8.13 22.365 22.365 0 001.381 8.394 23.538 23.538 0 003.902 4.065l2.194-.61a27.74 27.74 0 003.414 4.37 49.562 49.562 0 0011.724 4.472l2.214-2.439a21.918 21.918 0 005.283 3.861c4.508.566 9.061.696 13.594.387l-3.576-14.126c.789-.04 1.576-.122 2.356-.244l3.231 6.849a9.434 9.434 0 004.186 4.431 17.773 17.773 0 004.409 1.545 52.794 52.794 0 009.835-3.293l-18.023-10.67c.264-.122.528-.224.772-.366a8.54 8.54 0 001.605-1.199l19.486 5.223c2.08.658 4.302.728 6.421.203a21.026 21.026 0 003.413-4.288z" fill="#0B196D"/><path d="M354.076 231.297l-6.096-28.252c-7.112.813-17.332 7.419-19.181 13.272l25.277 14.98z" fill="#111E72"/><path d="M352.814 232.048l-25.927-22.235c-4.938 3.049-9.774 14.004-9.774 18.699l35.701 3.536z" fill="#111E72"/><path d="M352.531 232.719l-35.822-10.65c-.894 4.065-2.235 14.085 3.353 19.918l32.469-9.268z" fill="#111E72"/><path d="M353.344 233.614l-32.043 2.032c.508 5.773 8.737 14.37 15.199 16.443l16.844-18.475z" fill="#111E72"/><path d="M354.93 233.96l-16.032 11.097c3.353 5.955 13.939 10.163 21.254 9.594l-5.222-20.691z" fill="#111E72"/><path d="M354.076 230.016l-6.096-28.251c-7.112.813-17.332 7.418-19.181 13.292l25.277 14.959z" fill="url(#paint35_linear)"/><path d="M352.814 230.789l-25.927-22.235c-4.938 3.048-9.774 14.004-9.774 18.719l35.701 3.516z" fill="url(#paint36_linear)"/><path d="M352.531 231.806l-35.822-10.651c-.894 4.065-2.235 14.085 3.353 19.919l32.469-9.268z" fill="url(#paint37_linear)"/><path d="M355.843 231.134l16.032-26.423c-6.563-1.768-15.869-.284-21.254 5.691l5.222 20.732z" fill="#111E72"/><path d="M371.875 204.752v-1.24l-16.031 26.382v1.24l16.031-26.382zm-21.254 4.451v1.24l5.222 20.691v-1.24l-4.409-19.146-.813-1.545z" fill="#242993"/><path d="M355.843 230.017l16.032-26.422c-6.563-1.769-15.869-.285-21.254 5.691l5.222 20.731z" fill="url(#paint38_linear)"/><path d="M357.426 231.602l32.043-17.358c-3.515-3.658-10.606-5.752-15.198-1.158l-16.845 18.516z" fill="#111E72"/><path d="M389.469 214.244v-1.24l-11.988 3.353-20.055 14.025v1.219l32.043-17.357z" fill="#242993"/><path d="M357.426 230.383l32.043-17.378c-3.515-3.659-10.606-5.752-15.198-1.159l-16.845 18.537z" fill="url(#paint39_linear)"/><path d="M358.322 232.049l35.822-4.634c1.625-2.866.183-5.345-3.353-4.634l-32.469 9.268z" fill="#242993"/><path d="M358.322 231.297l35.822-4.634c1.625-2.866.183-5.346-3.353-4.634l-32.469 9.268z" fill="url(#paint40_linear)"/><path d="M365.027 229.202a7.075 7.075 0 00-2.235-1.93 16.386 16.386 0 00-14.812 0 6.856 6.856 0 00-2.235 1.93h-.833v5.163a5.184 5.184 0 003.068 4.289 16.401 16.401 0 0014.812 0 5.186 5.186 0 003.069-4.289v-5.163h-.834z" fill="#2D36AD"/><path opacity=".6" d="M358.708 238.145v2.033l.894-.203c.366-.102.427-2.033.427-2.033l-1.321.183v.02z" fill="#0B196D"/><path d="M356.695 233.754l4.917 10.427a9.36 9.36 0 004.206 4.431 17.97 17.97 0 0016.255.122l-25.378-14.98z" fill="#111E72"/><path d="M353.343 232.738l-32.043 2.033c.508 5.752 8.737 14.37 15.199 16.443l16.844-18.476z" fill="url(#paint41_linear)"/><path d="M354.928 233.205l-16.032 11.036c3.353 5.956 13.939 10.163 21.254 9.594l-5.222-20.63z" fill="url(#paint42_linear)"/><path d="M356.695 233.043l4.673 9.898a10.893 10.893 0 005.527 5.468 17.901 17.901 0 0015.097-.387l-25.297-14.979z" fill="url(#paint43_linear)"/><path opacity=".6" d="M364.842 234.731v2.257c.305-.378.558-.795.752-1.24.162-.313.233-.666.203-1.017h-.955z" fill="#0B196D"/><path d="M357.954 232.88l25.927 6.971c5.587 1.484 9.367-.122 9.773-3.435l-35.7-3.536z" fill="#111E72"/><path d="M357.954 232.312l25.927 6.951c5.587 1.504 9.367-.122 9.773-3.415l-35.7-3.536z" fill="url(#paint44_linear)"/><path d="M362.794 233.472a16.401 16.401 0 01-14.812 0c-4.064-2.358-4.064-6.098 0-8.557a16.385 16.385 0 0114.812 0c4.084 2.358 4.084 6.199 0 8.557z" fill="#4149C7"/><path d="M362.265 232.739a15.316 15.316 0 01-13.756 0c-3.8-2.195-3.8-5.751 0-7.947a15.196 15.196 0 0113.756 0c3.799 2.196 3.799 5.752 0 7.947z" fill="#7990FC"/><path d="M358.323 230.484a6.629 6.629 0 01-5.994 0 1.81 1.81 0 010-3.455 6.613 6.613 0 015.994 0 1.803 1.803 0 011.272 1.727 1.81 1.81 0 01-1.272 1.728z" fill="#4149C7"/><path d="M352.39 227.455a6.626 6.626 0 015.994 0 2.227 2.227 0 011.199 1.524 2.038 2.038 0 00-1.199-2.032 6.629 6.629 0 00-5.994 0 2.036 2.036 0 00-1.219 2.032 2.307 2.307 0 011.219-1.524z" fill="#2D36AD"/><path d="M399.306 224.469l-2.845 6.097-4.633 6.301-4.49 4.065-10.16 4.715-13.817 3.171-10.606.366-12.354-1.647-11.074-3.292-7.579-4.411-7.193-7.032v-.732h-.264l-2.783-7.398v7.886c.447 6.097 4.693 12.195 12.801 16.849 17.149 9.919 44.965 9.919 62.115 0 7.843-4.532 12.089-10.325 12.76-16.26v-3.679l.122-4.999z" fill="#2D36AD"/><path d="M396.278 224.326c.162 6.097-3.82 12.357-11.968 17.052-15.971 9.228-41.878 9.228-57.848 0-8.128-4.674-12.192-10.813-11.989-16.93h-3.007c-.101 6.565 4.186 13.15 12.862 18.17 17.149 9.898 44.966 9.898 62.115 0 8.676-5.02 12.943-11.585 12.862-18.15-1.016-.203-2.012-.671-3.027-.142z" fill="#7990FC"/><path d="M355.375 248.573a59.296 59.296 0 01-29.056-6.951c-7.924-4.573-12.191-10.67-12.191-17.174s4.409-12.195 12.191-16.728c16.032-9.268 42.101-9.248 58.132 0 7.661 4.411 11.948 10.325 12.192 16.606.244 6.28-4.064 12.703-12.192 17.296a59.375 59.375 0 01-29.076 6.951zm0-47.235a58.642 58.642 0 00-28.771 6.87c-7.539 4.35-11.745 10.162-11.846 16.26-.102 6.097 4.063 12.195 11.846 16.687 15.869 9.166 41.694 9.166 57.563 0 7.782-4.492 11.988-10.468 11.826-16.789-.163-6.321-4.349-11.829-11.826-16.138a58.735 58.735 0 00-28.792-6.89z" fill="#2D36AD"/><path d="M200.829 368.957l-77.436-44.735-2.072 1.199 77.435 44.715 2.073-1.179z" fill="#7990FC"/><path d="M125.691 351.478h-.143a2.328 2.328 0 01-.955-1.829v-13.557c0-.691.427-1.016.955-.712h.143a2.284 2.284 0 01.955 1.83v13.536c.04.711-.427 1.037-.955.732zm4.062 2.358h-.142a2.272 2.272 0 01-.955-1.829v-13.536c0-.712.427-1.037.955-.732h.142a2.338 2.338 0 01.976 1.829v13.557c.02.691-.447 1.016-.976.711zm4.083 2.336h-.142a2.275 2.275 0 01-.955-1.829v-13.536c0-.711.427-1.037.955-.732h.142a2.275 2.275 0 01.955 1.829v13.557c.021.691-.426 1.016-.955.711zm4.065 2.358h-.142a2.328 2.328 0 01-.955-1.829v-13.557c0-.691.427-1.016.955-.711h.142a2.275 2.275 0 01.955 1.829v13.536c.021.712-.426 1.037-.955.732zm4.067 2.338h-.143a2.275 2.275 0 01-.955-1.83v-13.536c0-.711.427-1.037.955-.732h.143a2.328 2.328 0 01.955 1.83v13.495c.02.773-.427 1.078-.955.773zm4.083 2.357h-.143a2.292 2.292 0 01-.975-1.829V347.86c0-.712.447-1.037.975-.732h.143a2.272 2.272 0 01.955 1.829v13.537c0 .711-.427 1.036-.955.731zm4.063 2.358h-.142a2.328 2.328 0 01-.955-1.829v-13.557c0-.711.427-1.037.955-.711h.142a2.275 2.275 0 01.955 1.829v13.536c0 .712-.426 1.037-.955.732z" fill="#242993"/><path d="M126.382 350.969h-.142a2.316 2.316 0 01-.955-1.829v-13.638a1.554 1.554 0 010-.305c-.427-.102-.732.223-.732.813v13.557a2.328 2.328 0 00.955 1.829h.143c.447.264.812 0 .934-.427h-.203zm4.082 2.358h-.142a2.295 2.295 0 01-.975-1.829v-13.537a1.19 1.19 0 010-.304c-.407 0-.732.203-.732.813v13.495a2.352 2.352 0 00.955 1.85h.142a.594.594 0 00.83-.137.596.596 0 00.105-.29l-.183-.061zm4.067 2.337h-.143a2.272 2.272 0 01-.955-1.829v-13.536a1.414 1.414 0 010-.305c-.406-.122-.711.203-.711.813v13.536a2.277 2.277 0 00.955 1.829h.142a.577.577 0 00.28.115.572.572 0 00.635-.521l-.203-.102zm4.062 2.399h-.142a2.317 2.317 0 01-.955-1.829v-13.557a1.554 1.554 0 010-.305c-.427-.101-.732.224-.732.813v13.557a2.28 2.28 0 00.955 1.829h.142a.572.572 0 00.748.225.57.57 0 00.268-.733h-.284zm4.065 2.317h-.142a2.275 2.275 0 01-.955-1.829v-13.536a1.198 1.198 0 010-.305c-.427 0-.732.224-.732.813v13.536a2.326 2.326 0 00.955 1.85h.142a.594.594 0 00.83-.137.596.596 0 00.105-.29l-.203-.102zm4.082 2.337h-.142a2.275 2.275 0 01-.955-1.829v-13.537a1.297 1.297 0 010-.305c-.407-.122-.732.204-.732.813v13.537a2.294 2.294 0 00.975 1.829h.143a.569.569 0 00.914-.407l-.203-.101zm4.065 2.357h-.142a2.275 2.275 0 01-.955-1.829v-13.556a1.554 1.554 0 010-.305c-.427-.102-.732.223-.732.813v13.556a2.274 2.274 0 00.955 1.83h.142a.562.562 0 00.587.063.567.567 0 00.328-.49l-.183-.082z" fill="#404FCE"/><path d="M164.154 373.672h-.143a2.325 2.325 0 01-.955-1.829v-13.556c0-.692.427-1.017.955-.712h.143a2.272 2.272 0 01.955 1.829v13.537c0 .711-.427 1.036-.955.731zm4.065 2.359l-.142-.102a2.275 2.275 0 01-.955-1.829v-13.537c0-.711.426-1.036.955-.731h.142a2.325 2.325 0 01.955 1.829v13.557c0 .792-.427 1.138-.955.813zm4.062 2.357h-.143a2.272 2.272 0 01-.955-1.829v-13.537c0-.711.427-1.036.955-.731h.143a2.272 2.272 0 01.955 1.829v13.556c0 .712-.427.996-.955.712zm4.085 2.336h-.142a2.327 2.327 0 01-.976-1.829v-13.557c0-.711.447-1.016.976-.711h.142a2.275 2.275 0 01.955 1.829v13.536c0 .712-.427 1.037-.955.732zm4.063 2.338h-.143a2.275 2.275 0 01-.955-1.83v-13.617c0-.712.427-1.037.955-.732h.143a2.325 2.325 0 01.955 1.829v13.74c0 .589-.427.914-.955.61zm4.065 2.358h-.143a2.272 2.272 0 01-.955-1.829v-13.557c0-.691.427-1.016.955-.711h.143a2.272 2.272 0 01.955 1.829v13.536c0 .712-.427 1.037-.955.732zm4.086 2.359h-.163a2.328 2.328 0 01-.955-1.83v-13.658c0-.711.427-1.037.955-.732h.163a2.284 2.284 0 01.955 1.83v13.536c0 .833-.427 1.158-.955.854z" fill="#242993"/><path d="M164.845 373.164h-.142a2.316 2.316 0 01-.955-1.829v-13.557a1.554 1.554 0 010-.305c-.427 0-.731.224-.731.813v13.557a2.317 2.317 0 00.955 1.829h.142a.567.567 0 00.914-.427l-.183-.081zm4.064 2.338h-.142a2.275 2.275 0 01-.955-1.829v-13.577a1.297 1.297 0 010-.305c-.427-.102-.731.203-.731.813v13.536a2.352 2.352 0 00.955 1.85h.142a.576.576 0 00.586.064.565.565 0 00.328-.491.704.704 0 01-.183-.061zm4.082 2.358h-.142a2.236 2.236 0 01-.975-1.829v-13.536a1.197 1.197 0 010-.305c-.407-.122-.732.203-.732.813v13.536a2.277 2.277 0 00.955 1.829h.143a.586.586 0 00.934-.406l-.183-.102zm4.066 2.357h-.142a2.312 2.312 0 01-.955-1.83v-13.556a1.554 1.554 0 010-.305c-.406 0-.731.223-.731.813v13.556a2.29 2.29 0 00.975 1.83h.142a.575.575 0 00.819-.136.56.56 0 00.095-.291l-.203-.081zm4.062 2.357l-.142-.101a2.275 2.275 0 01-.955-1.829v-13.537a1.197 1.197 0 010-.305c-.427-.101-.732.204-.732.813v13.537a2.318 2.318 0 00.955 1.849h.143a.561.561 0 00.586.064.576.576 0 00.233-.199.585.585 0 00.095-.292h-.183zm4.066 2.338h-.142a2.275 2.275 0 01-.955-1.829v-13.536a1.197 1.197 0 010-.305c-.427-.122-.732.203-.732.813v13.536a2.277 2.277 0 00.955 1.829h.143a.586.586 0 00.934-.406l-.203-.102zm4.084 2.358h-.142a2.312 2.312 0 01-.955-1.83v-13.556a1.554 1.554 0 010-.305c-.407-.102-.732.223-.732.813v13.556a2.281 2.281 0 00.955 1.83h.163a.57.57 0 00.914-.427l-.203-.081z" fill="#404FCE"/><path d="M255.428 369.547h.142a2.278 2.278 0 00.956-1.83v-7.012c0-.711-.427-1.036-.956-.731h-.142a2.325 2.325 0 00-.955 1.829v7.012c0 .711.427 1.036.955.732zm-4.086 2.357h.142a2.376 2.376 0 00.976-1.849v-6.992c0-.711-.447-1.037-.976-.732h-.142a2.28 2.28 0 00-.955 1.83v7.012c0 .711.427 1.117.955.731zm-4.062 2.419h.143a2.272 2.272 0 00.955-1.829v-7.013c0-.711-.427-1.036-.955-.711h-.143a2.272 2.272 0 00-.955 1.829v7.012c0 .712.427.935.955.712zm-4.066 2.276h.143a2.325 2.325 0 00.955-1.829v-7.012c0-.712-.427-1.037-.955-.732h-.143a2.325 2.325 0 00-.955 1.829v7.012c0 .712.427 1.037.955.732zm-4.061 2.338h.142a2.275 2.275 0 00.955-1.829v-7.012c0-.691-.427-1.017-.955-.712h-.142a2.304 2.304 0 00-.975 1.829v7.013c0 .711.447 1.036.975.711zm-4.085 2.358h.142a2.272 2.272 0 00.955-1.829v-7.175c0-.711-.427-1.037-.955-.732h-.142a2.344 2.344 0 00-.955 1.85v6.992c0 .874.426 1.199.955.894zm-4.063 2.356h.142a2.325 2.325 0 00.955-1.829v-7.093c0-.712-.427-1.037-.955-.732h-.142a2.275 2.275 0 00-.955 1.829v7.012c0 .793.426 1.118.955.813z" fill="#16237D"/><path d="M254.696 369.039h.143a2.328 2.328 0 00.955-1.83v-7.113a1.297 1.297 0 000-.305c.426-.102.731.203.731.813v7.012a2.28 2.28 0 01-.955 1.829h-.142c-.447.264-.813 0-.935-.427l.203.021zm-4.066 2.357h.143a2.352 2.352 0 00.955-1.85v-7.012c.01-.101.01-.203 0-.305.406 0 .731.224.731.833v7.013a2.338 2.338 0 01-.975 1.829h-.143a.573.573 0 01-.586.064.571.571 0 01-.328-.491l.203-.081zm-4.062 2.337h.142a2.275 2.275 0 00.955-1.829v-7.012c.01-.101.01-.204 0-.305.427 0 .732.224.732.813v6.89a2.276 2.276 0 01-.955 1.829h-.142a.545.545 0 01-.589.093.548.548 0 01-.326-.499l.183.02zm-4.063 2.358h.142a2.274 2.274 0 00.955-1.83v-7.012a1.297 1.297 0 000-.305c.427-.101.731.204.731.813v7.013a2.28 2.28 0 01-.955 1.829h-.142c-.447.264-.813 0-.935-.427a.574.574 0 00.204-.081zm-4.065 2.298h.143a2.349 2.349 0 00.975-1.85v-6.992a1.605 1.605 0 000-.325c.406 0 .731.224.731.834v7.012a2.317 2.317 0 01-.955 1.829h-.142a.58.58 0 01-.288.11.581.581 0 01-.541-.247.588.588 0 01-.106-.29l.183-.081zm-4.063 2.398h.142a2.274 2.274 0 00.955-1.83v-7.012c.01-.101.01-.203 0-.305.406 0 .711.224.711.813v7.012a2.28 2.28 0 01-.955 1.83h-.142a.553.553 0 01-.825-.109.554.554 0 01-.09-.298.55.55 0 00.204-.101zm-4.063 2.356h.143a2.272 2.272 0 00.955-1.829v-6.992a1.297 1.297 0 000-.305c.426-.102.731.203.731.813v7.012a2.276 2.276 0 01-.955 1.829h-.142a.562.562 0 01-.587.064.573.573 0 01-.328-.49.62.62 0 00.183-.102z" fill="#404FCE"/><path d="M305.493 340.624h.143a2.272 2.272 0 00.955-1.829v-7.154c0-.712-.427-1.037-.955-.732h-.143a2.325 2.325 0 00-.955 1.829v7.012c-.04.854.386 1.179.955.874zm-4.065 2.357l.143-.101a2.272 2.272 0 00.954-1.829v-7.013c0-.691-.426-1.016-.954-.711h-.143a2.272 2.272 0 00-.955 1.829v7.012c-.04.793.386 1.118.955.813zm-4.062 2.339h.143a2.23 2.23 0 00.975-1.829v-7.012c0-.712-.427-1.037-.975-.732l-.143-.04a2.272 2.272 0 00-.954 1.829v7.012c-.061.752.365 1.077.954.772zm-4.065 2.358h.143a2.328 2.328 0 00.955-1.829v-7.094c0-.711-.427-1.036-.955-.731h-.143a2.325 2.325 0 00-.954 1.829v7.012c-.061.793.365 1.036.954.813zm-4.063 2.255h.143a2.272 2.272 0 00.955-1.829v-7.012c0-.691-.427-1.016-.955-.711h-.143a2.272 2.272 0 00-.955 1.829v7.012c-.06.711.366 1.098.955.711zm-4.063 2.44h.142a2.284 2.284 0 00.955-1.83v-7.012c0-.711-.427-1.036-.955-.731h-.142a2.329 2.329 0 00-.976 1.849v6.992c-.061.711.386 1.036.976.732zm-4.065 2.357h.143a2.325 2.325 0 00.955-1.829v-7.032c0-.712-.427-1.037-.955-.732h-.143a2.272 2.272 0 00-.955 1.829v7.033c-.081.711.346 1.036.955.731z" fill="#16237D"/><path d="M304.762 340.115h.142a2.316 2.316 0 00.955-1.829v-7.012a1.297 1.297 0 000-.305c.427 0 .731.203.731.813v7.012a2.276 2.276 0 01-.955 1.829h-.142a.56.56 0 01-.586.064.57.57 0 01-.328-.491l.183-.081zm-4.064 2.358l.142-.101a2.275 2.275 0 00.955-1.829v-7.012c.01-.102.01-.204 0-.305.427-.102.732.223.732.833v6.992a2.32 2.32 0 01-.955 1.849h-.142a.594.594 0 01-.593.06.581.581 0 01-.342-.487h.203zm-4.085 2.338h.142a2.275 2.275 0 00.955-1.829v-7.012c.01-.102.01-.204 0-.305.407-.102.732.224.732.813v7.012a2.24 2.24 0 01-.976 1.829h-.142a.563.563 0 01-.578.069.565.565 0 01-.336-.475l.203-.102zm-4.064 2.357h.142a2.312 2.312 0 00.955-1.829v-7.012a1.297 1.297 0 000-.305c.427 0 .731.203.731.813v7.033a2.267 2.267 0 01-.955 1.829h-.142a.567.567 0 01-.914-.427l.183-.102zm-4.063 2.358h.142a2.341 2.341 0 00.955-1.849v-6.992a1.472 1.472 0 000-.325c.427-.102.732.223.732.833v7.012a2.312 2.312 0 01-.955 1.829h-.142a.594.594 0 01-.593.061.592.592 0 01-.342-.487l.203-.082zm-4.083 2.439h.142a2.295 2.295 0 00.975-1.829v-7.012c.01-.101.01-.203 0-.305.407 0 .732.224.732.813v7.012a2.277 2.277 0 01-.955 1.83h-.142a.569.569 0 01-.935-.407l.183-.102zm-4.065 2.256h.143a2.272 2.272 0 00.954-1.829v-7.012a1.297 1.297 0 000-.305c.407 0 .712.203.712.813v7.012a2.277 2.277 0 01-.955 1.829h-.143a.561.561 0 01-.586.064.576.576 0 01-.233-.199.581.581 0 01-.095-.291.5.5 0 00.203-.082z" fill="#404FCE"/><path d="M355.477 311.702h.143a2.328 2.328 0 00.955-1.829v-7.094c0-.711-.427-1.036-.955-.732h-.143a2.328 2.328 0 00-.954 1.83v7.012c0 .792.426 1.118.954.813zm-4.062 2.358h.142a2.274 2.274 0 00.955-1.83v-7.012c0-.691-.427-1.016-.955-.711h-.142a2.275 2.275 0 00-.955 1.829v7.012c0 .691.426 1.016.955.712zm-4.066 2.338h.143a2.28 2.28 0 00.955-1.83v-7.012c0-.711-.427-1.036-.955-.731l-.143.101a2.268 2.268 0 00-.954 1.83v7.012c0 .609.426.935.954.63zm-4.082 2.356h.162a2.317 2.317 0 00.955-1.829v-7.012c0-.711-.427-1.036-.955-.732h-.162a2.32 2.32 0 00-.955 1.83v7.012c0 .711.426 1.036.955.731zm-4.065 2.338h.142a2.275 2.275 0 00.955-1.829v-7.012c0-.691-.427-1.016-.955-.711h-.142a2.275 2.275 0 00-.955 1.829v7.012c0 .711.426 1.097.955.711zm-4.063 2.418h.142a2.275 2.275 0 00.955-1.829v-7.012c0-.711-.427-1.037-.955-.732h-.142a2.32 2.32 0 00-.955 1.83v7.012c0 .731.427.975.955.731zm-4.064 2.298h.142a2.317 2.317 0 00.955-1.829v-7.012c0-.711-.426-1.036-.955-.732h-.142a2.302 2.302 0 00-.975 1.83v7.012c0 .711.447 1.036.975.731z" fill="#16237D"/><path d="M354.787 311.194h.142c.29-.21.526-.485.692-.803.166-.317.256-.668.263-1.026v-7.012a1.414 1.414 0 000-.305c.406-.102.711.203.711.813v7.012a2.316 2.316 0 01-.955 1.829h-.142a.57.57 0 01-.915-.427l.204-.081zm-4.062 2.358h.142a2.272 2.272 0 00.955-1.829v-7.114c.01-.101.01-.203 0-.305.426-.101.731.224.731.813v7.012a2.363 2.363 0 01-.955 1.85h-.142a.57.57 0 01-.819-.136.56.56 0 01-.095-.291h.183zm-4.065 2.337h.142a2.275 2.275 0 00.955-1.829v-7.012c.01-.102.01-.204 0-.305.427-.102.731.223.731.813v7.012a2.272 2.272 0 01-.954 1.829h-.143a.586.586 0 01-.822-.123.587.587 0 01-.112-.283l.203-.102zm-4.087 2.357h.142a2.327 2.327 0 00.955-1.83v-7.134a1.414 1.414 0 000-.305c.406-.101.731.204.731.813v7.012a2.28 2.28 0 01-.955 1.83h-.162a.573.573 0 01-.819-.136.57.57 0 01-.096-.291l.204.041zm-4.061 2.358h.142a2.272 2.272 0 00.955-1.829v-7.012c.01-.102.01-.204 0-.305.426-.102.731.223.731.833v6.992a2.317 2.317 0 01-.955 1.849h-.142a.562.562 0 01-.587.064.573.573 0 01-.327-.49l.183-.102zm-4.063 2.338h.142a2.28 2.28 0 00.955-1.829v-7.012c.01-.102.01-.204 0-.305.427-.102.731.223.731.813v6.87a2.267 2.267 0 01-.955 1.829h-.142a.572.572 0 01-.578.069.575.575 0 01-.336-.476l.183.041zm-4.087 2.358h.143a2.347 2.347 0 00.975-1.83v-7.012a1.19 1.19 0 000-.304c.406-.102.732.203.732.813v7.012a2.28 2.28 0 01-.956 1.829h-.142c-.447.264-.812 0-.934-.427l.182-.081z" fill="#404FCE"/><path d="M405.523 282.861h.142a2.32 2.32 0 00.955-1.83v-7.012c0-.711-.426-1.036-.955-.731h-.142a2.312 2.312 0 00-.955 1.829v7.012c0 .732.488.955.955.732zm-4.084 2.256h.142a2.307 2.307 0 00.976-1.829v-7.012c0-.691-.447-1.016-.976-.712h-.142a2.287 2.287 0 00-.955 1.83v7.012c0 .711.508 1.036.955.711zm-4.064 2.358h.142a2.275 2.275 0 00.955-1.829v-7.012c0-.711-.426-1.037-.955-.732h-.142a2.352 2.352 0 00-.955 1.85v6.992c0 .711.508 1.036.955.731zm-4.063 2.358h.142a2.311 2.311 0 00.956-1.829v-7.175c0-.711-.427-1.037-.956-.732h-.142a2.28 2.28 0 00-.955 1.829v7.013c0 .874.508 1.199.955.894zm-4.086 2.337h.163a2.287 2.287 0 00.955-1.83v-7.012c0-.691-.427-1.016-.955-.711h-.163a2.272 2.272 0 00-.955 1.829v7.012c0 .691.529 1.016.955.712zm-4.063 2.357h.143a2.272 2.272 0 00.955-1.829v-7.012c0-.711-.427-1.037-.955-.732h-.143a2.328 2.328 0 00-.955 1.83v7.012c0 .711.529 1.036.955.731zm-4.063 2.359h.143a2.328 2.328 0 00.955-1.83v-7.012c0-.711-.427-1.036-.955-.731h-.143a2.272 2.272 0 00-.955 1.829v7.012c0 .711.529 1.037.955.732z" fill="#16237D"/><path d="M404.812 282.271h.142a2.269 2.269 0 00.976-1.829v-7.012a1.297 1.297 0 000-.305c.406 0 .731.203.731.813v6.89a2.312 2.312 0 01-.955 1.829h-.142a.589.589 0 01-.935-.426l.183.04zm-4.063 2.339h.143a2.272 2.272 0 00.954-1.829v-7.013a1.404 1.404 0 000-.304c.407 0 .732.223.732.813v7.012a2.294 2.294 0 01-.975 1.829l-.143.102a.572.572 0 01-.914-.427.55.55 0 00.203-.183zm-4.066 2.316h.142a2.275 2.275 0 00.955-1.829v-7.012a1.414 1.414 0 000-.305c.427 0 .732.223.732.813v7.012a2.28 2.28 0 01-.955 1.829h-.143a.569.569 0 01-.914-.406l.183-.102zm-4.062 2.398h.143a2.325 2.325 0 00.954-1.829v-7.012a1.198 1.198 0 000-.305c.427 0 .732.203.732.813v7.012a2.312 2.312 0 01-.955 1.829h-.142c-.447.265-.813 0-.935-.427l.203-.081zm-4.086 2.358l.143-.102a2.272 2.272 0 00.955-1.829v-7.012c.01-.102.01-.204 0-.305.406 0 .731.223.731.813v7.012a2.362 2.362 0 01-.955 1.849h-.163a.561.561 0 01-.586.064.576.576 0 01-.233-.199.581.581 0 01-.095-.291h.203zm-4.061 2.337h.142a2.275 2.275 0 00.955-1.829v-7.093c.01-.102.01-.204 0-.305.427 0 .732.223.732.813v7.012a2.28 2.28 0 01-.955 1.829h-.142a.566.566 0 01-.579.069.57.57 0 01-.336-.475l.183-.021zm-4.063 2.358h.143a2.325 2.325 0 00.954-1.829v-7.012a1.197 1.197 0 000-.305c.427-.101.732.204.732.813v7.012a2.273 2.273 0 01-.955 1.83h-.142a.573.573 0 01-.819-.136.573.573 0 01-.096-.291l.183-.082z" fill="#404FCE"/><path d="M183.051 391.031l-15.26-8.801a.568.568 0 00-.609 0l-7.986 4.553 16.52 13.373 7.985-4.613a.842.842 0 00.285-.732v-2.033a2.217 2.217 0 00-.935-1.747z" fill="url(#paint45_linear)"/><path d="M175.087 400.114l-15.26-8.821a2.236 2.236 0 01-.934-1.768v-2.032c0-.692.426-.996.934-.712l15.26 8.821a2.226 2.226 0 01.935 1.789v2.032c0 .671-.407.996-.935.691z" fill="#404FCE"/><path d="M172.565 397.798l-10.159-5.914a1.452 1.452 0 01-.61-1.179v-.894c0-.468.265-.671.61-.468l10.159 5.894a1.502 1.502 0 01.63 1.199v.874c0 .468-.284.691-.63.488z" fill="#242993"/><path d="M188.941 398.712a4.048 4.048 0 00-.537-1.828 4.049 4.049 0 00-1.312-1.383 1.324 1.324 0 00-1.32-.122l-5.06 2.907 2.621 4.532 5.06-2.906a1.36 1.36 0 00.548-1.2z" fill="url(#paint46_linear)"/><path d="M183.883 401.66c0 1.179-.813 1.667-1.849 1.077a4.064 4.064 0 01-1.849-3.211c0-1.179.833-1.646 1.849-1.057a4.063 4.063 0 011.849 3.191z" fill="#404FCE"/><path d="M183.293 401.334c0 .792-.549 1.117-1.26.711a2.737 2.737 0 01-.893-.935 2.737 2.737 0 01-.367-1.24c0-.793.569-1.118 1.26-.732a2.766 2.766 0 011.26 2.196z" fill="#242993"/><path d="M163.036 383.225a4.062 4.062 0 00-1.849-3.211 1.327 1.327 0 00-1.321-.122l-5.059 2.906 2.621 4.533 5.059-2.907a1.317 1.317 0 00.549-1.199z" fill="url(#paint47_linear)"/><path d="M157.979 386.13c0 1.179-.833 1.647-1.849 1.057a4.061 4.061 0 01-1.849-3.211c0-1.179.833-1.646 1.849-1.057a4.067 4.067 0 011.849 3.211z" fill="#404FCE"/><path d="M157.389 385.785c0 .793-.569 1.118-1.26.712a2.737 2.737 0 01-1.259-2.175c0-.793.569-1.118 1.259-.732a2.8 2.8 0 011.26 2.195z" fill="#242993"/><path d="M144.262 368.612l-15.26-8.821a.63.63 0 00-.63 0l-7.965 4.594 16.499 13.394 7.986-4.614a.837.837 0 00.304-.732v-2.032a2.268 2.268 0 00-.934-1.789z" fill="url(#paint48_linear)"/><path d="M136.297 377.696l-15.26-8.821a2.209 2.209 0 01-.934-1.788v-2.033c0-.691.406-.996.934-.711l15.26 8.821a2.214 2.214 0 01.914 1.768v2.033c0 .711-.366 1.016-.914.731z" fill="#404FCE"/><path d="M133.779 375.359l-10.16-5.894a1.497 1.497 0 01-.63-1.199v-.874c0-.467.285-.671.63-.467l10.16 5.894a1.486 1.486 0 01.609 1.199v.874c0 .467-.264.671-.609.467z" fill="#242993"/><path d="M150.134 376.357a4.062 4.062 0 00-1.849-3.212 1.246 1.246 0 00-1.301-.122l-5.039 2.907 2.621 4.512 5.039-2.886a1.254 1.254 0 00.529-1.199z" fill="url(#paint49_linear)"/><path d="M145.096 379.241c0 1.179-.833 1.667-1.849 1.077a4.064 4.064 0 01-1.849-3.211c0-1.179.812-1.646 1.849-1.057a4.072 4.072 0 011.849 3.191z" fill="#404FCE"/><path d="M144.506 378.896c0 .813-.569 1.138-1.26.731a2.758 2.758 0 01-1.26-2.174c0-.813.549-1.138 1.26-.732a2.812 2.812 0 011.26 2.175z" fill="#242993"/><path d="M124.229 360.806a4.073 4.073 0 00-1.849-3.211 1.28 1.28 0 00-1.321-.122L116 360.38l2.621 4.512 5.059-2.886a1.289 1.289 0 00.549-1.2z" fill="url(#paint50_linear)"/><path d="M119.167 363.693c0 1.179-.833 1.667-1.849 1.077-.54-.35-.99-.824-1.312-1.382a4.08 4.08 0 01-.537-1.829c0-1.179.833-1.647 1.849-1.057a4.056 4.056 0 011.849 3.191z" fill="#404FCE"/><path d="M118.557 363.347c0 .813-.569 1.138-1.26.732a2.787 2.787 0 01-1.259-2.175c0-.813.569-1.138 1.259-.732.365.24.669.561.887.939.219.377.347.801.373 1.236z" fill="#242993"/><path d="M123.395 324.222l-2.073 1.2-10.972 1.016 2.073-1.179 10.972-1.037zm-11.46 13.334l-1.605-.915-.772 1.931.975.59 1.402-1.606z" fill="#7990FC"/><path d="M103.848 340.38l-.996.59-6.522 3.76a4.223 4.223 0 00-1.91 3.292c0 1.22.853 1.708 1.91 1.118l4.592-2.662c1.057-.61 1.93-.102 1.93 1.118a4.32 4.32 0 01-1.93 3.353l-4.592 2.642a4.235 4.235 0 00-1.91 3.293c0 1.22.853 1.707 1.91 1.118l6.522-3.78.996-.57 6.583-3.719v-13.252l-6.583 3.699z" fill="#7990FC"/><path d="M96.615 350.198l-1.687-.976 1.565-1.077.122 2.053zm.019 8.86l-1.686-.955 2.661-.549-.975 1.504z" fill="#7990FC"/><path d="M105.453 341.295l-1.016.569-6.522 3.781a4.063 4.063 0 00-1.91 3.293c0 1.219.853 1.707 1.91 1.097l4.592-2.642c1.056-.63 1.93-.122 1.93 1.118a4.294 4.294 0 01-1.93 3.333l-4.592 2.663a4.06 4.06 0 00-1.91 3.292c0 1.22.853 1.707 1.91 1.098l6.522-3.76 1.016-.59 6.482-3.74v-13.272l-6.482 3.76z" fill="#2D36AD"/><defs><linearGradient id="paint0_linear" x1="184.167" y1="325.544" x2="185.997" y2="345.665" gradientUnits="userSpaceOnUse"><stop stop-color="#97A6FD"/><stop offset=".08" stop-color="#3DE6F1"/><stop offset=".33" stop-color="#30A2CB"/><stop offset=".56" stop-color="#266CAC"/><stop offset=".75" stop-color="#1E4596"/><stop offset=".91" stop-color="#1A2D89"/><stop offset="1" stop-color="#182484"/></linearGradient><linearGradient id="paint1_linear" x1="11211.6" y1="5535.82" x2="11444.7" y2="5616.1" gradientUnits="userSpaceOnUse"><stop stop-color="#97A6FD"/><stop offset=".08" stop-color="#97A6FD"/><stop offset=".33" stop-color="#30A2CB"/><stop offset=".56" stop-color="#266CAC"/><stop offset=".75" stop-color="#1E4596"/><stop offset=".91" stop-color="#1A2D89"/><stop offset="1" stop-color="#182484"/></linearGradient><linearGradient id="paint2_linear" x1="13609.4" y1="4615.88" x2="13859.3" y2="4417.84" gradientUnits="userSpaceOnUse"><stop stop-color="#97A6FD"/><stop offset=".08" stop-color="#3DE6F1"/><stop offset=".33" stop-color="#30A2CB"/><stop offset=".56" stop-color="#266CAC"/><stop offset=".75" stop-color="#1E4596"/><stop offset=".91" stop-color="#1A2D89"/><stop offset="1" stop-color="#182484"/></linearGradient><linearGradient id="paint3_linear" x1="19358.3" y1="2212.04" x2="19361.4" y2="2161.79" gradientUnits="userSpaceOnUse"><stop stop-color="#42FFFF"/><stop offset=".08" stop-color="#3DE6F1"/><stop offset=".33" stop-color="#30A2CB"/><stop offset=".56" stop-color="#266CAC"/><stop offset=".75" stop-color="#1E4596"/><stop offset=".91" stop-color="#1A2D89"/><stop offset="1" stop-color="#182484"/></linearGradient><linearGradient id="paint4_linear" x1="47724.1" y1="13302.8" x2="53410.9" y2="13302.8" gradientUnits="userSpaceOnUse"><stop stop-color="#97A6FD"/><stop offset=".08" stop-color="#97A6FD"/><stop offset=".33" stop-color="#30A2CB"/><stop offset=".56" stop-color="#266CAC"/><stop offset=".75" stop-color="#1E4596"/><stop offset=".91" stop-color="#1A2D89"/><stop offset="1" stop-color="#182484"/></linearGradient><linearGradient id="paint5_linear" x1="8445.75" y1="2802.63" x2="8834.7" y2="2802.63" gradientUnits="userSpaceOnUse"><stop stop-color="#97A6FD"/><stop offset=".08" stop-color="#97A6FD"/><stop offset=".33" stop-color="#30A2CB"/><stop offset=".56" stop-color="#266CAC"/><stop offset=".75" stop-color="#1E4596"/><stop offset=".91" stop-color="#1A2D89"/><stop offset="1" stop-color="#182484"/></linearGradient><linearGradient id="paint6_linear" x1="117580" y1="29479" x2="135554" y2="47947.5" gradientUnits="userSpaceOnUse"><stop stop-color="#97A6FC"/><stop offset=".08" stop-color="#3DE6F1"/><stop offset=".33" stop-color="#30A2CB"/><stop offset=".56" stop-color="#266CAC"/><stop offset=".75" stop-color="#1E4596"/><stop offset=".91" stop-color="#1A2D89"/><stop offset="1" stop-color="#182484"/></linearGradient><linearGradient id="paint7_linear" x1="96212.6" y1="33088.4" x2="147771" y2="-22756.2" gradientUnits="userSpaceOnUse"><stop stop-color="#97A6FD"/><stop offset=".08" stop-color="#3DE6F1"/><stop offset=".33" stop-color="#30A2CB"/><stop offset=".56" stop-color="#266CAC"/><stop offset=".75" stop-color="#1E4596"/><stop offset=".91" stop-color="#1A2D89"/><stop offset="1" stop-color="#182484"/></linearGradient><linearGradient id="paint8_linear" x1="148252" y1="29931.8" x2="162226" y2="58324.7" gradientUnits="userSpaceOnUse"><stop stop-color="#2B3AA5"/><stop offset="1" stop-color="#182484"/></linearGradient><linearGradient id="paint9_linear" x1="119122" y1="32644.7" x2="174673" y2="3751.77" gradientUnits="userSpaceOnUse"><stop stop-color="#97A6FD"/><stop offset=".08" stop-color="#97A6FD"/><stop offset=".33" stop-color="#30A2CB"/><stop offset=".56" stop-color="#266CAC"/><stop offset=".75" stop-color="#1E4596"/><stop offset=".91" stop-color="#1A2D89"/><stop offset="1" stop-color="#182484"/></linearGradient><linearGradient id="paint10_linear" x1="115336" y1="27306.7" x2="131047" y2="41094.1" gradientUnits="userSpaceOnUse"><stop stop-color="#97A6FD"/><stop offset=".08" stop-color="#97A6FD"/><stop offset=".33" stop-color="#30A2CB"/><stop offset=".56" stop-color="#266CAC"/><stop offset=".75" stop-color="#1E4596"/><stop offset=".91" stop-color="#1A2D89"/><stop offset="1" stop-color="#182484"/></linearGradient><linearGradient id="paint11_linear" x1="117540" y1="31603.4" x2="123312" y2="46610.7" gradientUnits="userSpaceOnUse"><stop stop-color="#2B3AA5"/><stop offset="1" stop-color="#182484"/></linearGradient><linearGradient id="paint12_linear" x1="41623" y1="7486.82" x2="45421.2" y2="7486.82" gradientUnits="userSpaceOnUse"><stop stop-color="#2B3AA5"/><stop offset="1" stop-color="#182484"/></linearGradient><linearGradient id="paint13_linear" x1="12615.9" y1="6443.94" x2="12379" y2="6524.43" gradientUnits="userSpaceOnUse"><stop stop-color="#97A6FD"/><stop offset=".08" stop-color="#97A6FD"/><stop offset=".33" stop-color="#30A2CB"/><stop offset=".56" stop-color="#266CAC"/><stop offset=".75" stop-color="#1E4596"/><stop offset=".91" stop-color="#1A2D89"/><stop offset="1" stop-color="#182484"/></linearGradient><linearGradient id="paint14_linear" x1="17520.2" y1="5185.98" x2="17407.4" y2="5390.84" gradientUnits="userSpaceOnUse"><stop stop-color="#97A6FD"/><stop offset=".08" stop-color="#97A6FD"/><stop offset=".33" stop-color="#30A2CB"/><stop offset=".56" stop-color="#266CAC"/><stop offset=".75" stop-color="#1E4596"/><stop offset=".91" stop-color="#1A2D89"/><stop offset="1" stop-color="#182484"/></linearGradient><linearGradient id="paint15_linear" x1="191.465" y1="306.439" x2="183.8" y2="329.038" gradientUnits="userSpaceOnUse"><stop stop-color="#97A6FD"/><stop offset=".07" stop-color="#97A6FD"/><stop offset=".3" stop-color="#97A6FE"/><stop offset=".5" stop-color="#97A6FE"/><stop offset=".67" stop-color="#97A6FE"/><stop offset=".8" stop-color="#97A6FE"/><stop offset=".89" stop-color="#97A6FE"/></linearGradient><linearGradient id="paint16_linear" x1="10793.7" y1="6227.06" x2="10584" y2="6123.86" gradientUnits="userSpaceOnUse"><stop stop-color="#97A6FD"/><stop offset=".08" stop-color="#97A6FD"/><stop offset=".33" stop-color="#30A2CB"/><stop offset=".56" stop-color="#266CAC"/><stop offset=".75" stop-color="#1E4596"/><stop offset=".91" stop-color="#1A2D89"/><stop offset="1" stop-color="#182484"/></linearGradient><linearGradient id="paint17_linear" x1="16321.6" y1="4985.92" x2="16232.8" y2="4772.07" gradientUnits="userSpaceOnUse"><stop stop-color="#97A6FD"/><stop offset=".08" stop-color="#97A6FD"/><stop offset=".33" stop-color="#30A2CB"/><stop offset=".56" stop-color="#266CAC"/><stop offset=".75" stop-color="#1E4596"/><stop offset=".91" stop-color="#1A2D89"/><stop offset="1" stop-color="#182484"/></linearGradient><linearGradient id="paint18_linear" x1="18608.5" y1="2419.72" x2="18605.2" y2="2368.4" gradientUnits="userSpaceOnUse"><stop stop-color="#97A6FD"/><stop offset=".08" stop-color="#3DE6F1"/><stop offset=".33" stop-color="#30A2CB"/><stop offset=".56" stop-color="#266CAC"/><stop offset=".75" stop-color="#1E4596"/><stop offset=".91" stop-color="#1A2D89"/><stop offset="1" stop-color="#182484"/></linearGradient><linearGradient id="paint19_linear" x1="15703.6" y1="4511.95" x2="15712.6" y2="4683.42" gradientUnits="userSpaceOnUse"><stop stop-color="#97A6FD"/><stop offset=".08" stop-color="#97A6FD"/><stop offset=".33" stop-color="#30A2CB"/><stop offset=".56" stop-color="#266CAC"/><stop offset=".75" stop-color="#1E4596"/><stop offset=".91" stop-color="#1A2D89"/><stop offset="1" stop-color="#182484"/></linearGradient><linearGradient id="paint20_linear" x1="10550.7" y1="5086.3" x2="10753" y2="5155.64" gradientUnits="userSpaceOnUse"><stop stop-color="#97A6FD"/><stop offset=".08" stop-color="#3DE6F1"/><stop offset=".33" stop-color="#30A2CB"/><stop offset=".56" stop-color="#266CAC"/><stop offset=".75" stop-color="#1E4596"/><stop offset=".91" stop-color="#1A2D89"/><stop offset="1" stop-color="#182484"/></linearGradient><linearGradient id="paint21_linear" x1="12762.1" y1="4238.7" x2="12978.9" y2="4067.37" gradientUnits="userSpaceOnUse"><stop stop-color="#97A6FD"/><stop offset=".08" stop-color="#3DE6F1"/><stop offset=".33" stop-color="#30A2CB"/><stop offset=".56" stop-color="#266CAC"/><stop offset=".75" stop-color="#1E4596"/><stop offset=".91" stop-color="#1A2D89"/><stop offset="1" stop-color="#182484"/></linearGradient><linearGradient id="paint22_linear" x1="18160" y1="2044.99" x2="18162.7" y2="2001.37" gradientUnits="userSpaceOnUse"><stop stop-color="#97A6FD"/><stop offset=".08" stop-color="#3DE6F1"/><stop offset=".33" stop-color="#30A2CB"/><stop offset=".56" stop-color="#266CAC"/><stop offset=".75" stop-color="#1E4596"/><stop offset=".91" stop-color="#1A2D89"/><stop offset="1" stop-color="#182484"/></linearGradient><linearGradient id="paint23_linear" x1="44793.9" y1="6757.58" x2="48590" y2="6757.58" gradientUnits="userSpaceOnUse"><stop stop-color="#2B3AA5"/><stop offset="1" stop-color="#182484"/></linearGradient><linearGradient id="paint24_linear" x1="13586.8" y1="5819.46" x2="13349.8" y2="5899.96" gradientUnits="userSpaceOnUse"><stop stop-color="#97A6FD"/><stop offset=".08" stop-color="#3DE6F1"/><stop offset=".33" stop-color="#30A2CB"/><stop offset=".56" stop-color="#266CAC"/><stop offset=".75" stop-color="#1E4596"/><stop offset=".91" stop-color="#1A2D89"/><stop offset="1" stop-color="#182484"/></linearGradient><linearGradient id="paint25_linear" x1="18840.4" y1="4677.06" x2="18727.8" y2="4881.43" gradientUnits="userSpaceOnUse"><stop stop-color="#97A6FD"/><stop offset=".08" stop-color="#97A6FD"/><stop offset=".33" stop-color="#30A2CB"/><stop offset=".56" stop-color="#266CAC"/><stop offset=".75" stop-color="#1E4596"/><stop offset=".91" stop-color="#1A2D89"/><stop offset="1" stop-color="#182484"/></linearGradient><linearGradient id="paint26_linear" x1="19243.5" y1="4266.08" x2="19199.4" y2="4505.08" gradientUnits="userSpaceOnUse"><stop stop-color="#97A6FD"/><stop offset=".07" stop-color="#3DE6F1"/><stop offset=".3" stop-color="#30A2CB"/><stop offset=".5" stop-color="#266CAC"/><stop offset=".67" stop-color="#1E4596"/><stop offset=".8" stop-color="#1A2D89"/><stop offset=".89" stop-color="#182484"/></linearGradient><linearGradient id="paint27_linear" x1="11621.5" y1="5625.64" x2="11411.8" y2="5522.44" gradientUnits="userSpaceOnUse"><stop stop-color="#97A6FD"/><stop offset=".08" stop-color="#3DE6F1"/><stop offset=".33" stop-color="#30A2CB"/><stop offset=".56" stop-color="#266CAC"/><stop offset=".75" stop-color="#1E4596"/><stop offset=".91" stop-color="#1A2D89"/><stop offset="1" stop-color="#182484"/></linearGradient><linearGradient id="paint28_linear" x1="17533" y1="4504.19" x2="17444" y2="4290.35" gradientUnits="userSpaceOnUse"><stop stop-color="#97A6FD"/><stop offset=".08" stop-color="#3DE6F1"/><stop offset=".33" stop-color="#30A2CB"/><stop offset=".56" stop-color="#266CAC"/><stop offset=".75" stop-color="#1E4596"/><stop offset=".91" stop-color="#1A2D89"/><stop offset="1" stop-color="#182484"/></linearGradient><linearGradient id="paint29_linear" x1="19934.2" y1="2167.61" x2="19930.9" y2="2116.73" gradientUnits="userSpaceOnUse"><stop stop-color="#97A6FD"/><stop offset=".08" stop-color="#97A6FD"/><stop offset=".33" stop-color="#30A2CB"/><stop offset=".56" stop-color="#266CAC"/><stop offset=".75" stop-color="#1E4596"/><stop offset=".91" stop-color="#1A2D89"/><stop offset="1" stop-color="#182484"/></linearGradient><linearGradient id="paint30_linear" x1="16915" y1="4084.76" x2="16923.9" y2="4256.04" gradientUnits="userSpaceOnUse"><stop stop-color="#97A6FD"/><stop offset=".08" stop-color="#97A6FD"/><stop offset=".33" stop-color="#30A2CB"/><stop offset=".56" stop-color="#266CAC"/><stop offset=".75" stop-color="#1E4596"/><stop offset=".91" stop-color="#1A2D89"/><stop offset="1" stop-color="#182484"/></linearGradient><linearGradient id="paint31_linear" x1="11378.4" y1="4620.67" x2="11580.8" y2="4690.18" gradientUnits="userSpaceOnUse"><stop stop-color="#97A6FD"/><stop offset=".08" stop-color="#3DE6F1"/><stop offset=".33" stop-color="#30A2CB"/><stop offset=".56" stop-color="#266CAC"/><stop offset=".75" stop-color="#1E4596"/><stop offset=".91" stop-color="#1A2D89"/><stop offset="1" stop-color="#182484"/></linearGradient><linearGradient id="paint32_linear" x1="13787.4" y1="3858.16" x2="14005.1" y2="3686.03" gradientUnits="userSpaceOnUse"><stop stop-color="#97A6FD"/><stop offset=".08" stop-color="#97A6FD"/><stop offset=".33" stop-color="#30A2CB"/><stop offset=".56" stop-color="#266CAC"/><stop offset=".75" stop-color="#1E4596"/><stop offset=".91" stop-color="#1A2D89"/><stop offset="1" stop-color="#182484"/></linearGradient><linearGradient id="paint33_linear" x1="19468.6" y1="1850.47" x2="19471.3" y2="1806.72" gradientUnits="userSpaceOnUse"><stop stop-color="#97A6FD"/><stop offset=".08" stop-color="#3DE6F1"/><stop offset=".33" stop-color="#30A2CB"/><stop offset=".56" stop-color="#266CAC"/><stop offset=".75" stop-color="#1E4596"/><stop offset=".91" stop-color="#1A2D89"/><stop offset="1" stop-color="#182484"/></linearGradient><linearGradient id="paint34_linear" x1="47987" y1="6033.61" x2="51783" y2="6033.61" gradientUnits="userSpaceOnUse"><stop stop-color="#2B3AA5"/><stop offset="1" stop-color="#182484"/></linearGradient><linearGradient id="paint35_linear" x1="14557.6" y1="5194.66" x2="14320.6" y2="5275.16" gradientUnits="userSpaceOnUse"><stop stop-color="#97A6FD"/><stop offset=".08" stop-color="#97A6FD"/><stop offset=".33" stop-color="#30A2CB"/><stop offset=".56" stop-color="#266CAC"/><stop offset=".75" stop-color="#1E4596"/><stop offset=".91" stop-color="#1A2D89"/><stop offset="1" stop-color="#182484"/></linearGradient><linearGradient id="paint36_linear" x1="20202.9" y1="4180.46" x2="20090.4" y2="4385.22" gradientUnits="userSpaceOnUse"><stop stop-color="#97A6FD"/><stop offset=".08" stop-color="#97A6FD"/><stop offset=".33" stop-color="#30A2CB"/><stop offset=".56" stop-color="#266CAC"/><stop offset=".75" stop-color="#1E4596"/><stop offset=".91" stop-color="#1A2D89"/><stop offset="1" stop-color="#182484"/></linearGradient><linearGradient id="paint37_linear" x1="20649.9" y1="3813.43" x2="20605.9" y2="4052.27" gradientUnits="userSpaceOnUse"><stop stop-color="#97A6FD"/><stop offset=".07" stop-color="#97A6FD"/><stop offset=".3" stop-color="#97A6FD"/><stop offset=".5" stop-color="#97A6FD"/><stop offset=".67" stop-color="#97A6FD"/><stop offset=".8" stop-color="#97A6FD"/><stop offset=".89" stop-color="#97A6FD"/></linearGradient><linearGradient id="paint38_linear" x1="12449.2" y1="5024.34" x2="12239.5" y2="4921.14" gradientUnits="userSpaceOnUse"><stop stop-color="#97A6FD"/><stop offset=".08" stop-color="#3DE6F1"/><stop offset=".33" stop-color="#30A2CB"/><stop offset=".56" stop-color="#266CAC"/><stop offset=".75" stop-color="#1E4596"/><stop offset=".91" stop-color="#1A2D89"/><stop offset="1" stop-color="#182484"/></linearGradient><linearGradient id="paint39_linear" x1="18744.3" y1="4029.88" x2="18655.3" y2="3815.71" gradientUnits="userSpaceOnUse"><stop stop-color="#97A6FD"/><stop offset=".08" stop-color="#97A6FD"/><stop offset=".33" stop-color="#30A2CB"/><stop offset=".56" stop-color="#266CAC"/><stop offset=".75" stop-color="#1E4596"/><stop offset=".91" stop-color="#1A2D89"/><stop offset="1" stop-color="#182484"/></linearGradient><linearGradient id="paint40_linear" x1="21345.6" y1="1948.49" x2="21342.3" y2="1897.17" gradientUnits="userSpaceOnUse"><stop stop-color="#97A6FD"/><stop offset=".08" stop-color="#3DE6F1"/><stop offset=".33" stop-color="#30A2CB"/><stop offset=".56" stop-color="#266CAC"/><stop offset=".75" stop-color="#1E4596"/><stop offset=".91" stop-color="#1A2D89"/><stop offset="1" stop-color="#182484"/></linearGradient><linearGradient id="paint41_linear" x1="18126.2" y1="3666" x2="18135.2" y2="3837.28" gradientUnits="userSpaceOnUse"><stop stop-color="#97A6FE"/><stop offset=".08" stop-color="#97A6FD"/><stop offset=".33" stop-color="#30A2CB"/><stop offset=".56" stop-color="#266CAC"/><stop offset=".75" stop-color="#1E4596"/><stop offset=".91" stop-color="#1A2D89"/><stop offset="1" stop-color="#182484"/></linearGradient><linearGradient id="paint42_linear" x1="12206.3" y1="4135.13" x2="12408.5" y2="4204.85" gradientUnits="userSpaceOnUse"><stop stop-color="#97A6FD"/><stop offset=".08" stop-color="#3DE6F1"/><stop offset=".33" stop-color="#30A2CB"/><stop offset=".56" stop-color="#266CAC"/><stop offset=".75" stop-color="#1E4596"/><stop offset=".91" stop-color="#1A2D89"/><stop offset="1" stop-color="#182484"/></linearGradient><linearGradient id="paint43_linear" x1="14705" y1="3457.9" x2="14921.9" y2="3286.5" gradientUnits="userSpaceOnUse"><stop stop-color="#97A6FD"/><stop offset=".08" stop-color="#97A6FD"/><stop offset=".33" stop-color="#30A2CB"/><stop offset=".56" stop-color="#266CAC"/><stop offset=".75" stop-color="#1E4596"/><stop offset=".91" stop-color="#1A2D89"/><stop offset="1" stop-color="#182484"/></linearGradient><linearGradient id="paint44_linear" x1="20842.8" y1="1651.14" x2="20845.5" y2="1607.45" gradientUnits="userSpaceOnUse"><stop stop-color="#97A6FD"/><stop offset=".08" stop-color="#97A6FD"/><stop offset=".33" stop-color="#30A2CB"/><stop offset=".56" stop-color="#266CAC"/><stop offset=".75" stop-color="#1E4596"/><stop offset=".91" stop-color="#1A2D89"/><stop offset="1" stop-color="#182484"/></linearGradient><linearGradient id="paint45_linear" x1="11763.3" y1="5124.96" x2="12065.8" y2="5124.96" gradientUnits="userSpaceOnUse"><stop stop-color="#2B3AA5"/><stop offset="1" stop-color="#182484"/></linearGradient><linearGradient id="paint46_linear" x1="4121.02" y1="2415.58" x2="4154.37" y2="2415.58" gradientUnits="userSpaceOnUse"><stop stop-color="#2B3AA5"/><stop offset="1" stop-color="#182484"/></linearGradient><linearGradient id="paint47_linear" x1="3990.98" y1="2342.24" x2="4024.33" y2="2342.24" gradientUnits="userSpaceOnUse"><stop stop-color="#2B3AA5"/><stop offset="1" stop-color="#182484"/></linearGradient><linearGradient id="paint48_linear" x1="11250.4" y1="4918.17" x2="11552.8" y2="4918.17" gradientUnits="userSpaceOnUse"><stop stop-color="#2B3AA5"/><stop offset="1" stop-color="#182484"/></linearGradient><linearGradient id="paint49_linear" x1="3909.59" y1="2306.38" x2="3942.72" y2="2306.38" gradientUnits="userSpaceOnUse"><stop stop-color="#2B3AA5"/><stop offset="1" stop-color="#182484"/></linearGradient><linearGradient id="paint50_linear" x1="3795.88" y1="2232.97" x2="3829.24" y2="2232.97" gradientUnits="userSpaceOnUse"><stop stop-color="#2B3AA5"/><stop offset="1" stop-color="#182484"/></linearGradient></defs></svg>