<svg width="487" height="465" fill="none" xmlns="http://www.w3.org/2000/svg"><path opacity=".4" d="M243 449l2 1a4 4 0 004 0l68-39a1 1 0 001-2l-1-1-2-1a1 1 0 010-2l1-1a4 4 0 014 0 4 4 0 003 0l8-4a1 1 0 000-2l-3-2 102-59-19-47-83-11-218 126-1 1-15 8 4 2 14-9 98 57 13-7 5 3a4 4 0 004 0l8-5a1 1 0 000-2l-1-1a1 1 0 010-2v-1a4 4 0 014 0z" fill="#0F1C75"/><path d="M205 326l5 11 5 4a19 19 0 0017 1l-27-16z" fill="#111E72"/><path d="M201 324l-34 3c1 6 9 15 16 17l18-20z" fill="url(#paint0_linear)"/><path d="M203 325l-17 12c3 6 15 11 23 10l-6-22z" fill="url(#paint1_linear)"/><path d="M205 325l5 10c1 3 3 5 6 6a19 19 0 0016 0l-27-16z" fill="url(#paint2_linear)"/><path d="M206 325l28 7c6 2 10 0 11-4l-39-3z" fill="#111E72"/><path d="M206 324l28 7c6 2 10 0 11-3l-39-4z" fill="url(#paint3_linear)"/><path d="M207 329v1l-1-1h1zm7-3v1h-1v-1h1z" fill="#2D36AD"/><path d="M347 320l-10-6-8 5-89 51-16 10 11 6 4 2 4 3a1 1 0 001 0l12-7v-1l-4-2 3-2 4 2a1 1 0 001 0l88-50v-1l-4-2 3-2a4 4 0 004 0l9-5v-2l-2-2a4 4 0 00-4 0l-5 3a2 2 0 01-2 0z" fill="#192584"/><path d="M348 328v2l-3-1 3-1zm13-11v3l-2-2 2-1z" fill="#192584"/><path d="M347 317l-10-5-8 5-89 51-16 9 11 6 4 3 4 2a1 1 0 001 0l12-6v-1l-4-2 3-2 4 2a1 1 0 001 0l88-51-4-2 3-2a4 4 0 004 0l9-6v-2l-2-1a4 4 0 00-4 0l-5 2a2 2 0 01-2 0z" fill="#2D36AD"/><path d="M236 384l122-69-5-3-118 71 1 1zm20-3v3l-3-2 3-1z" fill="#192584"/><path d="M256 377l3 2a1 1 0 001 0l88-51-4-2-88 51z" fill="url(#paint4_linear)"/><path d="M244 388l12-7-4-2-12 7 3 2a1 1 0 001 0z" fill="url(#paint5_linear)"/><path d="M428 258L212 383l-11-14-78-45-11 1 216-125 18-4 62 8 16 36 4 18z" fill="#242993"/><path d="M199 368l224-130-15-34-59-8-223 129 73 43z" fill="#242993"/><path d="M201 369l223-129 4 18-216 125-11-14z" fill="url(#paint6_linear)"/><path d="M123 324l223-128-18 4-216 125 11-1z" fill="url(#paint7_linear)"/><path d="M199 365l224-130-15-34-59-8-223 129 73 43z" fill="url(#paint8_linear)"/><path d="M167 346l243-140-2-5h-6L159 341l8 5z" fill="url(#paint9_linear)"/><path d="M402 202l6 1 2 3-2-5h-6L159 341l1 1 242-140z" fill="#242993"/><path d="M199 365v3l-73-43v-3l73 43z" fill="#192584"/><path d="M199 365v3l-73-43v-3l73 43z" fill="#404FCE"/><path d="M199 365l224-130v3L199 368v-3z" fill="url(#paint10_linear)"/><path d="M212 383v39l-100-57v-40l11-1 78 45 11 14z" fill="#2D36AD"/><path d="M210 384v39l-100-57v-40l11-1 78 45 11 14z" fill="#2D36AD"/><path d="M212 383v14l216-125v-14L212 383z" fill="url(#paint11_linear)"/><path d="M210 423l2-1v-39l-2 1v39z" fill="#5F74EA"/><path d="M212 383l-11-14-2 1 11 14 2-1z" fill="#5F74EA"/><path opacity=".3" d="M211 341c-11 1-22-2-32-7-8-5-13-12-13-19s5-13 13-18c18-10 46-10 63 0 9 5 13 11 14 18 0 7-5 14-14 19s-20 8-31 7zm0-50c-11-1-21 2-31 7-8 5-12 11-13 17 0 7 5 13 13 18 17 10 45 10 62 0 8-5 13-11 12-18 0-7-4-12-12-17-10-5-20-8-31-7z" fill="#0B196D"/><path d="M252 307v-5l-6-8-8-4-11-4-11-2h-14l-12 3-9 3-7 5-6 10v4l-1 7h3l1-6 27-17h3l18 2 18 5 13 8 2 9h3c0-3-1-7-3-10z" fill="url(#paint12_linear)"/><path d="M275 314l-69-39 1-1 69 40h-1z" fill="#5F74EA"/><path d="M274 315l-69-40h1l69 39-1 1z" fill="#3C53C9"/><path d="M272 316l-69-40 2-1 69 40-2 1z" fill="#5F74EA"/><path d="M271 317l-69-40 1-1 69 40-1 1z" fill="#3C53C9"/><path d="M269 318l-69-40 2-1 69 40-2 1z" fill="#5F74EA"/><path d="M268 318l-69-40h1l69 40h-1z" fill="#3C53C9"/><path d="M267 319l-69-40 1-1 69 40-1 1z" fill="#5F74EA"/><path d="M265 320l-69-40 2-1 69 40-2 1z" fill="#3C53C9"/><path d="M264 321l-69-40 1-1 69 40-1 1z" fill="#5F74EA"/><path d="M263 321l-69-40h1l69 40h-1z" fill="#3C53C9"/><path d="M261 322l-69-40 2-1 69 40-2 1z" fill="#5F74EA"/><path d="M260 323l-69-40 1-1 69 40-1 1z" fill="#3C53C9"/><path d="M259 324l-69-40 1-1 69 40-1 1z" fill="#5F74EA"/><path d="M257 324l-69-39 2-1 69 40h-2z" fill="#3C53C9"/><path d="M256 325l-69-40h1l69 39-1 1z" fill="#5F74EA"/><path d="M255 326l-69-40 1-1 69 40-1 1z" fill="#3C53C9"/><path d="M253 327l-69-40 2-1 69 40-2 1z" fill="#5F74EA"/><path d="M252 328l-69-40 1-1 69 40-1 1z" fill="#3C53C9"/><path d="M250 328l-69-39 2-1 69 40h-2z" fill="#5F74EA"/><path d="M249 329l-69-40h1l69 39-1 1z" fill="#3C53C9"/><path d="M248 330l-69-40 1-1 69 40-1 1z" fill="#5F74EA"/><path d="M247 331l-69-40 1-1 69 40-1 1z" fill="#3C53C9"/><path d="M245 332l-69-40 2-1 69 40-2 1z" fill="#5F74EA"/><path d="M244 332l-69-40h1l69 40h-1z" fill="#3C53C9"/><path d="M242 333l-69-40 2-1 69 40-2 1z" fill="#5F74EA"/><path d="M241 334l-69-40 1-1 69 40-1 1z" fill="#3C53C9"/><path d="M240 335l-69-40 1-1 69 40-1 1z" fill="#5F74EA"/><path d="M239 335l-70-40h2l69 40h-1z" fill="#3C53C9"/><path d="M237 336l-69-40 1-1 70 40-2 1z" fill="#5F74EA"/><path d="M236 337l-69-40 1-1 69 40-1 1z" fill="#3C53C9"/><path d="M234 338l-69-40 2-1 69 40-2 1z" fill="#5F74EA"/><path d="M233 338l-69-39 1-1 69 40h-1z" fill="#3C53C9"/><path d="M232 339l-69-40h1l69 39-1 1z" fill="#5F74EA"/><path d="M230 340l-69-40 2-1 69 40-2 1z" fill="#3C53C9"/><path d="M229 341l-69-40 1-1 69 40-1 1z" fill="#5F74EA"/><path d="M228 342l-69-40 1-1 69 40-1 1z" fill="#3C53C9"/><path d="M226 342l-69-39 2-1 69 40h-2z" fill="#5F74EA"/><path d="M225 343l-69-40h1l69 39-1 1z" fill="#3C53C9"/><path d="M224 344l-70-40 2-1 69 40-1 1z" fill="#5F74EA"/><path d="M222 345l-69-40 1-1 70 40-2 1z" fill="#3C53C9"/><path d="M221 346l-69-40 1-1 69 40-1 1z" fill="#5F74EA"/><path d="M220 346l-69-40h1l69 40h-1z" fill="#3C53C9"/><path d="M218 347l-69-40 2-1 69 40-2 1z" fill="#5F74EA"/><path d="M217 348l-69-40 1-1 69 40-1 1z" fill="#3C53C9"/><path d="M215 349l-69-40 2-1 69 40-2 1z" fill="#5F74EA"/><path d="M214 349l-69-40h1l69 40h-1z" fill="#3C53C9"/><path d="M213 350l-69-40 1-1 69 40-1 1z" fill="#5F74EA"/><path d="M212 351l-69-40 1-1 69 40-1 1z" fill="#3C53C9"/><path d="M210 352l-69-40 2-1 69 40-2 1z" fill="#5F74EA"/><path d="M209 352l-69-39 1-1 69 40h-1z" fill="#3C53C9"/><path opacity=".5" d="M240 332c-16 9-42 9-58 0s-16-24 0-33c16-10 42-10 58 0 16 9 16 24 0 33z" fill="#09185E"/><path d="M242 291a69 69 0 00-62 0c-9 4-13 11-13 17h3c0-6 4-12 12-16 16-9 42-9 58 0 8 4 12 10 12 16h3c0-6-5-13-13-17z" fill="#7990FC"/><path opacity=".6" d="M250 323l-28-3v-2l28-3 1-3c0-2-1-3-4-3l-25 7-1-2 24-12a33 33 0 00-10-6l-5 3-11 13-3-1 11-17-14-2c-2 1-5 2-6 4v2l3 12-1 1-4-19c-5 0-10 1-14 3l-4 4-2-2a32 32 0 00-7 4l-4 8-1-1-1 8 1 9 4 4 2-1 4 5 12 4 2-2 5 4h14l-4-14 2-1 4 7 4 5 4 1c4 0 7-2 10-3l-18-11h1l1-1 20 5h6l4-4z" fill="#0B196D"/><path d="M210 315l-6-28c-8 1-18 7-20 13l26 15z" fill="#111E72"/><path d="M208 316l-26-22c-5 3-9 14-9 18l35 4z" fill="#111E72"/><path d="M208 317l-36-11c-1 4-2 14 4 20l32-9z" fill="#111E72"/><path d="M209 317l-32 2c0 6 9 15 15 17l17-19z" fill="#111E72"/><path d="M210 318l-16 11c4 6 14 10 22 10l-6-21z" fill="#111E72"/><path d="M210 314l-6-28c-8 0-18 7-20 13l26 15z" fill="url(#paint13_linear)"/><path d="M208 315l-26-23c-5 3-9 14-9 19l35 4z" fill="url(#paint14_linear)"/><path d="M208 316l-36-11c-1 4-2 14 4 20l32-9z" fill="url(#paint15_linear)"/><path d="M211 315l16-26c-6-2-15-1-21 5l5 21z" fill="#111E72"/><path d="M227 289v-2l-16 27v1l16-26zm-21 4v1l5 21v-1l-4-19-1-2z" fill="#242993"/><path d="M211 314l16-27c-6-1-15 0-21 6l5 21z" fill="url(#paint16_linear)"/><path d="M213 315l32-17c-3-4-11-6-15-1l-17 18z" fill="#111E72"/><path d="M245 298v-1l-12 3-20 14v1l32-17z" fill="#242993"/><path d="M213 314l32-17c-3-4-11-6-15-1l-17 18z" fill="url(#paint17_linear)"/><path d="M214 316l36-5c1-3 0-5-4-4l-32 9z" fill="#242993"/><path d="M214 315l36-4c1-3 0-6-4-5l-32 9z" fill="url(#paint18_linear)"/><path d="M221 313l-3-2a16 16 0 00-14 0l-3 2h-1v5a5 5 0 004 4 16 16 0 0014 0 5 5 0 003-4v-5z" fill="#2D36AD"/><path opacity=".6" d="M214 322v2h1l1-2h-2z" fill="#0B196D"/><path d="M212 318l5 10 4 4a18 18 0 0017 1l-26-15z" fill="#111E72"/><path d="M209 317l-32 2c0 5 9 14 15 16l17-18z" fill="url(#paint19_linear)"/><path d="M210 317l-16 11c4 6 14 10 22 10l-6-21z" fill="url(#paint20_linear)"/><path d="M212 317l5 10 5 5a18 18 0 0016 0l-26-15z" fill="url(#paint21_linear)"/><path opacity=".6" d="M220 319v2l1-1v-1h-1z" fill="#0B196D"/><path d="M213 317l26 7c6 1 10 0 10-4l-36-3z" fill="#111E72"/><path d="M213 316l26 7c6 2 10 0 10-3l-36-4z" fill="url(#paint22_linear)"/><path d="M218 317a16 16 0 01-14 0c-5-2-5-6 0-8a16 16 0 0114 0c4 2 4 6 0 8z" fill="#4149C7"/><path d="M218 317a15 15 0 01-14 0c-4-3-4-6 0-8a15 15 0 0114 0c4 2 4 5 0 8z" fill="#7990FC"/><path d="M214 314a7 7 0 01-6 0 2 2 0 01-1-2l1-1a7 7 0 016 0 2 2 0 010 3z" fill="#4149C7"/><path d="M208 311a7 7 0 016 0 2 2 0 011 2 2 2 0 00-1-2 7 7 0 00-6 0 2 2 0 00-1 2 2 2 0 011-2z" fill="#2D36AD"/><path d="M255 308l-3 6-5 7-4 4-10 4-14 4h-11l-12-2-11-3-8-4-7-7v-1l-3-8v8c0 6 5 12 13 17 17 10 45 10 62 0 8-4 12-10 13-16v-9z" fill="#2D36AD"/><path d="M252 308c0 6-4 13-12 17-16 9-42 9-58 0-8-4-12-11-12-17h-3c0 7 4 13 13 18 17 10 45 10 62 0 9-5 13-11 13-18h-3z" fill="#7990FC"/><path d="M211 332c-10 1-20-2-29-6-8-5-12-11-12-18 0-6 4-12 12-16 16-10 42-10 58 0 8 4 12 10 12 16 0 7-4 13-12 18-9 4-19 7-29 6zm0-47c-10 0-20 2-29 7-7 4-12 10-12 16s4 13 12 17c16 9 42 9 58 0 8-4 12-10 12-17-1-6-5-12-12-16-9-5-19-7-29-7z" fill="#2D36AD"/><path opacity=".3" d="M283 300c-11 0-22-3-31-8s-14-12-14-19c1-7 5-13 14-18 17-10 45-10 63 0 8 5 13 11 13 18s-5 14-13 19c-10 5-21 8-32 8zm0-51c-11-1-21 2-31 7-8 5-12 11-12 17 0 7 4 13 12 18 17 10 45 10 62 0 8-5 13-11 13-18s-5-12-13-17c-9-5-20-8-31-7z" fill="#0B196D"/><path d="M325 265v-5l-7-8-8-4-11-4-11-2h-13l-13 3-8 3-7 5-6 10v4l-2 7h3l1-6 27-17h3l19 2 17 5 13 8c2 3 2 6 2 9h3l-2-10z" fill="url(#paint23_linear)"/><path d="M347 272l-69-39 1-1 70 40h-2z" fill="#5F74EA"/><path d="M346 273l-69-40h1l69 39-1 1z" fill="#3C53C9"/><path d="M344 274l-69-40 2-1 69 40-2 1z" fill="#5F74EA"/><path d="M343 275l-69-40 1-1 69 40-1 1z" fill="#3C53C9"/><path d="M342 276l-69-40 1-1 69 40-1 1z" fill="#5F74EA"/><path d="M340 276l-69-40h2l69 40h-2z" fill="#3C53C9"/><path d="M339 277l-69-40 1-1 69 40-1 1z" fill="#5F74EA"/><path d="M338 278l-69-40 1-1 69 40-1 1z" fill="#3C53C9"/><path d="M336 279l-69-40 2-1 69 40-2 1z" fill="#5F74EA"/><path d="M335 279l-69-39 1-1 69 40h-1z" fill="#3C53C9"/><path d="M333 280l-69-40h2l69 39-2 1z" fill="#5F74EA"/><path d="M332 281l-69-40 1-1 69 40-1 1z" fill="#3C53C9"/><path d="M331 282l-69-40 1-1 69 40-1 1z" fill="#5F74EA"/><path d="M330 282l-69-39 1-1 69 40h-1z" fill="#3C53C9"/><path d="M328 283l-69-39 2-1 69 39-2 1z" fill="#5F74EA"/><path d="M327 284l-69-40h1l69 39-1 1z" fill="#3C53C9"/><path d="M325 285l-69-40 2-1 69 40-2 1z" fill="#5F74EA"/><path d="M324 286l-69-40 1-1 69 40-1 1z" fill="#3C53C9"/><path d="M323 286l-69-39 1-1 69 40h-1z" fill="#5F74EA"/><path d="M322 287l-69-40h1l69 40h-1z" fill="#3C53C9"/><path d="M320 288l-69-40 2-1 69 40-2 1z" fill="#5F74EA"/><path d="M319 289l-69-40 1-1 69 40-1 1z" fill="#3C53C9"/><path d="M317 290l-69-40 2-1 69 40-2 1z" fill="#5F74EA"/><path d="M316 290l-69-40h1l69 40h-1z" fill="#3C53C9"/><path d="M315 291l-69-40 1-1 69 40-1 1z" fill="#5F74EA"/><path d="M313 292l-69-40 2-1 69 40-2 1z" fill="#3C53C9"/><path d="M312 293l-69-40 1-1 69 40-1 1z" fill="#5F74EA"/><path d="M311 293l-69-39 1-1 69 40h-1z" fill="#3C53C9"/><path d="M309 294l-69-40h2l69 39-2 1z" fill="#5F74EA"/><path d="M308 295l-69-40 1-1 69 40-1 1z" fill="#3C53C9"/><path d="M307 296l-69-40 1-1 69 40-1 1z" fill="#5F74EA"/><path d="M305 296l-69-39 2-1 69 40h-2z" fill="#3C53C9"/><path d="M304 297l-69-39 1-1 69 39-1 1z" fill="#5F74EA"/><path d="M303 298l-69-40h1l69 39-1 1z" fill="#3C53C9"/><path d="M301 299l-69-40 2-1 69 40-2 1z" fill="#5F74EA"/><path d="M300 300l-69-40 1-1 69 40-1 1z" fill="#3C53C9"/><path d="M298 301l-69-40 2-1 69 40-2 1z" fill="#5F74EA"/><path d="M297 301l-69-40h1l69 40h-1z" fill="#3C53C9"/><path d="M296 302l-69-40 1-1 69 40-1 1z" fill="#5F74EA"/><path d="M295 303l-69-40 1-1 69 40-1 1z" fill="#3C53C9"/><path d="M293 304l-69-40 2-1 69 40-2 1z" fill="#5F74EA"/><path d="M292 304l-69-40h1l69 40h-1z" fill="#3C53C9"/><path d="M290 305l-69-40 2-1 69 40-2 1z" fill="#5F74EA"/><path d="M289 306l-69-40 1-1 69 40-1 1z" fill="#3C53C9"/><path d="M288 307l-69-40 1-1 69 40-1 1z" fill="#5F74EA"/><path d="M287 307l-70-39 2-1 69 40h-1z" fill="#3C53C9"/><path d="M285 308l-69-40h1l70 39-2 1z" fill="#5F74EA"/><path d="M284 309l-69-40 1-1 69 40-1 1z" fill="#3C53C9"/><path d="M282 310l-69-40 2-1 69 40-2 1z" fill="#5F74EA"/><path d="M281 311l-69-40 1-1 69 40-1 1z" fill="#3C53C9"/><path opacity=".5" d="M312 290c-16 9-42 9-58 0s-16-24 0-33 42-9 58 0 16 24 0 33z" fill="#09185E"/><path d="M314 249a69 69 0 00-62 0c-8 5-13 11-13 17h3c0-6 4-12 12-16 16-9 42-9 58 0 8 4 12 10 12 16h3c0-6-4-12-13-17z" fill="#7990FC"/><path opacity=".6" d="M322 281l-28-3v-2l28-3 1-3c0-2-1-3-4-3l-25 7v-1l23-13a33 33 0 00-10-5l-5 2-11 13-3-1 11-17-14-2-6 4v2l3 12-1 1-4-19c-5 1-10 1-14 3l-4 4-2-2a44 44 0 00-7 5l-4 7-1-1-1 9 1 8 4 4 2-1 4 5 12 4 2-2 5 3 14 1-4-14 3-1 3 7 4 5 5 1 9-3-18-11h1l2-1 19 5h7l3-4z" fill="#0B196D"/><path d="M282 273l-6-28c-7 1-18 7-19 13l25 15z" fill="#111E72"/><path d="M281 274l-26-22c-5 3-10 14-10 18l36 4z" fill="#111E72"/><path d="M280 275l-35-11c-1 4-3 14 3 20l32-9z" fill="#111E72"/><path d="M281 276l-32 2c1 5 9 14 15 16l17-18z" fill="#111E72"/><path d="M283 276l-16 11c3 6 14 10 21 10l-5-21z" fill="#111E72"/><path d="M282 272l-6-28c-7 1-18 7-19 13l25 15z" fill="url(#paint24_linear)"/><path d="M281 273l-26-23c-5 4-10 14-10 19l36 4z" fill="url(#paint25_linear)"/><path d="M280 274l-35-11c-1 4-3 14 3 20l32-9z" fill="url(#paint26_linear)"/><path d="M284 273l16-26c-7-2-16-1-22 5l6 21z" fill="#111E72"/><path d="M300 247v-2l-16 27v1l16-26zm-22 4v1l6 21v-1l-5-19-1-2z" fill="#242993"/><path d="M284 272l16-27c-7-1-16 0-22 6l6 21z" fill="url(#paint27_linear)"/><path d="M285 274l32-18c-3-3-10-6-15-1l-17 19z" fill="#111E72"/><path d="M317 256v-1l-12 3-20 14v2l32-18z" fill="#242993"/><path d="M285 272l32-17c-3-4-10-6-15-1l-17 18z" fill="url(#paint28_linear)"/><path d="M286 274l36-5c1-2 0-5-4-4l-32 9z" fill="#242993"/><path d="M286 273l36-4c1-3 0-6-4-5l-32 9z" fill="url(#paint29_linear)"/><path d="M293 271l-2-2a16 16 0 00-15 0l-2 2h-1v5a5 5 0 003 5 16 16 0 0015 0 5 5 0 003-5v-5h-1z" fill="#2D36AD"/><path opacity=".6" d="M286 280v2h1l1-2h-2z" fill="#0B196D"/><path d="M284 276l5 10 5 5a18 18 0 0016 0l-26-15z" fill="#111E72"/><path d="M281 275l-32 2c1 6 9 14 15 16l17-18z" fill="url(#paint30_linear)"/><path d="M283 275l-16 11c3 6 14 10 21 10l-5-21z" fill="url(#paint31_linear)"/><path d="M284 275l5 10c1 2 3 4 6 5a18 18 0 0015 0l-26-15z" fill="url(#paint32_linear)"/><path opacity=".6" d="M293 277v1l1-1h-1z" fill="#0B196D"/><path d="M286 275l26 7c5 1 9 0 9-4l-35-3z" fill="#111E72"/><path d="M286 274l26 7c5 2 9 0 9-3l-35-4z" fill="url(#paint33_linear)"/><path d="M291 275a16 16 0 01-15 0c-4-2-4-6 0-8a16 16 0 0115 0c4 2 4 6 0 8z" fill="#4149C7"/><path d="M290 275a15 15 0 01-14 0c-4-2-4-6 0-8a15 15 0 0114 0c4 2 4 5 0 8z" fill="#7990FC"/><path d="M286 272a7 7 0 01-6 0 2 2 0 010-3 7 7 0 016 0 2 2 0 010 3z" fill="#4149C7"/><path d="M280 269a7 7 0 016 0 2 2 0 011 2 2 2 0 00-1-2 7 7 0 00-6 0 2 2 0 00-1 2 2 2 0 011-2z" fill="#2D36AD"/><path d="M327 266l-3 6-4 7-5 4-10 5-14 3h-10l-13-1-11-4-7-4-8-7v-1l-3-7v7c1 7 5 13 13 17 17 10 45 10 62 0 8-4 12-10 13-16v-9z" fill="#2D36AD"/><path d="M324 266c0 6-4 13-12 17-16 10-42 10-58 0-8-4-12-11-12-17h-3c0 7 4 14 13 19 17 9 45 9 62 0 9-5 13-12 13-19h-3z" fill="#7990FC"/><path d="M283 290c-10 1-20-2-29-6-8-5-12-11-12-18 0-6 4-12 12-16 16-10 42-10 58 0 8 4 12 10 12 16 1 7-4 13-12 18-9 4-19 7-29 6zm0-47c-10 0-20 2-29 7-7 4-11 10-11 16-1 6 4 13 11 17 16 9 42 9 58 0 8-4 12-10 12-17 0-6-5-12-12-16-9-5-19-7-29-7z" fill="#2D36AD"/><path opacity=".3" d="M355 258c-11 0-21-3-31-8-9-5-13-12-13-19s5-13 13-18c17-10 45-10 63 0 8 5 13 11 13 18s-4 14-13 19c-10 5-21 8-32 8zm0-51c-10 0-21 2-30 7s-13 11-13 17c0 7 4 13 13 18 17 10 44 10 61 0 9-5 13-11 13-18 0-6-5-12-13-17-9-5-20-7-31-7z" fill="#0B196D"/><path d="M397 223v-5l-7-8-7-4-12-4-11-2h-13l-13 3-8 4-7 5-6 9v4c-1 2-2 5-1 7h3l1-6 27-17h2l19 2 17 5 13 8c2 3 3 6 2 9h3c1-3 0-7-2-10z" fill="url(#paint34_linear)"/><path d="M419 231l-69-40 2-1 69 40-2 1z" fill="#5F74EA"/><path d="M418 231l-69-40h1l69 40h-1z" fill="#3C53C9"/><path d="M416 232l-69-40 2-1 69 40-2 1z" fill="#5F74EA"/><path d="M415 233l-69-40 1-1 69 40-1 1z" fill="#3C53C9"/><path d="M414 234l-69-40 1-1 69 40-1 1z" fill="#5F74EA"/><path d="M413 234l-69-40h1l69 40h-1z" fill="#3C53C9"/><path d="M411 235l-69-40 2-1 69 40-2 1z" fill="#5F74EA"/><path d="M410 236l-69-40 1-1 69 40-1 1z" fill="#3C53C9"/><path d="M408 237l-69-40 2-1 69 40-2 1z" fill="#5F74EA"/><path d="M407 237l-69-39 1-1 69 40h-1z" fill="#3C53C9"/><path d="M406 238l-69-40h1l69 39-1 1z" fill="#5F74EA"/><path d="M405 239l-69-40 1-1 69 40-1 1z" fill="#3C53C9"/><path d="M403 240l-69-40 2-1 69 40-2 1z" fill="#5F74EA"/><path d="M402 241l-69-40 1-1 69 40-1 1z" fill="#3C53C9"/><path d="M400 241l-69-39 2-1 69 40h-2z" fill="#5F74EA"/><path d="M399 242l-69-40h1l69 39-1 1z" fill="#3C53C9"/><path d="M398 243l-69-40 1-1 69 40-1 1z" fill="#5F74EA"/><path d="M396 244l-69-40 2-1 69 40-2 1z" fill="#3C53C9"/><path d="M395 245l-69-40 1-1 69 40-1 1z" fill="#5F74EA"/><path d="M394 245l-69-40h1l69 40h-1z" fill="#3C53C9"/><path d="M392 246l-69-40 2-1 69 40-2 1z" fill="#5F74EA"/><path d="M391 247l-69-40 1-1 69 40-1 1z" fill="#3C53C9"/><path d="M390 248l-69-40 1-1 69 40-1 1z" fill="#5F74EA"/><path d="M388 248l-69-40h2l69 40h-2z" fill="#3C53C9"/><path d="M387 249l-69-40 1-1 69 40-1 1z" fill="#5F74EA"/><path d="M386 250l-69-40 1-1 69 40-1 1z" fill="#3C53C9"/><path d="M384 251l-69-40 2-1 69 40-2 1z" fill="#5F74EA"/><path d="M383 251l-69-39 1-1 69 40h-1z" fill="#3C53C9"/><path d="M381 252l-69-40h2l69 39-2 1z" fill="#5F74EA"/><path d="M380 253l-69-40 1-1 69 40-1 1z" fill="#3C53C9"/><path d="M379 254l-69-40 1-1 69 40-1 1z" fill="#5F74EA"/><path d="M378 255l-69-40 1-1 69 40-1 1z" fill="#3C53C9"/><path d="M376 255l-69-39 2-1 69 40h-2z" fill="#5F74EA"/><path d="M375 256l-69-40h1l69 39-1 1z" fill="#3C53C9"/><path d="M373 257l-69-40 2-1 69 40-2 1z" fill="#5F74EA"/><path d="M372 258l-69-40 1-1 69 40-1 1z" fill="#3C53C9"/><path d="M371 259l-69-40 1-1 69 40-1 1z" fill="#5F74EA"/><path d="M370 259l-70-40h2l69 40h-1z" fill="#3C53C9"/><path d="M368 260l-69-40 1-1 70 40-2 1z" fill="#5F74EA"/><path d="M367 261l-69-40 1-1 69 40-1 1z" fill="#3C53C9"/><path d="M365 262l-69-40 2-1 69 40-2 1z" fill="#5F74EA"/><path d="M364 262l-69-40h1l69 40h-1z" fill="#3C53C9"/><path d="M363 263l-69-40 1-1 69 40-1 1z" fill="#5F74EA"/><path d="M361 264l-69-40 2-1 69 40-2 1z" fill="#3C53C9"/><path d="M360 265l-69-40 1-1 69 40-1 1z" fill="#5F74EA"/><path d="M359 265l-69-39 1-1 69 40h-1z" fill="#3C53C9"/><path d="M357 266l-69-39 2-1 69 39-2 1z" fill="#5F74EA"/><path d="M356 267l-69-40h1l69 39-1 1z" fill="#3C53C9"/><path d="M355 268l-70-40 2-1 69 40-1 1z" fill="#5F74EA"/><path d="M353 269l-69-40 1-1 70 40-2 1z" fill="#3C53C9"/><path opacity=".5" d="M384 248c-16 10-42 10-58 0-16-9-16-24 0-33s42-9 58 0 16 24 0 33z" fill="#09185E"/><path d="M386 207a69 69 0 00-62 0c-8 5-12 11-13 17h3c1-6 5-11 12-16 16-9 42-9 58 0 8 4 12 10 12 16h3c0-6-4-12-13-17z" fill="#7990FC"/><path opacity=".6" d="M394 239l-28-3v-2l29-3v-3c0-2-1-3-4-3l-25 7v-1l23-13a31 31 0 00-9-5l-5 2-12 13-2-1 10-17-13-2-7 4v2l3 13h-1l-4-19-14 3-4 4-2-2a36 36 0 00-7 5l-3 7-2-1-1 9 2 8 4 4 2-1 3 5 12 4 2-2 5 4h14l-4-14h3l3 7 4 4 5 2 9-4-18-10 1-1 2-1 19 5h7l3-4z" fill="#0B196D"/><path d="M354 231l-6-28c-7 1-17 7-19 13l25 15z" fill="#111E72"/><path d="M353 232l-26-22c-5 3-10 14-10 19l36 3z" fill="#111E72"/><path d="M353 233l-36-11c-1 4-3 14 3 20l33-9z" fill="#111E72"/><path d="M353 234l-32 2c1 5 9 14 16 16l16-18z" fill="#111E72"/><path d="M355 234l-16 11c3 6 14 10 21 10l-5-21z" fill="#111E72"/><path d="M354 230l-6-28c-7 1-17 7-19 13l25 15z" fill="url(#paint35_linear)"/><path d="M353 231l-26-22c-5 3-10 14-10 18l36 4z" fill="url(#paint36_linear)"/><path d="M353 232l-36-11c-1 4-3 14 3 20l33-9z" fill="url(#paint37_linear)"/><path d="M356 231l16-26c-7-2-16-1-21 5l5 21z" fill="#111E72"/><path d="M372 205v-1l-16 26v1l16-26zm-21 4v1l5 21v-1l-5-19v-2z" fill="#242993"/><path d="M356 230l16-26c-7-2-16-1-21 5l5 21z" fill="url(#paint38_linear)"/><path d="M357 232l32-18c-3-3-10-6-15-1l-17 19z" fill="#111E72"/><path d="M389 214v-1l-12 3-20 14v2l32-18z" fill="#242993"/><path d="M357 230l32-17c-3-4-10-6-15-1l-17 18z" fill="url(#paint39_linear)"/><path d="M358 232l36-5c2-2 0-5-3-4l-33 9z" fill="#242993"/><path d="M358 231l36-4c2-3 0-6-3-5l-33 9z" fill="url(#paint40_linear)"/><path d="M365 229l-2-2a16 16 0 00-15 0l-2 2h-1v5a5 5 0 003 5 16 16 0 0015 0 5 5 0 003-5v-5h-1z" fill="#2D36AD"/><path opacity=".6" d="M359 238v2h1v-2h-1z" fill="#0B196D"/><path d="M357 234l5 10c0 2 2 4 4 5a18 18 0 0016 0l-25-15z" fill="#111E72"/><path d="M353 233l-32 2c1 6 9 14 15 16l17-18z" fill="url(#paint41_linear)"/><path d="M355 233l-16 11c3 6 14 10 21 10l-5-21z" fill="url(#paint42_linear)"/><path d="M357 233l4 10c1 2 3 4 6 5a18 18 0 0015 0l-25-15z" fill="url(#paint43_linear)"/><path opacity=".6" d="M365 235v2l1-1v-1h-1z" fill="#0B196D"/><path d="M358 233l26 7c5 1 9 0 10-4l-36-3z" fill="#111E72"/><path d="M358 232l26 7c5 2 9 0 10-3l-36-4z" fill="url(#paint44_linear)"/><path d="M363 233a16 16 0 01-15 0c-4-2-4-6 0-8a16 16 0 0115 0c4 2 4 6 0 8z" fill="#4149C7"/><path d="M362 233a15 15 0 01-13 0c-4-2-4-6 0-8a15 15 0 0113 0c4 2 4 6 0 8z" fill="#7990FC"/><path d="M358 230a7 7 0 01-6 0 2 2 0 010-3 7 7 0 016 0 2 2 0 011 3h-1z" fill="#4149C7"/><path d="M352 227a7 7 0 016 0 2 2 0 012 2 2 2 0 00-2-2 7 7 0 00-6 0 2 2 0 00-1 2 2 2 0 011-2z" fill="#2D36AD"/><path d="M399 224l-3 7-4 6-5 4-10 5-14 3h-10l-13-1-11-4-7-4-7-7v-1h-1l-2-7v8c0 6 4 12 12 16 17 10 45 10 62 0 8-4 13-10 13-16v-9z" fill="#2D36AD"/><path d="M396 224c0 6-4 13-12 17-16 10-42 10-58 0-8-4-12-10-12-17h-3c0 7 5 14 13 19 17 10 45 10 62 0 9-5 13-12 13-19h-3z" fill="#7990FC"/><path d="M355 249c-10 0-20-3-29-7-8-5-12-11-12-18 0-6 5-12 12-16 16-10 42-10 58 0 8 4 12 10 13 16 0 7-4 13-13 18-8 4-18 7-29 7zm0-48c-10 0-20 2-28 7s-12 10-12 16c0 7 4 13 12 17 15 9 41 9 57 0 8-4 12-10 12-17 0-6-4-11-12-16-9-4-19-7-29-7z" fill="#2D36AD"/><path d="M201 369l-78-45-2 1 78 45 2-1z" fill="#7990FC"/><path d="M126 351a2 2 0 01-1-1v-14l1-1a2 2 0 011 2v14h-1zm4 3a2 2 0 01-1-2v-14h1a2 2 0 011 2v13l-1 1zm4 2a2 2 0 01-1-2v-13l1-1a2 2 0 011 2v13l-1 1zm4 3a2 2 0 01-1-2v-14l1-1a2 2 0 011 2v14l-1 1zm4 2a2 2 0 01-1-2v-13c0-1 0-2 1-1a2 2 0 011 2v13l-1 1zm4 2a2 2 0 01-1-2v-13l1-1a2 2 0 011 2v13c0 1 0 2-1 1zm4 3a2 2 0 01-1-2v-14l1-1a2 2 0 011 2v14l-1 1z" fill="#242993"/><path d="M126 351a2 2 0 01-1-2v-14 15a2 2 0 001 1h1-1zm4 2a2 2 0 01-1-2v-13 14a2 2 0 001 2 1 1 0 001-1h-1zm5 3h-1a2 2 0 01-1-2v-14 14a2 2 0 001 2 1 1 0 001 0zm4 2h-1a2 2 0 01-1-2v-14 15a2 2 0 001 2 1 1 0 001 0 1 1 0 000-1zm4 2a2 2 0 01-1-1v-14l-1 1v13a2 2 0 001 2 1 1 0 001 0 1 1 0 000-1zm4 3a2 2 0 01-1-2v-14l-1 1v13a2 2 0 001 2 1 1 0 001 0zm4 2a2 2 0 01-1-2v-14l-1 1v14a2 2 0 001 2h1a1 1 0 000-1z" fill="#404FCE"/><path d="M164 374a2 2 0 01-1-2v-14h1a2 2 0 011 1v14l-1 1zm4 2a2 2 0 01-1-2v-13l1-1a2 2 0 011 2v13l-1 1zm4 2a2 2 0 01-1-1v-14l1-1a2 2 0 011 2v14h-1zm4 3a2 2 0 01-1-2v-14h1a2 2 0 011 1v14l-1 1zm4 2a2 2 0 01-1-2v-13l1-1a2 2 0 011 2v13l-1 1zm4 2a2 2 0 01-1-1v-14l1-1a2 2 0 011 2v14h-1zm5 3h-1a2 2 0 01-1-2v-14h2a2 2 0 011 1v14l-1 1z" fill="#242993"/><path d="M165 373a2 2 0 01-1-2v-14l-1 1v14a2 2 0 001 2 1 1 0 001-1zm4 3a2 2 0 01-1-2v-14l-1 1v13a2 2 0 001 2 1 1 0 001 0zm4 2a2 2 0 01-1-2v-14l-1 1v14a2 2 0 001 1h1zm4 2a2 2 0 01-1-2v-13h-1v14a2 2 0 001 2h1v-1zm4 3v-1a2 2 0 01-1-1v-14l-1 1v13a2 2 0 001 2h1zm4 2a2 2 0 01-1-2v-14l-1 1v14a2 2 0 001 1l1 1a1 1 0 000-1zm4 2a2 2 0 01-1-2v-13h-1v14a2 2 0 001 2h1a1 1 0 000-1z" fill="#404FCE"/><path d="M255 370h1a2 2 0 001-2v-7l-1-1h-1a2 2 0 00-1 2v7l1 1zm-4 2a2 2 0 001-2v-7l-1-1a2 2 0 00-1 2v7l1 1zm-4 2a2 2 0 001-2v-7h-1a2 2 0 00-1 2v7h1zm-4 3a2 2 0 001-2v-7l-1-1a2 2 0 00-1 2v7l1 1zm-4 2a2 2 0 001-2v-7l-1-1a2 2 0 00-1 2v7l1 1zm-4 2a2 2 0 001-2v-7h-1a2 2 0 00-1 1v7l1 1zm-4 3a2 2 0 001-2v-7l-1-1a2 2 0 00-1 2v7l1 1z" fill="#16237D"/><path d="M255 369a2 2 0 001-2v-7l1 1v7a2 2 0 01-1 1h-2 1zm-4 2a2 2 0 001-1v-8 8a2 2 0 01-1 2 1 1 0 01-1-1h1zm-4 3a2 2 0 001-2v-7 7a2 2 0 01-1 2h-1 1zm-4 2a2 2 0 001-2v-7 8a2 2 0 01-1 2l-1-1h1zm-5 2h1a2 2 0 001-1v-8 8a2 2 0 01-1 2 1 1 0 01-1 0v-1zm-4 3h1a2 2 0 000-2v-7h1v7a2 2 0 01-1 2 1 1 0 01-1 0zm-4 2a2 2 0 001-2v-7l1 1v7a2 2 0 01-1 2 1 1 0 01-1 0 1 1 0 010-1z" fill="#404FCE"/><path d="M305 341h1a2 2 0 001-2v-7l-1-1h-1a2 2 0 000 2v8zm-4 2h1a2 2 0 001-2v-7l-1-1h-1a2 2 0 00-1 2v7l1 1zm-4 2h1a2 2 0 000-2v-7s0-1 0 0h-1a2 2 0 00-1 2v7h1zm-4 3a2 2 0 001-2v-7l-1-1a2 2 0 00-1 2v7l1 1zm-4 2a2 2 0 001-2v-7l-1-1a2 2 0 00-1 2v7l1 1zm-4 2a2 2 0 001-1v-7c0-1 0-2-1-1a2 2 0 00-1 2v7h1zm-4 3a2 2 0 001-2v-7l-1-1a2 2 0 00-1 2v7l1 1z" fill="#16237D"/><path d="M305 340a2 2 0 001-2v-7l1 1v7a2 2 0 01-1 2h-1a1 1 0 010-1zm-4 2a2 2 0 001-1v-8l1 1v7a2 2 0 01-1 2h-1a1 1 0 01-1-1h1zm-4 3a2 2 0 001-2v-7 7a2 2 0 01-1 2 1 1 0 01-1 0h1zm-4 2a2 2 0 001-2v-7 8a2 2 0 01-1 2 1 1 0 01-1-1h1zm-5 3h1a2 2 0 001-2v-8 8a2 2 0 01-1 2 1 1 0 01-1 0zm-4 2h1a2 2 0 001-2v-7 8a2 2 0 01-1 1 1 1 0 01-1 0zm-4 2a2 2 0 001-2v-7l1 1v7a2 2 0 01-1 2h-1v-1z" fill="#404FCE"/><path d="M355 312h1a2 2 0 001-2v-7l-1-1h-1a2 2 0 000 2v8zm-4 2h1a2 2 0 001-2v-7h-2a2 2 0 00-1 1v7l1 1zm-4 2a2 2 0 001-1v-7l-1-1a2 2 0 00-1 2v7h1zm-4 3a2 2 0 001-2v-7l-1-1a2 2 0 00-1 2v7l1 1zm-4 2a2 2 0 001-2v-7h-1a2 2 0 00-1 1v7l1 1zm-4 3a2 2 0 001-2v-7l-1-1a2 2 0 00-1 2v7l1 1zm-4 2a2 2 0 001-2v-7l-1-1a2 2 0 00-1 2v7l1 1z" fill="#16237D"/><path d="M355 311a2 2 0 001-2v-7l1 1v7a2 2 0 01-1 2h-1a1 1 0 010-1zm-4 3a2 2 0 001-2v-8l1 1v7a2 2 0 01-1 2h-1zm-4 2a2 2 0 001-2v-7 8a2 2 0 010 1h-2 1zm-4 2a2 2 0 001-2v-7 8a2 2 0 01-1 2 1 1 0 01-1-1h1zm-4 3a2 2 0 001-2v-8 8a2 2 0 01-1 2 1 1 0 01-1 0h1zm-5 2h1a2 2 0 001-2v-7 7a2 2 0 01-1 2 1 1 0 01-1 0zm-4 2h1a2 2 0 000-2v-7l1 1v7a2 2 0 01-1 2l-1-1z" fill="#404FCE"/><path d="M406 283a2 2 0 001-2v-7l-1-1a2 2 0 00-1 2v7l1 1zm-5 2h1a2 2 0 001-2v-7h-2a2 2 0 00-1 1v7l1 1zm-4 2h1a2 2 0 000-1v-8h-1a2 2 0 00-1 2v7h1zm-4 3a2 2 0 001-2v-7l-1-1a2 2 0 00-1 2v7l1 1zm-4 2a2 2 0 001-2v-7h-1a2 2 0 00-1 1v7l1 1zm-4 3a2 2 0 001-2v-7l-1-1a2 2 0 00-1 2v7l1 1zm-4 2a2 2 0 001-2v-7l-1-1a2 2 0 00-1 2v7l1 1z" fill="#16237D"/><path d="M405 282a2 2 0 001-2v-7l1 1v7a2 2 0 01-1 2 1 1 0 01-1 0 1 1 0 010-1zm-4 3a2 2 0 001-2v-8l1 1v7a2 2 0 01-1 2h-1zm-4 2a2 2 0 001-2v-7l1 1v7a2 2 0 01-1 1h-1a1 1 0 010 1 1 1 0 010-1zm-4 2a2 2 0 001-2v-7 8a2 2 0 01-1 2l-1-1h1zm-4 3a2 2 0 001-2v-8 8a2 2 0 01-1 2h-1 1zm-5 2h1a2 2 0 001-2v-7 8a2 2 0 01-1 1 1 1 0 01-1 0zm-4 2h1a2 2 0 001-1v-8 8a2 2 0 01-1 2 1 1 0 01-1-1z" fill="#404FCE"/><path d="M183 391l-15-9a1 1 0 00-1 0l-8 5 17 13 8-4a1 1 0 000-1v-2a2 2 0 00-1-2z" fill="url(#paint45_linear)"/><path d="M175 400l-15-9a2 2 0 01-1-1v-3h1l15 9a2 2 0 011 1v2l-1 1z" fill="#404FCE"/><path d="M173 398l-11-6a1 1 0 010-1v-2l11 6a2 2 0 010 1v2z" fill="#242993"/><path d="M189 399a4 4 0 00-2-3 1 1 0 00-1-1l-5 3 2 5 5-3a1 1 0 001-1z" fill="url(#paint46_linear)"/><path d="M184 402l-2 1a4 4 0 01-2-3c0-2 1-2 2-2a4 4 0 012 4z" fill="#404FCE"/><path d="M183 401l-1 1a3 3 0 01-1-2l1-1a3 3 0 011 2z" fill="#242993"/><path d="M163 383a4 4 0 00-2-3 1 1 0 00-1 0l-5 3 2 4 5-3a1 1 0 001-1z" fill="url(#paint47_linear)"/><path d="M158 386c0 1-1 2-2 1a4 4 0 01-2-3c0-1 1-2 2-1a4 4 0 012 3z" fill="#404FCE"/><path d="M157 386h-1a3 3 0 01-1-2h1a3 3 0 011 2z" fill="#242993"/><path d="M144 369l-15-9a1 1 0 00-1 0l-8 4 17 14 8-5v-3a2 2 0 00-1-1z" fill="url(#paint48_linear)"/><path d="M136 378l-15-9a2 2 0 01-1-2v-2l1-1 15 9a2 2 0 011 2v2l-1 1z" fill="#404FCE"/><path d="M134 375l-10-6a1 1 0 01-1-1v-1h1l10 6a1 1 0 010 1v1s0 1 0 0z" fill="#242993"/><path d="M150 376a4 4 0 00-2-3 1 1 0 00-1 0l-5 3 3 4 5-2a1 1 0 000-2z" fill="url(#paint49_linear)"/><path d="M145 379c0 1-1 2-2 1a4 4 0 01-2-3c0-1 1-2 2-1a4 4 0 012 3z" fill="#404FCE"/><path d="M145 379l-2 1a3 3 0 01-1-3h1a3 3 0 012 2z" fill="#242993"/><path d="M124 361a4 4 0 00-2-3 1 1 0 00-1-1l-5 3 3 5 5-3a1 1 0 000-1z" fill="url(#paint50_linear)"/><path d="M119 364l-2 1a4 4 0 01-2-3c0-2 1-2 2-1a4 4 0 012 3z" fill="#404FCE"/><path d="M119 363l-2 1a3 3 0 01-1-2l1-1a3 3 0 012 2z" fill="#242993"/><path d="M123 324l-2 1-11 1 2-1 11-1zm-11 14l-2-1v2h1l1-1zm-8 2l-1 1-7 4a4 4 0 00-2 3c0 1 1 2 2 1l5-3c1 0 2 0 2 2a4 4 0 01-2 3l-5 3a4 4 0 00-2 3c0 1 1 2 2 1l7-4h1l6-4v-13l-6 3z" fill="#7990FC"/><path d="M97 350l-2-1 1-1 1 2zm0 9l-2-1h3l-1 1z" fill="#7990FC"/><path d="M105 341l-1 1-6 4a4 4 0 00-2 3c0 1 1 2 2 1l5-3 1 2a4 4 0 01-1 3l-5 3a4 4 0 00-2 3c0 1 1 2 2 1l6-4h1l7-4v-13l-7 3z" fill="#2D36AD"/><defs><linearGradient id="paint0_linear" x1="184.2" y1="325.5" x2="186" y2="345.7" gradientUnits="userSpaceOnUse"><stop stop-color="#97A6FD"/><stop offset=".1" stop-color="#3DE6F1"/><stop offset=".3" stop-color="#30A2CB"/><stop offset=".6" stop-color="#266CAC"/><stop offset=".8" stop-color="#1E4596"/><stop offset=".9" stop-color="#1A2D89"/><stop offset="1" stop-color="#182484"/></linearGradient><linearGradient id="paint1_linear" x1="11211.6" y1="5535.8" x2="11444.7" y2="5616.1" gradientUnits="userSpaceOnUse"><stop stop-color="#97A6FD"/><stop offset=".1" stop-color="#97A6FD"/><stop offset=".3" stop-color="#30A2CB"/><stop offset=".6" stop-color="#266CAC"/><stop offset=".8" stop-color="#1E4596"/><stop offset=".9" stop-color="#1A2D89"/><stop offset="1" stop-color="#182484"/></linearGradient><linearGradient id="paint2_linear" x1="13609.4" y1="4615.9" x2="13859.3" y2="4417.8" gradientUnits="userSpaceOnUse"><stop stop-color="#97A6FD"/><stop offset=".1" stop-color="#3DE6F1"/><stop offset=".3" stop-color="#30A2CB"/><stop offset=".6" stop-color="#266CAC"/><stop offset=".8" stop-color="#1E4596"/><stop offset=".9" stop-color="#1A2D89"/><stop offset="1" stop-color="#182484"/></linearGradient><linearGradient id="paint3_linear" x1="19358.3" y1="2212" x2="19361.4" y2="2161.8" gradientUnits="userSpaceOnUse"><stop stop-color="#42FFFF"/><stop offset=".1" stop-color="#3DE6F1"/><stop offset=".3" stop-color="#30A2CB"/><stop offset=".6" stop-color="#266CAC"/><stop offset=".8" stop-color="#1E4596"/><stop offset=".9" stop-color="#1A2D89"/><stop offset="1" stop-color="#182484"/></linearGradient><linearGradient id="paint4_linear" x1="47724.1" y1="13302.8" x2="53410.9" y2="13302.8" gradientUnits="userSpaceOnUse"><stop stop-color="#97A6FD"/><stop offset=".1" stop-color="#97A6FD"/><stop offset=".3" stop-color="#30A2CB"/><stop offset=".6" stop-color="#266CAC"/><stop offset=".8" stop-color="#1E4596"/><stop offset=".9" stop-color="#1A2D89"/><stop offset="1" stop-color="#182484"/></linearGradient><linearGradient id="paint5_linear" x1="8445.8" y1="2802.6" x2="8834.7" y2="2802.6" gradientUnits="userSpaceOnUse"><stop stop-color="#97A6FD"/><stop offset=".1" stop-color="#97A6FD"/><stop offset=".3" stop-color="#30A2CB"/><stop offset=".6" stop-color="#266CAC"/><stop offset=".8" stop-color="#1E4596"/><stop offset=".9" stop-color="#1A2D89"/><stop offset="1" stop-color="#182484"/></linearGradient><linearGradient id="paint6_linear" x1="117580" y1="29479" x2="135554" y2="47947.5" gradientUnits="userSpaceOnUse"><stop stop-color="#97A6FC"/><stop offset=".1" stop-color="#3DE6F1"/><stop offset=".3" stop-color="#30A2CB"/><stop offset=".6" stop-color="#266CAC"/><stop offset=".8" stop-color="#1E4596"/><stop offset=".9" stop-color="#1A2D89"/><stop offset="1" stop-color="#182484"/></linearGradient><linearGradient id="paint7_linear" x1="96212.6" y1="33088.4" x2="147771" y2="-22756.2" gradientUnits="userSpaceOnUse"><stop stop-color="#97A6FD"/><stop offset=".1" stop-color="#3DE6F1"/><stop offset=".3" stop-color="#30A2CB"/><stop offset=".6" stop-color="#266CAC"/><stop offset=".8" stop-color="#1E4596"/><stop offset=".9" stop-color="#1A2D89"/><stop offset="1" stop-color="#182484"/></linearGradient><linearGradient id="paint8_linear" x1="148252" y1="29931.8" x2="162226" y2="58324.7" gradientUnits="userSpaceOnUse"><stop stop-color="#2B3AA5"/><stop offset="1" stop-color="#182484"/></linearGradient><linearGradient id="paint9_linear" x1="119122" y1="32644.7" x2="174673" y2="3751.8" gradientUnits="userSpaceOnUse"><stop stop-color="#97A6FD"/><stop offset=".1" stop-color="#97A6FD"/><stop offset=".3" stop-color="#30A2CB"/><stop offset=".6" stop-color="#266CAC"/><stop offset=".8" stop-color="#1E4596"/><stop offset=".9" stop-color="#1A2D89"/><stop offset="1" stop-color="#182484"/></linearGradient><linearGradient id="paint10_linear" x1="115336" y1="27306.7" x2="131047" y2="41094.1" gradientUnits="userSpaceOnUse"><stop stop-color="#97A6FD"/><stop offset=".1" stop-color="#97A6FD"/><stop offset=".3" stop-color="#30A2CB"/><stop offset=".6" stop-color="#266CAC"/><stop offset=".8" stop-color="#1E4596"/><stop offset=".9" stop-color="#1A2D89"/><stop offset="1" stop-color="#182484"/></linearGradient><linearGradient id="paint11_linear" x1="117540" y1="31603.4" x2="123312" y2="46610.7" gradientUnits="userSpaceOnUse"><stop stop-color="#2B3AA5"/><stop offset="1" stop-color="#182484"/></linearGradient><linearGradient id="paint12_linear" x1="41623" y1="7486.8" x2="45421.2" y2="7486.8" gradientUnits="userSpaceOnUse"><stop stop-color="#2B3AA5"/><stop offset="1" stop-color="#182484"/></linearGradient><linearGradient id="paint13_linear" x1="12615.9" y1="6443.9" x2="12379" y2="6524.4" gradientUnits="userSpaceOnUse"><stop stop-color="#97A6FD"/><stop offset=".1" stop-color="#97A6FD"/><stop offset=".3" stop-color="#30A2CB"/><stop offset=".6" stop-color="#266CAC"/><stop offset=".8" stop-color="#1E4596"/><stop offset=".9" stop-color="#1A2D89"/><stop offset="1" stop-color="#182484"/></linearGradient><linearGradient id="paint14_linear" x1="17520.2" y1="5186" x2="17407.4" y2="5390.8" gradientUnits="userSpaceOnUse"><stop stop-color="#97A6FD"/><stop offset=".1" stop-color="#97A6FD"/><stop offset=".3" stop-color="#30A2CB"/><stop offset=".6" stop-color="#266CAC"/><stop offset=".8" stop-color="#1E4596"/><stop offset=".9" stop-color="#1A2D89"/><stop offset="1" stop-color="#182484"/></linearGradient><linearGradient id="paint15_linear" x1="191.5" y1="306.4" x2="183.8" y2="329" gradientUnits="userSpaceOnUse"><stop stop-color="#97A6FD"/><stop offset=".1" stop-color="#97A6FD"/><stop offset=".3" stop-color="#97A6FE"/><stop offset=".5" stop-color="#97A6FE"/><stop offset=".7" stop-color="#97A6FE"/><stop offset=".8" stop-color="#97A6FE"/><stop offset=".9" stop-color="#97A6FE"/></linearGradient><linearGradient id="paint16_linear" x1="10793.7" y1="6227.1" x2="10584" y2="6123.9" gradientUnits="userSpaceOnUse"><stop stop-color="#97A6FD"/><stop offset=".1" stop-color="#97A6FD"/><stop offset=".3" stop-color="#30A2CB"/><stop offset=".6" stop-color="#266CAC"/><stop offset=".8" stop-color="#1E4596"/><stop offset=".9" stop-color="#1A2D89"/><stop offset="1" stop-color="#182484"/></linearGradient><linearGradient id="paint17_linear" x1="16321.6" y1="4985.9" x2="16232.8" y2="4772.1" gradientUnits="userSpaceOnUse"><stop stop-color="#97A6FD"/><stop offset=".1" stop-color="#97A6FD"/><stop offset=".3" stop-color="#30A2CB"/><stop offset=".6" stop-color="#266CAC"/><stop offset=".8" stop-color="#1E4596"/><stop offset=".9" stop-color="#1A2D89"/><stop offset="1" stop-color="#182484"/></linearGradient><linearGradient id="paint18_linear" x1="18608.5" y1="2419.7" x2="18605.2" y2="2368.4" gradientUnits="userSpaceOnUse"><stop stop-color="#97A6FD"/><stop offset=".1" stop-color="#3DE6F1"/><stop offset=".3" stop-color="#30A2CB"/><stop offset=".6" stop-color="#266CAC"/><stop offset=".8" stop-color="#1E4596"/><stop offset=".9" stop-color="#1A2D89"/><stop offset="1" stop-color="#182484"/></linearGradient><linearGradient id="paint19_linear" x1="15703.6" y1="4511.9" x2="15712.6" y2="4683.4" gradientUnits="userSpaceOnUse"><stop stop-color="#97A6FD"/><stop offset=".1" stop-color="#97A6FD"/><stop offset=".3" stop-color="#30A2CB"/><stop offset=".6" stop-color="#266CAC"/><stop offset=".8" stop-color="#1E4596"/><stop offset=".9" stop-color="#1A2D89"/><stop offset="1" stop-color="#182484"/></linearGradient><linearGradient id="paint20_linear" x1="10550.7" y1="5086.3" x2="10753" y2="5155.6" gradientUnits="userSpaceOnUse"><stop stop-color="#97A6FD"/><stop offset=".1" stop-color="#3DE6F1"/><stop offset=".3" stop-color="#30A2CB"/><stop offset=".6" stop-color="#266CAC"/><stop offset=".8" stop-color="#1E4596"/><stop offset=".9" stop-color="#1A2D89"/><stop offset="1" stop-color="#182484"/></linearGradient><linearGradient id="paint21_linear" x1="12762.1" y1="4238.7" x2="12978.9" y2="4067.4" gradientUnits="userSpaceOnUse"><stop stop-color="#97A6FD"/><stop offset=".1" stop-color="#3DE6F1"/><stop offset=".3" stop-color="#30A2CB"/><stop offset=".6" stop-color="#266CAC"/><stop offset=".8" stop-color="#1E4596"/><stop offset=".9" stop-color="#1A2D89"/><stop offset="1" stop-color="#182484"/></linearGradient><linearGradient id="paint22_linear" x1="18160" y1="2045" x2="18162.7" y2="2001.4" gradientUnits="userSpaceOnUse"><stop stop-color="#97A6FD"/><stop offset=".1" stop-color="#3DE6F1"/><stop offset=".3" stop-color="#30A2CB"/><stop offset=".6" stop-color="#266CAC"/><stop offset=".8" stop-color="#1E4596"/><stop offset=".9" stop-color="#1A2D89"/><stop offset="1" stop-color="#182484"/></linearGradient><linearGradient id="paint23_linear" x1="44793.9" y1="6757.6" x2="48590" y2="6757.6" gradientUnits="userSpaceOnUse"><stop stop-color="#2B3AA5"/><stop offset="1" stop-color="#182484"/></linearGradient><linearGradient id="paint24_linear" x1="13586.8" y1="5819.5" x2="13349.8" y2="5900" gradientUnits="userSpaceOnUse"><stop stop-color="#97A6FD"/><stop offset=".1" stop-color="#3DE6F1"/><stop offset=".3" stop-color="#30A2CB"/><stop offset=".6" stop-color="#266CAC"/><stop offset=".8" stop-color="#1E4596"/><stop offset=".9" stop-color="#1A2D89"/><stop offset="1" stop-color="#182484"/></linearGradient><linearGradient id="paint25_linear" x1="18840.4" y1="4677.1" x2="18727.8" y2="4881.4" gradientUnits="userSpaceOnUse"><stop stop-color="#97A6FD"/><stop offset=".1" stop-color="#97A6FD"/><stop offset=".3" stop-color="#30A2CB"/><stop offset=".6" stop-color="#266CAC"/><stop offset=".8" stop-color="#1E4596"/><stop offset=".9" stop-color="#1A2D89"/><stop offset="1" stop-color="#182484"/></linearGradient><linearGradient id="paint26_linear" x1="19243.5" y1="4266.1" x2="19199.4" y2="4505.1" gradientUnits="userSpaceOnUse"><stop stop-color="#97A6FD"/><stop offset=".1" stop-color="#3DE6F1"/><stop offset=".3" stop-color="#30A2CB"/><stop offset=".5" stop-color="#266CAC"/><stop offset=".7" stop-color="#1E4596"/><stop offset=".8" stop-color="#1A2D89"/><stop offset=".9" stop-color="#182484"/></linearGradient><linearGradient id="paint27_linear" x1="11621.5" y1="5625.6" x2="11411.8" y2="5522.4" gradientUnits="userSpaceOnUse"><stop stop-color="#97A6FD"/><stop offset=".1" stop-color="#3DE6F1"/><stop offset=".3" stop-color="#30A2CB"/><stop offset=".6" stop-color="#266CAC"/><stop offset=".8" stop-color="#1E4596"/><stop offset=".9" stop-color="#1A2D89"/><stop offset="1" stop-color="#182484"/></linearGradient><linearGradient id="paint28_linear" x1="17533" y1="4504.2" x2="17444" y2="4290.4" gradientUnits="userSpaceOnUse"><stop stop-color="#97A6FD"/><stop offset=".1" stop-color="#3DE6F1"/><stop offset=".3" stop-color="#30A2CB"/><stop offset=".6" stop-color="#266CAC"/><stop offset=".8" stop-color="#1E4596"/><stop offset=".9" stop-color="#1A2D89"/><stop offset="1" stop-color="#182484"/></linearGradient><linearGradient id="paint29_linear" x1="19934.2" y1="2167.6" x2="19930.9" y2="2116.7" gradientUnits="userSpaceOnUse"><stop stop-color="#97A6FD"/><stop offset=".1" stop-color="#97A6FD"/><stop offset=".3" stop-color="#30A2CB"/><stop offset=".6" stop-color="#266CAC"/><stop offset=".8" stop-color="#1E4596"/><stop offset=".9" stop-color="#1A2D89"/><stop offset="1" stop-color="#182484"/></linearGradient><linearGradient id="paint30_linear" x1="16915" y1="4084.8" x2="16923.9" y2="4256" gradientUnits="userSpaceOnUse"><stop stop-color="#97A6FD"/><stop offset=".1" stop-color="#97A6FD"/><stop offset=".3" stop-color="#30A2CB"/><stop offset=".6" stop-color="#266CAC"/><stop offset=".8" stop-color="#1E4596"/><stop offset=".9" stop-color="#1A2D89"/><stop offset="1" stop-color="#182484"/></linearGradient><linearGradient id="paint31_linear" x1="11378.4" y1="4620.7" x2="11580.8" y2="4690.2" gradientUnits="userSpaceOnUse"><stop stop-color="#97A6FD"/><stop offset=".1" stop-color="#3DE6F1"/><stop offset=".3" stop-color="#30A2CB"/><stop offset=".6" stop-color="#266CAC"/><stop offset=".8" stop-color="#1E4596"/><stop offset=".9" stop-color="#1A2D89"/><stop offset="1" stop-color="#182484"/></linearGradient><linearGradient id="paint32_linear" x1="13787.4" y1="3858.2" x2="14005.1" y2="3686" gradientUnits="userSpaceOnUse"><stop stop-color="#97A6FD"/><stop offset=".1" stop-color="#97A6FD"/><stop offset=".3" stop-color="#30A2CB"/><stop offset=".6" stop-color="#266CAC"/><stop offset=".8" stop-color="#1E4596"/><stop offset=".9" stop-color="#1A2D89"/><stop offset="1" stop-color="#182484"/></linearGradient><linearGradient id="paint33_linear" x1="19468.6" y1="1850.5" x2="19471.3" y2="1806.7" gradientUnits="userSpaceOnUse"><stop stop-color="#97A6FD"/><stop offset=".1" stop-color="#3DE6F1"/><stop offset=".3" stop-color="#30A2CB"/><stop offset=".6" stop-color="#266CAC"/><stop offset=".8" stop-color="#1E4596"/><stop offset=".9" stop-color="#1A2D89"/><stop offset="1" stop-color="#182484"/></linearGradient><linearGradient id="paint34_linear" x1="47987" y1="6033.6" x2="51783" y2="6033.6" gradientUnits="userSpaceOnUse"><stop stop-color="#2B3AA5"/><stop offset="1" stop-color="#182484"/></linearGradient><linearGradient id="paint35_linear" x1="14557.6" y1="5194.7" x2="14320.6" y2="5275.2" gradientUnits="userSpaceOnUse"><stop stop-color="#97A6FD"/><stop offset=".1" stop-color="#97A6FD"/><stop offset=".3" stop-color="#30A2CB"/><stop offset=".6" stop-color="#266CAC"/><stop offset=".8" stop-color="#1E4596"/><stop offset=".9" stop-color="#1A2D89"/><stop offset="1" stop-color="#182484"/></linearGradient><linearGradient id="paint36_linear" x1="20202.9" y1="4180.5" x2="20090.4" y2="4385.2" gradientUnits="userSpaceOnUse"><stop stop-color="#97A6FD"/><stop offset=".1" stop-color="#97A6FD"/><stop offset=".3" stop-color="#30A2CB"/><stop offset=".6" stop-color="#266CAC"/><stop offset=".8" stop-color="#1E4596"/><stop offset=".9" stop-color="#1A2D89"/><stop offset="1" stop-color="#182484"/></linearGradient><linearGradient id="paint37_linear" x1="20649.9" y1="3813.4" x2="20605.9" y2="4052.3" gradientUnits="userSpaceOnUse"><stop stop-color="#97A6FD"/><stop offset=".1" stop-color="#97A6FD"/><stop offset=".3" stop-color="#97A6FD"/><stop offset=".5" stop-color="#97A6FD"/><stop offset=".7" stop-color="#97A6FD"/><stop offset=".8" stop-color="#97A6FD"/><stop offset=".9" stop-color="#97A6FD"/></linearGradient><linearGradient id="paint38_linear" x1="12449.2" y1="5024.3" x2="12239.5" y2="4921.1" gradientUnits="userSpaceOnUse"><stop stop-color="#97A6FD"/><stop offset=".1" stop-color="#3DE6F1"/><stop offset=".3" stop-color="#30A2CB"/><stop offset=".6" stop-color="#266CAC"/><stop offset=".8" stop-color="#1E4596"/><stop offset=".9" stop-color="#1A2D89"/><stop offset="1" stop-color="#182484"/></linearGradient><linearGradient id="paint39_linear" x1="18744.3" y1="4029.9" x2="18655.3" y2="3815.7" gradientUnits="userSpaceOnUse"><stop stop-color="#97A6FD"/><stop offset=".1" stop-color="#97A6FD"/><stop offset=".3" stop-color="#30A2CB"/><stop offset=".6" stop-color="#266CAC"/><stop offset=".8" stop-color="#1E4596"/><stop offset=".9" stop-color="#1A2D89"/><stop offset="1" stop-color="#182484"/></linearGradient><linearGradient id="paint40_linear" x1="21345.6" y1="1948.5" x2="21342.3" y2="1897.2" gradientUnits="userSpaceOnUse"><stop stop-color="#97A6FD"/><stop offset=".1" stop-color="#3DE6F1"/><stop offset=".3" stop-color="#30A2CB"/><stop offset=".6" stop-color="#266CAC"/><stop offset=".8" stop-color="#1E4596"/><stop offset=".9" stop-color="#1A2D89"/><stop offset="1" stop-color="#182484"/></linearGradient><linearGradient id="paint41_linear" x1="18126.2" y1="3666" x2="18135.2" y2="3837.3" gradientUnits="userSpaceOnUse"><stop stop-color="#97A6FE"/><stop offset=".1" stop-color="#97A6FD"/><stop offset=".3" stop-color="#30A2CB"/><stop offset=".6" stop-color="#266CAC"/><stop offset=".8" stop-color="#1E4596"/><stop offset=".9" stop-color="#1A2D89"/><stop offset="1" stop-color="#182484"/></linearGradient><linearGradient id="paint42_linear" x1="12206.3" y1="4135.1" x2="12408.5" y2="4204.9" gradientUnits="userSpaceOnUse"><stop stop-color="#97A6FD"/><stop offset=".1" stop-color="#3DE6F1"/><stop offset=".3" stop-color="#30A2CB"/><stop offset=".6" stop-color="#266CAC"/><stop offset=".8" stop-color="#1E4596"/><stop offset=".9" stop-color="#1A2D89"/><stop offset="1" stop-color="#182484"/></linearGradient><linearGradient id="paint43_linear" x1="14705" y1="3457.9" x2="14921.9" y2="3286.5" gradientUnits="userSpaceOnUse"><stop stop-color="#97A6FD"/><stop offset=".1" stop-color="#97A6FD"/><stop offset=".3" stop-color="#30A2CB"/><stop offset=".6" stop-color="#266CAC"/><stop offset=".8" stop-color="#1E4596"/><stop offset=".9" stop-color="#1A2D89"/><stop offset="1" stop-color="#182484"/></linearGradient><linearGradient id="paint44_linear" x1="20842.8" y1="1651.1" x2="20845.5" y2="1607.5" gradientUnits="userSpaceOnUse"><stop stop-color="#97A6FD"/><stop offset=".1" stop-color="#97A6FD"/><stop offset=".3" stop-color="#30A2CB"/><stop offset=".6" stop-color="#266CAC"/><stop offset=".8" stop-color="#1E4596"/><stop offset=".9" stop-color="#1A2D89"/><stop offset="1" stop-color="#182484"/></linearGradient><linearGradient id="paint45_linear" x1="11763.3" y1="5125" x2="12065.8" y2="5125" gradientUnits="userSpaceOnUse"><stop stop-color="#2B3AA5"/><stop offset="1" stop-color="#182484"/></linearGradient><linearGradient id="paint46_linear" x1="4121" y1="2415.6" x2="4154.4" y2="2415.6" gradientUnits="userSpaceOnUse"><stop stop-color="#2B3AA5"/><stop offset="1" stop-color="#182484"/></linearGradient><linearGradient id="paint47_linear" x1="3991" y1="2342.2" x2="4024.3" y2="2342.2" gradientUnits="userSpaceOnUse"><stop stop-color="#2B3AA5"/><stop offset="1" stop-color="#182484"/></linearGradient><linearGradient id="paint48_linear" x1="11250.4" y1="4918.2" x2="11552.8" y2="4918.2" gradientUnits="userSpaceOnUse"><stop stop-color="#2B3AA5"/><stop offset="1" stop-color="#182484"/></linearGradient><linearGradient id="paint49_linear" x1="3909.6" y1="2306.4" x2="3942.7" y2="2306.4" gradientUnits="userSpaceOnUse"><stop stop-color="#2B3AA5"/><stop offset="1" stop-color="#182484"/></linearGradient><linearGradient id="paint50_linear" x1="3795.9" y1="2233" x2="3829.2" y2="2233" gradientUnits="userSpaceOnUse"><stop stop-color="#2B3AA5"/><stop offset="1" stop-color="#182484"/></linearGradient></defs></svg>