<svg width="487" height="465" fill="none" xmlns="http://www.w3.org/2000/svg"><path opacity=".4" d="M243.2 449.4l1.5.8a4.3 4.3 0 003.9 0l68.6-39.6a1.2 1.2 0 00.6-1.9c-.1-.2-.3-.3-.6-.4l-.3-.2-2-1.1a1.2 1.2 0 010-2.3l.7-.4a4.4 4.4 0 014 0 4.3 4.3 0 003.8 0l7.5-4.3a1.2 1.2 0 000-2.3l-2.9-1.6 101.6-58.6-18.6-48-83-10.7-217.6 125.7-1.7 1-14.2 8.3 3.3 1.9 14.2-8.3 98.3 56.8 12.8-7.4 5.2 2.9a4.4 4.4 0 003.9 0l8.3-4.8a1.2 1.2 0 000-2.2l-1.6-.9a1.2 1.2 0 010-2.3l.5-.2a4.3 4.3 0 013.8 0z" fill="#0F1C75"/><path d="M205 325.5l5.3 11.2c.9 2 2.5 3.8 4.5 4.8a19.3 19.3 0 0017.3.1l-27.1-16z" fill="#111E72"/><path d="M201.4 324.5l-34.4 2.2c.5 6.1 9.4 15.4 16.2 17.6l18.2-19.8z" fill="url(#paint0_linear)"/><path d="M203 325l-17 11.9c3.6 6.4 15 10.9 22.8 10.3L203 325z" fill="url(#paint1_linear)"/><path d="M205 324.8l5 10.6c1.2 2.6 3.3 4.7 6 5.9a19.1 19.1 0 0016.2-.4L205 324.8z" fill="url(#paint2_linear)"/><path d="M206.3 324.6l27.9 7.5c6 1.6 10.1-.1 10.5-3.7l-38.4-3.8z" fill="#111E72"/><path d="M206.3 324l27.9 7.5c6 1.6 10.1-.1 10.5-3.7l-38.4-3.8z" fill="url(#paint3_linear)"/><path d="M207.1 329.4v.9l-.7-1.2.7.3zm6.6-3.4v.9l-.5-.2-.2-.6.7-.1z" fill="#2D36AD"/><path d="M346.9 319.7l-9.4-5.4-8.7 5-88.6 51.1-16 9.3 10.5 6 4.4 2.6 3.9 2.2a1.4 1.4 0 001.2 0l11.5-6.6.1-.1a.4.4 0 00-.2-.6l-3.8-2.2 3.3-2 3.9 2.3a1.3 1.3 0 001.2 0l87.4-50.5a.4.4 0 00.2-.5l-.2-.1-3.9-2.3 3-1.7a4.3 4.3 0 004 0l9.4-5.4c1-.7 1-1.7 0-2.3l-2.5-1.4a4.3 4.3 0 00-4 0l-4.5 2.6a2.2 2.2 0 01-2.2 0z" fill="#192584"/><path d="M347.7 328v2.5l-3-1.2 3-1.3zm13.1-10.8v2.4l-2-1.4 2-1z" fill="#192584"/><path d="M346.9 317.3l-9.4-5.5-8.7 5-88.6 51.2-16 9.3 10.5 6 4.4 2.6 3.9 2.2a1.3 1.3 0 001.2 0l11.5-6.6a.4.4 0 00.2-.3.4.4 0 00-.3-.4l-3.8-2.2 3.3-2 3.9 2.3a1.3 1.3 0 001.2 0l87.4-50.4c.3-.2.3-.5 0-.7l-4-2.3 3-1.7a4.3 4.3 0 004 0l9.4-5.4c1-.7 1-1.7 0-2.3l-2.5-1.4a4.3 4.3 0 00-4 0l-4.5 2.6a2.2 2.2 0 01-2.1 0z" fill="#2D36AD"/><path d="M236.2 384.2l121.3-69.6-4.1-2.4-118.7 71.1 1.5.9zm19.7-3.1v2.4l-3.1-1 3-1.4z" fill="#192584"/><path d="M255.7 377l3.3 1.8a1.3 1.3 0 001.2 0l87.4-50.4c.3-.2.3-.5 0-.7l-3.3-1.9-88.6 51.2z" fill="url(#paint4_linear)"/><path d="M244.2 388l11.4-6.5a.4.4 0 000-.8l-3.2-1.8-12.7 7.3 3.2 1.9a1.3 1.3 0 001.3 0z" fill="url(#paint5_linear)"/><path d="M427.8 257.9l-216 124.8-11-13.7-77.4-44.8-11 1 216-124.7 17.6-4.9 62.2 8.9 15.3 35.9 4.3 17.5z" fill="#242993"/><path d="M198.7 367.7l224-129.3-14.5-34-58.7-8.3-224 129.4 73.2 42.2z" fill="#242993"/><path d="M200.8 369l222.7-128.6 4.3 17.5-216 124.8-11-13.7z" fill="url(#paint6_linear)"/><path d="M123.4 324.2L346 195.6l-17.5 4.9-216 124.8 10.9-1z" fill="url(#paint7_linear)"/><path d="M198.7 364.6l224-129.3-14.5-34-58.7-8.3-224 129.4 73.2 42.2z" fill="url(#paint8_linear)"/><path d="M167 346.4L410.2 206l-2-4.6-5.6-.8-244 140.8 8.6 5z" fill="url(#paint9_linear)"/><path d="M402.5 202l5.7.8 1.4 3.5.5-.3-2-4.6-5.6-.8-244 140.8 1.3.7L402.5 202z" fill="#242993"/><path d="M198.7 364.6v3.1l-73.2-42.2v-3.1l73.2 42.2z" fill="#192584"/><path d="M198.7 364.6v3.1l-73.2-42.2v-3.1l73.2 42.2z" fill="#404FCE"/><path d="M198.7 364.6l224-129.3v3l-224 129.4v-3z" fill="url(#paint10_linear)"/><path d="M211.8 382.7V422l-99.4-57.4v-39.3l11-1 77.4 44.7 11 13.7z" fill="#2D36AD"/><path d="M209.7 383.8v39.4l-99.3-57.4v-39.4l11-1 77.4 44.7 11 13.7z" fill="#2D36AD"/><path d="M211.8 382.7V397l216-124.8V258l-216 124.8z" fill="url(#paint11_linear)"/><path d="M209.7 423.2l2.1-1.2v-39.3l-2 1.1v39.4z" fill="#5F74EA"/><path d="M211.8 382.7l-11-13.7-2 1.1 11 13.7 2-1.1z" fill="#5F74EA"/><path opacity=".3" d="M211 341.5c-11 .2-21.9-2.4-31.5-7.5-8.7-5-13.4-11.7-13.3-18.8.2-7.1 4.8-13.4 13.3-18.3 17.3-10 45.5-10 63 0 8.3 4.8 13 11.3 13.1 18.1.2 6.9-4.5 13.9-13.1 19a64.3 64.3 0 01-31.6 7.5zm0-51a63.2 63.2 0 00-31 7.4c-8 4.7-12.5 10.8-12.6 17.3 0 6.5 4.4 13 12.6 17.8 17 9.8 44.7 9.8 61.8 0 8.3-4.8 12.8-11.2 12.7-17.9-.2-6.7-4.7-12.5-12.7-17.2-9.5-5-20.1-7.6-30.9-7.3z" fill="#0B196D"/><path d="M252.4 307v-4.9l-6.6-7.8-7.6-4.3-11.4-4.3-11.1-1.5h-13.3l-12.7 2.7-8.5 3.5-7 5-5.7 9.4v4a15.3 15.3 0 00-1.6 7.2h3c0-2 .3-3.9 1-5.7l27.3-17.3 2.3-.4 18.9 2.2 17.3 5 13.1 8.3c1.6 2.8 2.3 6 2 9h2.9c.4-3.5-.4-7-2.3-10z" fill="url(#paint12_linear)"/><path d="M274.7 314.4l-69-39.9 1.5-.8 69 39.8-1.5 1z" fill="#5F74EA"/><path d="M273.6 315l-69-39.8 1-.7 69.1 39.9-1.1.7z" fill="#3C53C9"/><path d="M272 316l-69-40 1.5-.8 69 39.9-1.5.9z" fill="#5F74EA"/><path d="M270.9 316.6l-69-39.8 1-.7L272 316l-1.1.6z" fill="#3C53C9"/><path d="M269.3 317.5l-69-39.8 1.5-1 69 40-1.5.8z" fill="#5F74EA"/><path d="M268.2 318.2l-69-39.9 1.1-.6 69 39.8-1.1.7z" fill="#3C53C9"/><path d="M266.6 319l-69-39.8 1.5-.9 69 39.9-1.5.9z" fill="#5F74EA"/><path d="M265.5 319.8l-69-40 1.1-.6 69 39.9-1.1.7z" fill="#3C53C9"/><path d="M264 320.6l-69.1-39.8 1.6-1 69 40-1.6.8z" fill="#5F74EA"/><path d="M262.8 321.3l-69-39.9 1-.6 69.1 39.8-1.1.7z" fill="#3C53C9"/><path d="M261.3 322.2l-69-39.9 1.5-.9 69 39.9-1.5.9z" fill="#5F74EA"/><path d="M260.1 322.9l-69-40 1.1-.6 69 39.9-1.1.7z" fill="#3C53C9"/><path d="M258.6 323.8l-69-40 1.5-.8 69 39.9-1.5.9z" fill="#5F74EA"/><path d="M257.4 324.4l-69-39.9 1.1-.6 69 39.9-1.1.6z" fill="#3C53C9"/><path d="M255.9 325.3l-69-39.9 1.5-.9 69 39.9-1.5.9z" fill="#5F74EA"/><path d="M254.7 326l-69-40 1.1-.6 69 39.9-1 .7z" fill="#3C53C9"/><path d="M253.2 326.9l-69-40 1.5-.8 69 39.9-1.5.9z" fill="#5F74EA"/><path d="M252 327.5l-69-39.8 1.1-.7 69 39.9-1 .6z" fill="#3C53C9"/><path d="M250.5 328.4l-69-39.8 1.5-1 69 40-1.5.8z" fill="#5F74EA"/><path d="M249.3 329l-69-39.8 1.1-.6 69 39.8-1 .7z" fill="#3C53C9"/><path d="M247.8 330l-69-39.9 1.5-.9 69 39.9-1.5.9z" fill="#5F74EA"/><path d="M246.6 330.6l-69-39.8 1.1-.7 69 39.9-1 .6z" fill="#3C53C9"/><path d="M245 331.5l-69-39.8 1.6-1 69 40-1.5.8z" fill="#5F74EA"/><path d="M244 332.2l-69.1-39.9 1.1-.6 69 39.8-1 .7z" fill="#3C53C9"/><path d="M242.4 333l-69-39.8 1.5-.9 69 39.9-1.5.9z" fill="#5F74EA"/><path d="M241.2 333.8l-69-40 1.1-.6 69 39.9-1 .7z" fill="#3C53C9"/><path d="M239.7 334.6l-69-39.8 1.5-1 69 40-1.5.8z" fill="#5F74EA"/><path d="M238.5 335.3l-69-39.9 1.2-.6 69 39.8-1.2.7z" fill="#3C53C9"/><path d="M237 336.2l-69-39.9 1.5-.9 69 40-1.5.8z" fill="#5F74EA"/><path d="M235.8 336.9l-69-40 1.2-.6 69 39.9-1.2.7z" fill="#3C53C9"/><path d="M234.3 337.8l-69-40 1.5-.8 69 39.9-1.5.9z" fill="#5F74EA"/><path d="M233.2 338.4l-69-39.8 1-.7 69 39.9-1 .6z" fill="#3C53C9"/><path d="M231.6 339.3l-69-39.9 1.5-.8 69 39.8-1.5 1z" fill="#5F74EA"/><path d="M230.5 340l-69-39.9 1-.7 69.1 40-1.1.6z" fill="#3C53C9"/><path d="M229 340.9L159.8 301l1.5-.9 69 39.9-1.5.9z" fill="#5F74EA"/><path d="M227.8 341.5l-69-39.8 1-.7 69.2 40-1.1.6z" fill="#3C53C9"/><path d="M226.2 342.4l-69-39.8 1.5-1 69 40-1.5.8z" fill="#5F74EA"/><path d="M225 343l-69-39.8 1.2-.6 69 39.8-1.1.7z" fill="#3C53C9"/><path d="M223.5 344l-69-39.9 1.5-.9 69 39.9-1.5.9z" fill="#5F74EA"/><path d="M222.4 344.6l-69-39.8 1-.7 69.1 39.9-1.1.6z" fill="#3C53C9"/><path d="M220.8 345.5l-69-39.8 1.5-1 69 40-1.5.8z" fill="#5F74EA"/><path d="M219.7 346.2l-69-39.9 1-.6 69.1 39.8-1.1.7z" fill="#3C53C9"/><path d="M218.1 347l-69-39.8 1.5-.9 69 39.9-1.5.9z" fill="#5F74EA"/><path d="M217 347.8l-69-40 1.1-.6 69 39.9-1.1.7z" fill="#3C53C9"/><path d="M215.4 348.7l-69-40 1.5-.8 69 39.9-1.5.9z" fill="#5F74EA"/><path d="M214.3 349.3l-69-39.9 1-.6 69.1 39.9-1.1.6z" fill="#3C53C9"/><path d="M212.7 350.2l-69-39.9 1.6-.9 69 40-1.6.8z" fill="#5F74EA"/><path d="M211.6 350.9l-69-40 1.1-.6 69 40-1.1.6z" fill="#3C53C9"/><path d="M210 351.8l-69-40 1.6-.8 69 39.9-1.5.9z" fill="#5F74EA"/><path d="M208.9 352.4l-69-39.8 1.1-.7 69 39.9-1.1.6z" fill="#3C53C9"/><path opacity=".5" d="M239.8 332.1a63.9 63.9 0 01-57.8 0c-16-9.2-16-24.2 0-33.4a64 64 0 0157.8 0c16 9.2 16 24.2 0 33.4z" fill="#09185E"/><path d="M242 290.6c-17.2-10-45-10-62.1 0-8.5 4.9-12.8 11.3-12.9 17.7h3c.1-6 4-12 12-16.5a64 64 0 0157.8 0c7.9 4.5 11.9 10.5 12 16.3 1-.6 2 0 3 .1-.1-6.3-4.3-12.7-12.8-17.6z" fill="#7990FC"/><path opacity=".6" d="M249.7 323l-28.1-2.8.3-1.5v-.5l28.2-3.6c.5-.8.7-1.7.7-2.6.2-2-1.3-3.4-4.1-2.8l-24.9 7c0-.6-.2-1.2-.5-1.7l23.2-12.6a32.5 32.5 0 00-9.1-5.4 8.7 8.7 0 00-5 2.5l-11.8 13c-.7-.5-1.5-.8-2.3-1l10.6-17.3c-4.5-1.1-9.1-1.7-13.8-1.9-2.4 1-4.6 2.6-6.4 4.5v1.3l3.2 12.8-1.2.1-4-18.4c-4.7.4-9.3 1.3-13.8 2.7-1.6 1.2-3 2.5-4.3 4l-1.9-1.6a32.1 32.1 0 00-7 4.3 39.5 39.5 0 00-3.4 7.3l-1.6-.5c-.5 2.6-.8 5.4-.8 8.1 0 2.9.4 5.7 1.4 8.4a25 25 0 003.9 4l2.2-.6c1 1.6 2.1 3 3.4 4.4 3.7 2 7.7 3.5 11.7 4.5l2.3-2.4c1.5 1.5 3.3 2.8 5.2 3.8 4.5.6 9 .7 13.6.4l-3.6-14.2 2.4-.3 3.2 6.9c.9 2 2.4 3.5 4.2 4.4 1.4.7 3 1.3 4.4 1.6 3.4-.8 6.7-1.9 9.9-3.3l-18-10.7c.3 0 .5-.2.8-.3l1.6-1.2L240 327c2 .6 4.3.7 6.4.2 1.3-1.3 2.4-2.7 3.3-4.2z" fill="#0B196D"/><path d="M209.6 315.1l-6-28.2c-7.2.8-17.4 7.4-19.3 13.3l25.3 15z" fill="#111E72"/><path d="M208.3 315.9l-25.9-22.3c-5 3.1-9.8 14-9.8 18.8l35.7 3.5z" fill="#111E72"/><path d="M208 316.6l-35.8-10.7c-.8 4-2.2 14.1 3.4 20l32.5-9.3z" fill="#111E72"/><path d="M208.9 317.4l-32 2c.4 5.8 8.7 14.4 15.1 16.5l16.9-18.5z" fill="#111E72"/><path d="M210.5 317.8l-16 11.1c3.3 6 13.9 10.2 21.2 9.6l-5.2-20.7z" fill="#111E72"/><path d="M209.6 314l-6-28.3c-7.2.8-17.4 7.4-19.3 13.2l25.3 15z" fill="url(#paint13_linear)"/><path d="M208.3 314.6l-25.9-22.2c-5 3-9.8 14-9.8 18.7l35.7 3.5z" fill="url(#paint14_linear)"/><path d="M208 315.7L172.3 305c-.8 4.2-2.2 14.1 3.4 20l32.5-9.3z" fill="url(#paint15_linear)"/><path d="M211.4 315l16-26.4a22.2 22.2 0 00-21.2 5.7l5.2 20.7z" fill="#111E72"/><path d="M227.4 288.6v-1.2l-16 26.4v1.2l16-26.4zm-21.2 4.4v1.3l5.2 20.7v-1.2l-4.4-19.2-.8-1.6z" fill="#242993"/><path d="M211.4 313.8l16-26.5a22.2 22.2 0 00-21.2 5.7l5.2 20.8z" fill="url(#paint16_linear)"/><path d="M213 315.4l32-17.4c-3.5-3.7-10.6-5.7-15.2-1.1L213 315.4z" fill="#111E72"/><path d="M245 298v-1.2l-12 3.4-20 14v1.3l32-17.4z" fill="#242993"/><path d="M213 314.2l32-17.4c-3.5-3.6-10.6-5.7-15.2-1L213 314.1z" fill="url(#paint17_linear)"/><path d="M213.8 316l35.8-4.7c1.6-2.8.2-5.3-3.4-4.6l-32.4 9.2z" fill="#242993"/><path d="M213.8 315.1l35.8-4.6c1.6-2.9.2-5.3-3.4-4.6l-32.4 9.2z" fill="url(#paint18_linear)"/><path d="M220.6 313a6.9 6.9 0 00-2.3-1.9 16.4 16.4 0 00-14.8 0c-.9.5-1.6 1.1-2.2 2h-.9v5.1a5.2 5.2 0 003.1 4.3 16.4 16.4 0 0014.8 0 5.2 5.2 0 003-4.3V313h-.7z" fill="#2D36AD"/><path opacity=".6" d="M214.2 321.9v2c.3 0 .6 0 1-.2.3 0 .4-2 .4-2l-1.4.2z" fill="#0B196D"/><path d="M212.2 317.6l5 10.4c.8 2 2.3 3.5 4.2 4.5a18 18 0 0016.2 0l-25.4-14.9z" fill="#111E72"/><path d="M208.9 316.6l-32 2c.4 5.8 8.7 14.4 15.1 16.5l16.9-18.5z" fill="url(#paint19_linear)"/><path d="M210.5 317l-16 11.1c3.3 6 13.9 10.2 21.2 9.6l-5.2-20.7z" fill="url(#paint20_linear)"/><path d="M212.2 316.9l4.7 9.9c1.1 2.4 3 4.4 5.5 5.4a17.8 17.8 0 0015.1-.3l-25.3-15z" fill="url(#paint21_linear)"/><path opacity=".6" d="M220.4 318.6v2.2l.7-1.2c.2-.3.3-.7.2-1h-1z" fill="#0B196D"/><path d="M213.5 316.7l26 7c5.5 1.5 9.3-.1 9.7-3.4l-35.7-3.6z" fill="#111E72"/><path d="M213.5 316.2l26 6.9c5.5 1.5 9.3-.1 9.7-3.4l-35.7-3.5z" fill="url(#paint22_linear)"/><path d="M218.3 317.4a16.3 16.3 0 01-14.8 0c-4-2.3-4-6 0-8.5a16.4 16.4 0 0114.8 0c4.1 2.2 4.1 6 0 8.5z" fill="#4149C7"/><path d="M217.8 316.6a15.2 15.2 0 01-13.8 0c-3.8-2.2-3.8-5.8 0-8a15.2 15.2 0 0113.8 0c3.8 2.2 3.8 5.8 0 8z" fill="#7990FC"/><path d="M214 314.3a6.6 6.6 0 01-6 0 1.8 1.8 0 01-1-2.8c.2-.3.6-.5 1-.6a6.6 6.6 0 016 0 1.8 1.8 0 010 3.4z" fill="#4149C7"/><path d="M208 311.3a6.5 6.5 0 016 0 2.2 2.2 0 011.2 1.5 2 2 0 00-1.2-2 6.6 6.6 0 00-6 0 2 2 0 00-1.2 2 2.2 2.2 0 011.2-1.5z" fill="#2D36AD"/><path d="M254.8 308.3l-2.8 6.1-4.6 6.3-4.5 4-10.2 4.8-13.8 3.2-10.6.3-12.4-1.6-11-3.4-7.7-4.5-7.2-7v-.7h-.2l-2.8-7.4v7.9c.4 6 4.7 12.1 12.8 16.8 17.1 10 45 10 62.1 0 7.9-4.5 12.2-10.3 12.8-16.3v-3.6l.1-4.9z" fill="#2D36AD"/><path d="M251.8 308.2c.2 6-3.8 12.3-12 17a63.9 63.9 0 01-57.8 0c-8.1-4.7-12.2-10.8-12-17h-3c0 6.7 4.2 13.2 12.9 18.3 17.1 9.9 45 9.9 62 0 8.8-5 13-11.6 13-18.2-1-.2-2-.7-3-.1z" fill="#7990FC"/><path d="M211 332.4a59.3 59.3 0 01-29.1-6.9c-8-4.5-12.2-10.6-12.2-17.1 0-6.5 4.4-12.2 12.2-16.8 16-9.2 42-9.2 58 0 7.7 4.5 12 10.4 12.3 16.6.2 6.3-4 12.8-12.2 17.3-9 4.8-19 7.1-29 7zm0-47.2a59 59 0 00-28.8 6.8c-7.6 4.4-11.8 10.2-11.9 16.3 0 6.1 4 12.2 11.9 16.7a63.7 63.7 0 0057.5 0c7.8-4.5 12-10.5 11.8-16.8-.1-6.3-4.3-11.8-11.8-16.1a59 59 0 00-28.8-7z" fill="#2D36AD"/><path opacity=".3" d="M283.1 299.6c-11 .2-21.8-2.4-31.4-7.6-8.7-5-13.4-11.6-13.2-18.7 0-7.2 4.8-13.4 13.1-18.3 17.4-10 45.6-10 63 0 8.4 4.8 13 11.2 13.2 18.1.2 7.2-4.5 13.9-13.2 19a64.5 64.5 0 01-31.5 7.5zm0-51a63.2 63.2 0 00-30.8 7.4c-8 4.7-12.6 10.8-12.7 17.3 0 6.5 4.4 13 12.7 17.7 17 9.9 44.7 9.9 61.7 0 8.3-4.7 12.8-11.1 12.7-17.8-.2-6.7-4.7-12.6-12.7-17.2-9.5-5-20.1-7.6-30.9-7.3z" fill="#0B196D"/><path d="M324.6 265.1v-5l-6.6-7.7-7.6-4.3-11.3-4.4-11.2-1.4h-13.3L262 245l-8.5 3.5-7 5-5.7 9.3v4a15.4 15.4 0 00-1.6 7.2h3c0-2 .3-3.9 1-5.7l27.2-17.3 2.3-.4 18.9 2.2 17.3 5 13.1 8.4c1.6 2.7 2.3 5.8 2 9h3c.3-3.6-.5-7.1-2.4-10.1z" fill="url(#paint23_linear)"/><path d="M347 272.5l-69-39.9 1.5-.9 69 39.9-1.5.9z" fill="#5F74EA"/><path d="M345.8 273.1l-69-39.8 1.1-.7 69 39.9-1 .6z" fill="#3C53C9"/><path d="M344.3 274l-69-39.8 1.5-1 69 40-1.5.8z" fill="#5F74EA"/><path d="M343.1 274.7l-69-39.9 1.1-.6 69 39.8-1 .7z" fill="#3C53C9"/><path d="M341.6 275.6l-69-39.9 1.5-.9 69 40-1.5.8z" fill="#5F74EA"/><path d="M340.4 276.3l-69-39.9 1.1-.7 69 40-1 .6z" fill="#3C53C9"/><path d="M338.9 277.1l-69-39.8 1.5-.9 69 39.9-1.5.8z" fill="#5F74EA"/><path d="M337.7 277.8l-69-39.8 1.1-.7 69 39.9-1 .6z" fill="#3C53C9"/><path d="M336.2 278.7l-69-39.9 1.5-.8 69 39.8-1.5 1z" fill="#5F74EA"/><path d="M335 279.4l-69-39.9 1.1-.7 69 40-1 .6z" fill="#3C53C9"/><path d="M333.5 280.3l-69-39.9 1.5-.9 69 39.9-1.5.9z" fill="#5F74EA"/><path d="M332.3 281l-69-40 1.1-.6 69 39.9-1 .6z" fill="#3C53C9"/><path d="M330.8 281.8l-69-39.8 1.5-1 69 40-1.5.8z" fill="#5F74EA"/><path d="M329.6 282.5l-69-39.9 1.1-.6 69 39.8-1 .7z" fill="#3C53C9"/><path d="M328 283.4l-69-39.9 1.6-.9 69 39.9-1.5.9z" fill="#5F74EA"/><path d="M327 284l-69-39.8 1-.7 69 39.9-1 .6z" fill="#3C53C9"/><path d="M325.4 285l-69-40 1.5-.8 69 39.8-1.5 1z" fill="#5F74EA"/><path d="M324.2 285.6l-69-39.9 1.2-.6 69 39.8-1.2.7z" fill="#3C53C9"/><path d="M322.7 286.5l-69-39.9 1.5-.9 69 39.9-1.5.9z" fill="#5F74EA"/><path d="M321.5 287.2l-69-40 1.2-.6 69 39.9-1.2.7z" fill="#3C53C9"/><path d="M320 288l-69-39.8 1.5-1 69 40-1.5.9z" fill="#5F74EA"/><path d="M318.9 288.7l-69-39.9 1-.6L320 288l-1.1.6z" fill="#3C53C9"/><path d="M317.3 289.6l-69-39.9 1.5-.9 69 40-1.5.8z" fill="#5F74EA"/><path d="M316.2 290.3l-69-39.9 1-.7 69.1 40-1.1.6z" fill="#3C53C9"/><path d="M314.6 291.2l-69-39.9 1.5-.9 69 39.9-1.5.9z" fill="#5F74EA"/><path d="M313.5 291.8l-69-39.8 1-.7 69.1 39.9-1.1.6z" fill="#3C53C9"/><path d="M312 292.7L242.8 253l1.5-1 69 40-1.5.8z" fill="#5F74EA"/><path d="M310.8 293.4l-69-39.9 1-.6 69.1 39.8-1.1.7z" fill="#3C53C9"/><path d="M309.2 294.3l-69-39.9 1.5-.9 69 39.9-1.5.9z" fill="#5F74EA"/><path d="M308 295l-69-40 1.2-.6 69 39.9-1.1.6z" fill="#3C53C9"/><path d="M306.5 295.8l-69-39.8 1.5-1 69 40-1.5.8z" fill="#5F74EA"/><path d="M305.4 296.5l-69-39.9 1.1-.6 69 39.8-1.1.7z" fill="#3C53C9"/><path d="M303.8 297.4l-69-39.9 1.5-.9 69 39.9-1.5.9z" fill="#5F74EA"/><path d="M302.7 298l-69-39.8 1.1-.7 69 39.9-1.1.7z" fill="#3C53C9"/><path d="M301.1 299l-69-40 1.5-.8 69 39.9-1.5.8z" fill="#5F74EA"/><path d="M300 299.6l-69-39.8 1.1-.7 69 39.8-1.1.7z" fill="#3C53C9"/><path d="M298.4 300.5l-69-39.9 1.6-.8 69 39.8-1.6.9z" fill="#5F74EA"/><path d="M297.3 301.2l-69-39.9 1.1-.7 69 39.9-1.1.7z" fill="#3C53C9"/><path d="M295.8 302l-69-39.8 1.5-.9 69 39.9-1.5.9z" fill="#5F74EA"/><path d="M294.6 302.7l-69-39.8 1.1-.7 69 39.9-1.1.6z" fill="#3C53C9"/><path d="M293 303.6l-69-39.8 1.6-1 69 40-1.5.8z" fill="#5F74EA"/><path d="M292 304.3l-69.1-39.9 1.1-.6 69 39.8-1 .7z" fill="#3C53C9"/><path d="M290.4 305.2l-69-39.9 1.5-.9 69 39.9-1.5.9z" fill="#5F74EA"/><path d="M289.2 305.8l-69-39.8 1.1-.7 69 39.9-1 .6z" fill="#3C53C9"/><path d="M287.7 306.7l-69-39.8 1.5-1 69 40-1.5.8z" fill="#5F74EA"/><path d="M286.5 307.4l-69-39.9 1.1-.6 69 39.8-1 .7z" fill="#3C53C9"/><path d="M285 308.3l-69-39.9 1.5-.9 69 39.9-1.5.9z" fill="#5F74EA"/><path d="M283.8 309l-69-40 1.1-.6 69 39.9-1 .7z" fill="#3C53C9"/><path d="M282.3 309.9l-69-40 1.5-.8 69 39.9-1.5.9z" fill="#5F74EA"/><path d="M281.1 310.5l-69-39.9 1.1-.6 69 39.9-1 .6z" fill="#3C53C9"/><path opacity=".5" d="M312 290.2a63.9 63.9 0 01-57.8 0c-16-9.2-16-24.2 0-33.4a64 64 0 0157.9 0c16 9.2 16 24.2 0 33.4z" fill="#09185E"/><path d="M314.2 248.7a68.7 68.7 0 00-62.1 0c-8.5 4.9-12.8 11.3-12.9 17.7h3c.1-6 4.1-12 12-16.5a64 64 0 0157.9 0c7.8 4.5 11.8 10.4 12 16.4 1-.6 2 0 3 .1-.1-6.4-4.4-12.8-12.9-17.7z" fill="#7990FC"/><path opacity=".6" d="M322 281l-28.2-2.7.4-1.5v-.5l28.2-3.6c.4-.8.7-1.7.6-2.6.2-2-1.3-3.4-4-2.8l-25 7a4 4 0 00-.5-1.7l23.2-12.6a32.6 32.6 0 00-9.2-5.4 8.9 8.9 0 00-5 2.5l-11.8 13c-.7-.5-1.5-.8-2.2-1l10.5-17.4c-4.5-1-9.1-1.6-13.7-1.8-2.5 1-4.7 2.6-6.5 4.5v1.3l3.2 12.8-1.2.1-4-18.4c-4.7.4-9.3 1.3-13.8 2.7a24 24 0 00-4.2 4l-2-1.6a44.1 44.1 0 00-7 4.3 38.8 38.8 0 00-3.4 7.3l-1.6-.5c-.6 2.6-.9 5.4-.9 8.1 0 2.9.4 5.7 1.4 8.4 1.2 1.5 2.5 2.9 4 4l2.1-.6c1 1.6 2.2 3 3.4 4.4 3.8 2 7.9 3.4 12 4.4l2.3-2.5c1.6 1.6 3.3 2.9 5.3 3.9 4.5.5 9 .7 13.6.4l-3.6-14.3c.8 0 1.6 0 2.4-.2l3.2 6.9a9.4 9.4 0 004.2 4.4c1.4.7 2.9 1.2 4.4 1.5 3.4-.7 6.7-1.8 9.8-3.3l-18-10.6.8-.4c.6-.3 1-.7 1.6-1.2l19.5 5.2c2 .7 4.3.7 6.4.2 1.2-1.2 2.3-2.6 3.2-4z" fill="#0B196D"/><path d="M281.8 273.2l-6-28.2c-7.2.8-17.4 7.4-19.2 13.2l25.2 15z" fill="#111E72"/><path d="M280.6 274l-26-22.4c-4.9 3-9.7 14-9.7 18.7l35.7 3.7z" fill="#111E72"/><path d="M280.3 274.7L244.5 264c-.9 4-2.2 14 3.4 20l32.4-9.3z" fill="#111E72"/><path d="M281.1 275.5l-32 2c.5 5.8 8.7 14.4 15.2 16.5l16.8-18.5z" fill="#111E72"/><path d="M282.7 275.9l-16 11c3.3 6 13.9 10.2 21.2 9.6l-5.2-20.6z" fill="#111E72"/><path d="M281.8 272l-6-28.3c-7.2.8-17.4 7.4-19.2 13.3l25.2 15z" fill="url(#paint24_linear)"/><path d="M280.6 272.7l-26-22.2c-4.8 3-9.7 14-9.7 18.7l35.7 3.5z" fill="url(#paint25_linear)"/><path d="M280.3 273.7l-35.8-10.6c-.9 4-2.2 14 3.4 19.9l32.4-9.3z" fill="url(#paint26_linear)"/><path d="M283.6 273l16-26.4a22.2 22.2 0 00-21.2 5.7l5.2 20.8z" fill="#111E72"/><path d="M299.6 246.7v-1.3l-16 26.4v1.3l16-26.4zm-21.2 4.4v1.3l5.2 20.7v-1.3l-4.4-19.1-.8-1.6z" fill="#242993"/><path d="M283.6 271.8l16-26.4a22.2 22.2 0 00-21.2 5.7l5.2 20.7z" fill="url(#paint27_linear)"/><path d="M285.2 273.5l32-17.3c-3.5-3.7-10.6-5.8-15.2-1.2l-16.8 18.5z" fill="#111E72"/><path d="M317.2 256.2v-1.3l-12 3.4-20 14v1.2l32-17.3z" fill="#242993"/><path d="M285.2 272.3l32-17.4c-3.5-3.6-10.6-5.7-15.2-1.1l-16.8 18.5z" fill="url(#paint28_linear)"/><path d="M286 274l35.7-4.6c1.7-2.9.3-5.4-3.3-4.6L286 274z" fill="#242993"/><path d="M286 273.2l35.7-4.6c1.7-2.8.3-5.3-3.3-4.6l-32.4 9.2z" fill="url(#paint29_linear)"/><path d="M292.8 271.1a7.3 7.3 0 00-2.2-1.9 16.2 16.2 0 00-14.9 0 7 7 0 00-2.2 2h-.8v5.1a5.2 5.2 0 003 4.3 16.4 16.4 0 0014.9 0 5.2 5.2 0 003-4.3v-5.2h-.8z" fill="#2D36AD"/><path opacity=".6" d="M286.5 280v2l.9-.2c.3-.1.4-2 .4-2l-1.3.2z" fill="#0B196D"/><path d="M284.5 275.7l4.9 10.4a9.4 9.4 0 004.2 4.4 18 18 0 0016.2.1l-25.3-15z" fill="#111E72"/><path d="M281.1 274.7l-32 2c.5 5.8 8.7 14.4 15.2 16.5l16.8-18.5z" fill="url(#paint30_linear)"/><path d="M282.7 275.1l-16 11.1c3.3 6 13.9 10.2 21.2 9.6l-5.2-20.7z" fill="url(#paint31_linear)"/><path d="M284.5 275l4.7 9.9a11 11 0 005.6 5.5 17.9 17.9 0 0015-.4l-25.3-15z" fill="url(#paint32_linear)"/><path opacity=".6" d="M292.6 276.8v2.2l.8-1.2.2-1h-1z" fill="#0B196D"/><path d="M285.7 274.7l25.9 7c5.6 1.6 9.4 0 9.8-3.4l-35.7-3.6z" fill="#111E72"/><path d="M285.7 274.2l25.9 7c5.6 1.5 9.4-.1 9.8-3.4l-35.7-3.6z" fill="url(#paint33_linear)"/><path d="M290.6 275.4a16.4 16.4 0 01-14.9 0c-4-2.4-4-6.2 0-8.6a16.3 16.3 0 0114.9 0c4 2.4 4 6.2 0 8.6z" fill="#4149C7"/><path d="M290 274.7a15.2 15.2 0 01-13.7 0c-3.8-2.2-3.8-5.7 0-8a15.3 15.3 0 0113.7 0c3.8 2.2 3.8 5.8 0 8z" fill="#7990FC"/><path d="M286.1 272.4a6.6 6.6 0 01-6 0 1.8 1.8 0 010-3.4 6.5 6.5 0 016 0 1.8 1.8 0 010 3.4z" fill="#4149C7"/><path d="M280.2 269.4a6.6 6.6 0 016 0 2.2 2.2 0 011.2 1.5 2 2 0 00-1.1-2 6.5 6.5 0 00-6.1 0 2 2 0 00-1.3 2 2.3 2.3 0 011.3-1.5z" fill="#2D36AD"/><path d="M327 266.4l-2.8 6.1-4.6 6.3-4.5 4-10.2 4.8-13.6 3.4-10.6.3-12.4-1.6-11.1-3.3-7.6-4.6-7.3-7v-.8h-.2l-2.9-7.4v7.9c.5 6 4.7 12.2 12.8 16.8 17.2 10 45 10 62.1 0 7.9-4.5 12.2-10.3 12.8-16.2v-3.7l.2-5z" fill="#2D36AD"/><path d="M324 266.3c.2 6-3.8 12.3-12 17a64 64 0 01-57.8 0c-8.1-4.7-12-10.8-12-17h-3c0 6.6 4.2 13.2 12.9 18.2 17.1 10 45 10 62.1 0 8.7-5 13-11.6 12.9-18.1-1-.2-2-.7-3-.1z" fill="#7990FC"/><path d="M283.1 290.5a59.5 59.5 0 01-29-7c-8-4.5-12.2-10.6-12.2-17.1 0-6.5 4.4-12.2 12.2-16.7 16-9.3 42-9.3 58.1 0 7.7 4.4 12 10.3 12.2 16.5.2 6.3-4 12.7-12.2 17.4-9 4.7-19 7-29 6.9zm0-47.3c-10-.2-19.9 2.2-28.7 7-7.6 4.3-11.8 10.1-11.9 16.2 0 6.1 4 12.2 11.9 16.7a63.7 63.7 0 0057.5 0c7.8-4.5 12-10.5 11.9-16.8-.2-6.3-4.4-11.8-11.9-16.1a58.7 58.7 0 00-28.8-7z" fill="#2D36AD"/><path opacity=".3" d="M355.4 257.6c-11 .3-21.8-2.3-31.5-7.5-8.6-5-13.3-11.6-13.2-18.7.1-7.2 4.8-13.5 13.2-18.3 17.4-10 45.6-10 63 0 8.3 4.8 13 11.2 13.2 18 .2 7-4.5 14-13.2 19a64.2 64.2 0 01-31.5 7.5zm0-50.9a63.2 63.2 0 00-30.9 7.4c-8.1 4.6-12.5 10.8-12.6 17.3-.1 6.5 4.4 13 12.6 17.7 17 9.9 44.7 9.9 61.8 0 8.3-4.8 12.8-11.1 12.6-17.8-.1-6.8-4.6-12.6-12.6-17.2-9.5-5-20.2-7.6-31-7.4h.1z" fill="#0B196D"/><path d="M397 223.2v-5l-6.7-7.7-7.6-4.3-11.4-4.4-11.1-1.5h-13.4l-12.6 2.7-8.4 3.5-7 5-5.7 9.4v4c-1.1 2.2-1.6 4.7-1.5 7.1h3c0-1.9.3-3.8 1-5.6l27.2-17.3 2.3-.4 18.8 2.2 17.3 5 13.2 8.3c1.6 2.7 2.2 5.9 1.9 9h3c.4-3.5-.5-7-2.4-10z" fill="url(#paint34_linear)"/><path d="M419.2 230.6l-69-39.9 1.5-.9 69 39.9-1.5.9z" fill="#5F74EA"/><path d="M418 231.2l-69-39.8 1.2-.7 69 39.9-1.2.6z" fill="#3C53C9"/><path d="M416.5 232.1l-69-39.8 1.5-1 69 40-1.5.8z" fill="#5F74EA"/><path d="M415.3 232.8l-69-39.9 1.2-.6 69 39.8-1.2.7z" fill="#3C53C9"/><path d="M413.8 233.7l-69-39.9 1.5-.9 69 39.9-1.5.9z" fill="#5F74EA"/><path d="M412.7 234.3l-69-39.8 1-.7 69.1 39.9-1.1.6z" fill="#3C53C9"/><path d="M411.1 235.2l-69-39.8 1.5-1 69 40-1.5.8z" fill="#5F74EA"/><path d="M410 236l-69-40 1-.6 69.1 39.8-1.1.7z" fill="#3C53C9"/><path d="M408.4 236.8l-69-39.9 1.5-.9 69 40-1.5.8z" fill="#5F74EA"/><path d="M407.3 237.5l-69-40 1-.6 69.1 40-1.1.6z" fill="#3C53C9"/><path d="M405.7 238.3l-69-39.8 1.5-1 69 40-1.5.8z" fill="#5F74EA"/><path d="M404.6 239l-69-39.9 1-.6 69.1 39.8-1.1.7z" fill="#3C53C9"/><path d="M403 240l-69-40 1.5-.9 69 40-1.5.8z" fill="#5F74EA"/><path d="M401.9 240.6l-69-39.9 1-.7 69.1 40-1.1.6z" fill="#3C53C9"/><path d="M400.3 241.5l-69-40 1.5-.8 69 39.9-1.5.9z" fill="#5F74EA"/><path d="M399.2 242.1l-69-39.8 1-.7 69.1 39.9-1.1.6z" fill="#3C53C9"/><path d="M397.6 243l-69-39.9 1.5-.8 69 39.8-1.5 1z" fill="#5F74EA"/><path d="M396.5 243.7l-69-39.9 1.1-.7 69 40-1.1.6z" fill="#3C53C9"/><path d="M395 244.6l-69.1-39.9 1.5-.9 69 39.9-1.5.9z" fill="#5F74EA"/><path d="M393.8 245.2l-69-39.8 1-.7 69.1 39.9-1.1.6z" fill="#3C53C9"/><path d="M392.2 246.1l-69-39.8 1.6-1 69 40-1.6.8z" fill="#5F74EA"/><path d="M391.1 246.8l-69-39.9 1.1-.6 69 39.8-1.1.7z" fill="#3C53C9"/><path d="M389.6 247.7l-69-39.9 1.5-.9 69 39.9-1.5.9z" fill="#5F74EA"/><path d="M388.4 248.3l-69-39.8 1.1-.7 69 39.9-1.1.7z" fill="#3C53C9"/><path d="M386.9 249.2l-69-39.8 1.5-1 69 40-1.5.8z" fill="#5F74EA"/><path d="M385.7 250l-69-40 1.1-.6 69 39.8-1 .7z" fill="#3C53C9"/><path d="M384.1 250.8l-69-39.9 1.6-.9 69 40-1.6.8z" fill="#5F74EA"/><path d="M383 251.5l-69-39.9 1.1-.7 69 40-1 .6z" fill="#3C53C9"/><path d="M381.5 252.4l-69-39.9 1.5-.9 69 39.9-1.5.9z" fill="#5F74EA"/><path d="M380.3 253l-69-39.9 1.1-.6 69 39.9-1 .6z" fill="#3C53C9"/><path d="M378.8 254l-69-40 1.5-.9 69 40-1.5.8z" fill="#5F74EA"/><path d="M377.6 254.6l-69-39.9 1.1-.7 69 40-1 .6z" fill="#3C53C9"/><path d="M376 255.5l-69-39.9 1.6-.9 69 39.9-1.5.9z" fill="#5F74EA"/><path d="M375 256.1l-69.1-39.8 1.1-.7 69 39.9-1 .6z" fill="#3C53C9"/><path d="M373.4 257l-69-39.8 1.5-1 69 40-1.5.8z" fill="#5F74EA"/><path d="M372.2 257.7l-69-39.9 1.1-.6 69 39.8-1 .7z" fill="#3C53C9"/><path d="M370.7 258.6l-69-39.9 1.5-.9 69 39.9-1.5.9z" fill="#5F74EA"/><path d="M369.5 259.2l-69-39.8 1.2-.7 69 39.9-1.2.6z" fill="#3C53C9"/><path d="M368 260.1l-69-39.8 1.5-1 69 40-1.5.8z" fill="#5F74EA"/><path d="M366.8 260.8l-69-39.9 1.2-.6 69 39.8-1.2.7z" fill="#3C53C9"/><path d="M365.3 261.7l-69-39.9 1.5-.9 69 40-1.5.8z" fill="#5F74EA"/><path d="M364.1 262.4l-69-39.9 1.1-.7 69 39.9-1 .7z" fill="#3C53C9"/><path d="M362.6 263.2l-69-39.8 1.5-.9 69 39.9-1.5.8z" fill="#5F74EA"/><path d="M361.5 264l-69-40 1-.6 69 39.8-1 .7z" fill="#3C53C9"/><path d="M360 264.8L290.8 225l1.5-.9 69 40-1.5.8z" fill="#5F74EA"/><path d="M358.8 265.5l-69-39.9 1-.7 69.1 40-1.1.6z" fill="#3C53C9"/><path d="M357.2 266.4l-69-39.9 1.5-.9 69 39.9-1.5.9z" fill="#5F74EA"/><path d="M356 267l-69-39.8 1.2-.7 69 39.9-1.1.6z" fill="#3C53C9"/><path d="M354.5 268l-69-40 1.5-.8 69 39.8-1.5 1z" fill="#5F74EA"/><path d="M353.4 268.6l-69-39.9 1-.7 69.1 40-1.1.6z" fill="#3C53C9"/><path opacity=".5" d="M384.3 248.3a63.9 63.9 0 01-57.8 0c-16-9.2-16-24.2 0-33.4s41.8-9.2 57.8 0 16 24.1 0 33.4z" fill="#09185E"/><path d="M386.4 206.7a68.7 68.7 0 00-62 0c-8.5 5-12.8 11.3-13 17.7h3c.2-6 4.1-11.9 12-16.4a64 64 0 0158 0c7.8 4.5 11.7 10.4 11.9 16.2 1-.5 2 0 3 .2-.1-6.4-4.4-12.7-12.9-17.7z" fill="#7990FC"/><path opacity=".6" d="M394.1 239.1l-28-2.7.3-1.5v-.5l28.2-3.7c.5-.7.7-1.7.6-2.6.3-2-1.2-3.3-4-2.8l-24.8 7.1c0-.6-.2-1.2-.5-1.8l23.1-12.5a31 31 0 00-9.1-5.5 8.9 8.9 0 00-5 2.6L363 228l-2.3-1 10.6-17.3c-4.5-1-9.1-1.7-13.7-1.8-2.5 1-4.7 2.5-6.5 4.5v1.3l3.2 12.7-1.2.2-4-18.5c-4.7.4-9.3 1.4-13.8 2.8-1.6 1.1-3 2.5-4.2 4l-2-1.6a35.5 35.5 0 00-7 4.2 39.3 39.3 0 00-3.5 7.3l-1.6-.5c-.5 2.7-.8 5.4-.8 8.2 0 2.8.4 5.7 1.4 8.4 1.1 1.5 2.4 2.8 4 4l2.1-.6c1 1.6 2.1 3 3.4 4.4 3.7 2 7.7 3.5 11.7 4.4l2.3-2.4a22 22 0 005.2 3.9c4.5.5 9.1.7 13.6.4l-3.5-14.2c.7 0 1.5 0 2.3-.2l3.2 6.8a9.4 9.4 0 004.2 4.5c1.4.7 3 1.2 4.4 1.5 3.4-.8 6.7-1.9 9.9-3.3l-18-10.7.7-.3 1.6-1.2 19.5 5.2c2 .7 4.3.7 6.4.2a21 21 0 003.4-4.3z" fill="#0B196D"/><path d="M354 231.3l-6-28.3c-7.1.9-17.4 7.5-19.2 13.3l25.3 15z" fill="#111E72"/><path d="M352.8 232l-26-22.2c-4.9 3-9.7 14-9.7 18.7l35.7 3.5z" fill="#111E72"/><path d="M352.5 232.7l-35.8-10.6c-.9 4-2.2 14 3.4 19.9l32.4-9.3z" fill="#111E72"/><path d="M353.3 233.6l-32 2c.5 5.8 8.7 14.4 15.2 16.5l16.8-18.5z" fill="#111E72"/><path d="M355 234l-16.1 11c3.4 6 14 10.2 21.3 9.7l-5.3-20.7z" fill="#111E72"/><path d="M354 230l-6-28.2c-7.1.8-17.4 7.4-19.2 13.3l25.3 15z" fill="url(#paint35_linear)"/><path d="M352.8 230.8l-26-22.2c-4.9 3-9.7 14-9.7 18.7l35.7 3.5z" fill="url(#paint36_linear)"/><path d="M352.5 231.8l-35.8-10.6c-.9 4-2.2 14 3.4 19.9l32.4-9.3z" fill="url(#paint37_linear)"/><path d="M355.8 231.1l16-26.4a22.2 22.2 0 00-21.2 5.7l5.2 20.7z" fill="#111E72"/><path d="M371.9 204.8v-1.3l-16 26.4v1.2l16-26.3zm-21.3 4.4v1.2l5.2 20.7V230l-4.4-19.2-.8-1.5z" fill="#242993"/><path d="M355.8 230l16-26.4a22.2 22.2 0 00-21.2 5.7l5.2 20.7z" fill="url(#paint38_linear)"/><path d="M357.4 231.6l32-17.4c-3.4-3.6-10.5-5.7-15.1-1.1l-16.9 18.5z" fill="#111E72"/><path d="M389.5 214.2V213l-12 3.4-20 14v1.2l32-17.4z" fill="#242993"/><path d="M357.4 230.4l32-17.4c-3.4-3.7-10.5-5.7-15.1-1.2l-16.9 18.6z" fill="url(#paint39_linear)"/><path d="M358.3 232l35.8-4.6c1.7-2.9.2-5.3-3.3-4.6l-32.5 9.2z" fill="#242993"/><path d="M358.3 231.3l35.8-4.6c1.7-2.9.2-5.4-3.3-4.7l-32.5 9.3z" fill="url(#paint40_linear)"/><path d="M365 229.2a7 7 0 00-2.2-2 16.4 16.4 0 00-14.8 0c-.9.5-1.7 1.2-2.3 2h-.8v5.2a5.2 5.2 0 003 4.3 16.4 16.4 0 0014.9 0 5.2 5.2 0 003-4.3v-5.2h-.8z" fill="#2D36AD"/><path opacity=".6" d="M358.7 238.1v2l.9-.1c.4-.1.4-2 .4-2l-1.3.1z" fill="#0B196D"/><path d="M356.7 233.8l5 10.4c.8 1.9 2.3 3.4 4.1 4.4a18 18 0 0016.3.1l-25.4-15z" fill="#111E72"/><path d="M353.3 232.7l-32 2c.5 5.8 8.7 14.4 15.2 16.5l16.8-18.5z" fill="url(#paint41_linear)"/><path d="M355 233.2l-16.1 11c3.3 6 14 10.2 21.3 9.6l-5.3-20.6z" fill="url(#paint42_linear)"/><path d="M356.7 233l4.7 10c1 2.4 3 4.3 5.5 5.4a17.9 17.9 0 0015-.4l-25.2-15z" fill="url(#paint43_linear)"/><path opacity=".6" d="M364.8 234.7v2.3l.8-1.3c.2-.3.2-.6.2-1h-1z" fill="#0B196D"/><path d="M358 232.9l25.9 7c5.6 1.4 9.3-.2 9.8-3.5L358 233z" fill="#111E72"/><path d="M358 232.3l25.9 7c5.6 1.5 9.3-.2 9.8-3.5l-35.7-3.5z" fill="url(#paint44_linear)"/><path d="M362.8 233.5a16.4 16.4 0 01-14.8 0c-4-2.4-4-6.1 0-8.6a16.4 16.4 0 0114.8 0c4 2.4 4 6.2 0 8.6z" fill="#4149C7"/><path d="M362.3 232.7a15.3 15.3 0 01-13.8 0c-3.8-2.2-3.8-5.7 0-8a15.2 15.2 0 0113.8 0c3.8 2.3 3.8 5.8 0 8z" fill="#7990FC"/><path d="M358.3 230.5a6.6 6.6 0 01-6 0 1.8 1.8 0 010-3.5 6.6 6.6 0 016 0 1.8 1.8 0 011 2.8c-.3.3-.6.6-1 .7z" fill="#4149C7"/><path d="M352.4 227.5a6.6 6.6 0 016 0 2.2 2.2 0 011.2 1.5 2 2 0 00-1.2-2 6.6 6.6 0 00-6 0 2 2 0 00-1.2 2 2.3 2.3 0 011.2-1.5z" fill="#2D36AD"/><path d="M399.3 224.5l-2.8 6-4.7 6.4-4.5 4-10.1 4.7-13.8 3.2-10.6.4-12.4-1.7-11-3.3-7.7-4.4-7.1-7v-.7h-.3l-2.8-7.4v7.9c.5 6 4.7 12.2 12.8 16.8 17.2 10 45 10 62.1 0 7.9-4.5 12.1-10.3 12.8-16.3v-3.6l.1-5z" fill="#2D36AD"/><path d="M396.3 224.3c.1 6.1-3.8 12.4-12 17a63.9 63.9 0 01-57.8 0c-8.2-4.6-12.2-10.7-12-16.9h-3c-.1 6.6 4.2 13.2 12.8 18.2 17.2 10 45 10 62.1 0 8.7-5 13-11.6 13-18.1-1.1-.2-2.1-.7-3.1-.2z" fill="#7990FC"/><path d="M355.4 248.6a59.3 59.3 0 01-29-7c-8-4.6-12.3-10.6-12.3-17.2 0-6.5 4.4-12.1 12.2-16.7 16-9.2 42.1-9.2 58.2 0 7.6 4.4 11.9 10.3 12.1 16.6.3 6.3-4 12.7-12.1 17.3-9 4.8-19 7.2-29.1 7zm0-47.3c-10-.2-20 2.2-28.8 7-7.5 4.3-11.7 10-11.8 16.2-.1 6 4 12.2 11.8 16.7a63.7 63.7 0 0057.6 0c7.7-4.5 12-10.5 11.8-16.8-.2-6.4-4.4-11.9-11.8-16.2-8.9-4.7-18.8-7-28.8-6.9z" fill="#2D36AD"/><path d="M200.8 369l-77.4-44.8-2 1.2 77.4 44.7 2-1.1z" fill="#7990FC"/><path d="M125.7 351.5h-.2a2.3 2.3 0 01-1-1.9v-13.5c0-.7.5-1 1-.7h.2a2.3 2.3 0 011 1.8v13.5c0 .8-.5 1-1 .8zm4.1 2.3h-.2a2.3 2.3 0 01-1-1.8v-13.5c0-.7.5-1 1-.8h.2a2.3 2.3 0 011 1.9V353c0 .7-.5 1-1 .7zm4 2.4h-.1a2.3 2.3 0 01-1-1.9v-13.5c0-.7.5-1 1-.7h.1a2.3 2.3 0 011 1.8v13.6c0 .7-.4 1-1 .7zm4.1 2.3h-.1a2.3 2.3 0 01-1-1.8v-13.6c0-.6.4-1 1-.7h.1a2.3 2.3 0 011 1.9v13.5c0 .7-.5 1-1 .7zm4.1 2.4h-.2a2.3 2.3 0 01-1-1.9v-13.5c0-.7.5-1 1-.7h.2a2.3 2.3 0 011 1.8v13.5c0 .8-.5 1-1 .8zm4 2.3a2.3 2.3 0 01-1-1.8v-13.5c0-.8.4-1 1-.8a2.3 2.3 0 011 1.9v13.5c0 .7-.4 1-1 .7zm4.1 2.4h-.1a2.3 2.3 0 01-1-1.8v-13.6c0-.7.4-1 1-.7h.1a2.3 2.3 0 011 1.8V365c0 .7-.5 1-1 .7z" fill="#242993"/><path d="M126.4 351h-.2a2.3 2.3 0 01-1-1.9v-13.9c-.3-.1-.6.2-.6.8v13.6a2.3 2.3 0 001 1.8c.5.3.9 0 1-.4h-.2zm4.1 2.3h-.2a2.3 2.3 0 01-1-1.8v-13.8c-.4 0-.7.2-.7.8V352a2.4 2.4 0 001 1.8h.1a.6.6 0 00.6 0 .6.6 0 00.3-.4h-.1zm4 2.4h-.1a2.3 2.3 0 01-1-1.9V340c-.4-.1-.7.2-.7.8v13.5a2.3 2.3 0 001 1.9h.1a.6.6 0 00.6 0 .6.6 0 00.3-.4l-.2-.1zm4.1 2.3h-.1a2.3 2.3 0 01-1-1.8v-13.8c-.4-.1-.7.2-.7.8v13.5a2.3 2.3 0 001 1.9.6.6 0 00.8.2.6.6 0 00.3-.7h-.3zm4.1 2.4h-.2a2.3 2.3 0 01-1-1.8v-13.9c-.4 0-.7.2-.7.8v13.6a2.3 2.3 0 001 1.8h.1a.6.6 0 00.6 0 .6.6 0 00.4-.4l-.2-.1zm4 2.3h-.1a2.3 2.3 0 01-1-1.8V347c-.4 0-.7.3-.7.9v13.5a2.3 2.3 0 001 1.8h.1a.6.6 0 00.6 0 .6.6 0 00.3-.4h-.2zm4.1 2.3h-.1a2.3 2.3 0 01-1-1.8v-13.8c-.4-.1-.7.2-.7.8v13.6a2.3 2.3 0 001 1.8l.4.1h.3a.6.6 0 00.3-.5l-.2-.1z" fill="#404FCE"/><path d="M164.2 373.7h-.2a2.3 2.3 0 01-1-1.9v-13.5c0-.7.5-1 1-.7h.2a2.3 2.3 0 011 1.8v13.5c0 .8-.5 1-1 .8zm4 2.3h-.1a2.3 2.3 0 01-1-1.9v-13.5c0-.7.4-1 1-.8h.1a2.3 2.3 0 011 1.9v13.5c0 .8-.5 1.2-1 .8zm4.1 2.4h-.2a2.3 2.3 0 01-1-1.8V363c0-.7.5-1 1-.7h.2a2.3 2.3 0 011 1.8v13.6c0 .7-.5 1-1 .7zm4.1 2.3h-.2a2.3 2.3 0 01-1-1.8v-13.6c0-.7.5-1 1-.7h.2a2.3 2.3 0 011 1.9V380c0 .7-.5 1-1 .7zm4 2.3h-.1a2.3 2.3 0 01-1-1.8v-13.6c0-.7.5-1 1-.7h.1a2.3 2.3 0 011 1.8v13.8c0 .5-.4.9-1 .6zm4.1 2.4h-.1a2.3 2.3 0 01-1-1.8V370c0-.7.4-1 1-.7a2.3 2.3 0 011 1.9v13.5c0 .7-.4 1-1 .7zm4.1 2.4h-.2a2.3 2.3 0 01-1-1.9v-13.6c0-.7.5-1 1-.7h.2a2.3 2.3 0 011 1.8v13.5c0 .9-.5 1.2-1 .9z" fill="#242993"/><path d="M164.8 373.2h-.1a2.3 2.3 0 01-1-1.9v-13.8c-.4 0-.7.2-.7.8v13.5a2.3 2.3 0 001 1.9h.1a.6.6 0 001-.5h-.3zm4.2 2.3h-.2a2.3 2.3 0 01-1-1.8v-14c-.4-.1-.7.2-.7.8V374a2.4 2.4 0 001 1.9.6.6 0 00.7 0 .6.6 0 00.3-.4l-.2-.1zm4 2.4h-.2a2.2 2.2 0 01-1-1.9v-13.8c-.3-.1-.7.2-.7.8v13.5a2.3 2.3 0 001 1.9h.4a.6.6 0 00.7-.4l-.2-.1zm4 2.3a2.3 2.3 0 01-1-1.8v-13.9c-.4 0-.8.2-.8.8V379a2.3 2.3 0 001 1.8h.1l.3.1a.6.6 0 00.6-.2v-.3h-.1zm4.1 2.4l-.1-.1a2.3 2.3 0 01-1-1.9v-13.8c-.4-.1-.7.2-.7.8v13.6a2.3 2.3 0 001 1.8l.4.1h.3l.2-.2.1-.3h-.2zm4.1 2.4h-.2a2.3 2.3 0 01-1-2v-13.8c-.3 0-.6.2-.6.9v13.5a2.3 2.3 0 001 1.8l.3.1a.6.6 0 00.7-.5h-.2zm4.1 2.3h-.2a2.3 2.3 0 01-1-1.9v-13.7c-.3-.1-.7.2-.7.8V386a2.3 2.3 0 001 1.9h.4a.6.6 0 00.7-.4l-.2-.1z" fill="#404FCE"/><path d="M255.4 369.5h.2a2.3 2.3 0 001-1.8v-7c0-.7-.5-1-1-.7h-.2a2.3 2.3 0 00-1 1.8v7c0 .7.5 1 1 .7zm-4.1 2.4h.2a2.4 2.4 0 001-1.8v-7c0-.7-.5-1-1-.8h-.2a2.3 2.3 0 00-1 1.9v7c0 .7.5 1 1 .7zm-4 2.4h.1a2.3 2.3 0 001-1.8v-7c0-.7-.4-1-1-.7h-.1a2.3 2.3 0 00-1 1.8v7c0 .7.5 1 1 .7zm-4.1 2.3h.2a2.3 2.3 0 001-1.8v-7c0-.8-.5-1-1-.8h-.2a2.3 2.3 0 00-1 1.9v7c0 .7.5 1 1 .7zm-4 2.4a2.3 2.3 0 001-1.9v-7c0-.7-.4-1-1-.7a2.3 2.3 0 00-1 1.8v7c0 .7.4 1 1 .7zm-4.2 2.3h.2a2.3 2.3 0 001-1.8v-7.2c0-.7-.5-1-1-.7h-.1a2.3 2.3 0 00-1 1.8v7c0 .9.4 1.2 1 .9zm-4 2.4h.1a2.3 2.3 0 001-1.9v-7c0-.8-.4-1.1-1-.8a2.3 2.3 0 00-1 1.8v7c0 .8.4 1.2 1 .9z" fill="#16237D"/><path d="M254.7 369h.1a2.3 2.3 0 001-1.8v-7.4c.4-.1.7.2.7.8v7a2.3 2.3 0 01-1 1.8c-.5.3-.9 0-1-.4h.2zm-4.1 2.4h.2a2.4 2.4 0 001-1.9v-7.3c.3 0 .7.3.7.9v7a2.3 2.3 0 01-1 1.8h-.2a.6.6 0 01-.5 0 .6.6 0 01-.4-.4l.2-.1zm-4 2.3h.1a2.3 2.3 0 001-1.8v-7.3c.4 0 .7.2.7.8v6.9a2.3 2.3 0 01-1 1.8h-.1a.5.5 0 01-.6.1.5.5 0 01-.3-.5h.2zm-4.1 2.3h.1a2.3 2.3 0 001-1.7v-7.4c.4 0 .7.2.7.9v7a2.3 2.3 0 01-1 1.8c-.5.3-.9 0-1-.4l.2-.1zm-4.1 2.4h.2a2.3 2.3 0 001-1.9v-7.3c.4 0 .7.2.7.9v7a2.3 2.3 0 01-1 1.8h-.1l-.3.1a.6.6 0 01-.5-.2l-.1-.3.1-.1zm-4 2.4h.1a2.3 2.3 0 001-1.8v-7.4c.4 0 .7.3.7.9v7a2.3 2.3 0 01-1 1.8h-.1a.6.6 0 01-.6 0 .6.6 0 01-.3-.4l.2-.1zm-4.1 2.3h.2a2.3 2.3 0 001-1.8V374c.3 0 .6.2.6.8v7a2.3 2.3 0 01-1 1.9.6.6 0 01-.6 0 .6.6 0 01-.4-.5h.2z" fill="#404FCE"/><path d="M305.5 340.6h.1a2.3 2.3 0 001-1.8v-7.2c0-.7-.4-1-1-.7h-.1a2.3 2.3 0 00-1 1.8v7c0 .9.4 1.2 1 1zm-4.1 2.4l.2-.1a2.3 2.3 0 001-1.8v-7c0-.8-.5-1-1-.8h-.2a2.3 2.3 0 00-1 1.9v7c0 .8.5 1 1 .8zm-4 2.3h.1a2.2 2.2 0 001-1.8v-7c0-.7-.4-1-1-.8h-.1a2.3 2.3 0 00-1 1.8v7c0 .8.4 1.1 1 .8zm-4.1 2.4h.1a2.3 2.3 0 001-1.9v-7c0-.8-.4-1-1-.8h-.1a2.3 2.3 0 00-1 1.9v7c0 .8.4 1 1 .8zm-4.1 2.3h.2a2.3 2.3 0 001-1.9v-7c0-.7-.5-1-1-.7h-.2a2.3 2.3 0 00-1 1.8v7c0 .7.4 1.1 1 .7zm-4 2.4h.1a2.3 2.3 0 001-1.9v-7c0-.7-.5-1-1-.7h-.1a2.3 2.3 0 00-1 1.8v7c0 .8.4 1 1 .8zm-4.1 2.3h.2a2.3 2.3 0 001-1.8v-7c0-.7-.5-1-1-.8h-.2a2.3 2.3 0 00-1 1.9v7c0 .7.4 1 1 .7z" fill="#16237D"/><path d="M304.8 340.1h.1a2.3 2.3 0 001-1.8V331c.4 0 .7.2.7.8v7a2.3 2.3 0 01-1 1.8h-.1l-.3.1h-.3a.6.6 0 01-.3-.5h.2zm-4.1 2.4l.1-.1a2.3 2.3 0 001-1.9v-7.3c.4 0 .7.2.7.9v7a2.3 2.3 0 01-1 1.8.6.6 0 01-.7 0 .6.6 0 01-.3-.4h.2zm-4.1 2.3h.2a2.3 2.3 0 001-1.8v-7.3c.3-.1.6.2.6.8v7a2.2 2.2 0 01-1 1.8.6.6 0 01-.7 0 .6.6 0 01-.3-.4h.2zm-4.1 2.4h.2a2.3 2.3 0 001-1.9V338c.4 0 .7.2.7.8v7a2.3 2.3 0 01-1 1.9h-.1a.6.6 0 01-1-.4l.2-.1zm-4 2.3h.1a2.3 2.3 0 001-1.8v-7.3c.4-.1.7.2.7.8v7a2.3 2.3 0 01-1 1.8.6.6 0 01-.7.1.6.6 0 01-.3-.5h.2zm-4.1 2.5h.1a2.3 2.3 0 001-1.9v-7.3c.4 0 .8.2.8.8v7a2.3 2.3 0 01-1 1.9h-.1a.6.6 0 01-1-.4l.2-.1zm-4.1 2.2h.2a2.3 2.3 0 001-1.8v-7.3c.3 0 .6.2.6.8v7a2.3 2.3 0 01-1 1.8l-.3.1h-.3l-.3-.2v-.3h.1z" fill="#404FCE"/><path d="M355.5 311.7h.1a2.3 2.3 0 001-1.8v-7.1c0-.7-.5-1-1-.8h-.1a2.3 2.3 0 00-1 1.9v7c0 .8.4 1.1 1 .8zm-4.1 2.3h.2a2.3 2.3 0 001-1.8v-7c0-.7-.5-1-1-.7h-.2a2.3 2.3 0 00-1 1.8v7c0 .7.5 1 1 .8zm-4.1 2.4h.2a2.3 2.3 0 001-1.8v-7c0-.8-.5-1-1-.8l-.2.1a2.3 2.3 0 00-1 1.9v7c0 .6.5.9 1 .6zm-4 2.4h.1a2.3 2.3 0 001-1.9v-7c0-.7-.4-1-1-.7h-.1a2.3 2.3 0 00-1 1.8v7c0 .7.4 1 1 .8zm-4.1 2.2h.1a2.3 2.3 0 001-1.7v-7c0-.7-.4-1-1-.8h-.1a2.3 2.3 0 00-1 1.9v7c0 .7.5 1 1 .7zm-4.1 2.5h.2a2.3 2.3 0 001-1.8v-7c0-.7-.5-1-1-.8h-.2a2.3 2.3 0 00-1 1.9v7c0 .7.5 1 1 .7zm-4.1 2.3h.2a2.3 2.3 0 001-1.8v-7c0-.7-.5-1-1-.8h-.1a2.3 2.3 0 00-1 1.9v7c0 .7.4 1 1 .7z" fill="#16237D"/><path d="M354.8 311.2h.1a2.3 2.3 0 001-1.8V302c.4 0 .7.3.7.9v7a2.3 2.3 0 01-1 1.8h-.1a.6.6 0 01-1-.4l.3-.1zm-4.1 2.4h.2a2.3 2.3 0 001-1.9v-7.4c.3-.1.7.2.7.8v7a2.4 2.4 0 01-1 1.9h-.1a.6.6 0 01-.9-.2v-.2h.1zm-4 2.3h.1a2.3 2.3 0 001-1.8v-7.4c.4 0 .7.3.7.9v7a2.3 2.3 0 01-1 1.8h-.1a.6.6 0 01-.8-.1l-.1-.3.2-.1zm-4.1 2.3h.1a2.3 2.3 0 001-1.8V309c.4-.1.7.2.7.8v7a2.3 2.3 0 01-1 1.8h-.1a.6.6 0 01-.6.1.6.6 0 01-.3-.5h.2zm-4.1 2.4h.2a2.3 2.3 0 001-1.8v-7.3c.3-.1.6.2.6.8v7a2.3 2.3 0 01-1 1.8.6.6 0 01-.6.1.6.6 0 01-.4-.5l.2-.1zm-4.1 2.4h.2a2.3 2.3 0 001-1.9v-7.3c.4-.1.7.2.7.8v6.9a2.3 2.3 0 01-1 1.8h-.1a.6.6 0 01-.8-.1l-.1-.3h.1zm-4 2.3h.1a2.3 2.3 0 001-1.8v-7.3c.4-.1.7.2.7.8v7a2.3 2.3 0 01-1 1.8c-.5.3-.9 0-1-.4l.2-.1z" fill="#404FCE"/><path d="M405.5 282.9h.2a2.3 2.3 0 001-1.9v-7c0-.7-.5-1-1-.7h-.2a2.3 2.3 0 00-1 1.8v7c0 .8.6 1 1 .8zm-4.1 2.2h.2a2.3 2.3 0 001-1.8v-7c0-.7-.5-1-1-.7h-.2a2.3 2.3 0 00-1 1.8v7c0 .7.6 1 1 .7zm-4 2.4h.1a2.3 2.3 0 001-1.9v-7c0-.7-.5-1-1-.7h-.1a2.4 2.4 0 00-1 1.9v7c0 .7.5 1 1 .7zm-4.1 2.3h.2a2.3 2.3 0 001-1.8v-7.2c0-.7-.5-1-1-.7h-.2a2.3 2.3 0 00-1 1.8v7c0 1 .6 1.2 1 1zm-4.1 2.4h.2a2.3 2.3 0 001-1.9v-7c0-.7-.5-1-1-.7h-.2a2.3 2.3 0 00-1 1.8v7c0 .7.6 1 1 .8zm-4 2.3h.1a2.3 2.3 0 001-1.8v-7c0-.7-.5-1-1-.7h-.1a2.3 2.3 0 00-1 1.8v7c0 .7.5 1 1 .7zm-4.1 2.4h.1a2.3 2.3 0 001-1.8v-7c0-.8-.4-1-1-.8h-.1a2.3 2.3 0 00-1 1.8v7c0 .8.6 1 1 .8z" fill="#16237D"/><path d="M404.8 282.3h.2a2.3 2.3 0 001-1.9v-7.3c.3 0 .7.2.7.8v7a2.3 2.3 0 01-1 1.8h-.1a.6.6 0 01-.6 0 .6.6 0 01-.4-.5h.2zm-4.1 2.3h.2a2.3 2.3 0 001-1.8v-7.3c.4 0 .7.2.7.8v7a2.3 2.3 0 01-1 1.8l-.1.1-.3.1a.6.6 0 01-.7-.5l.2-.2zm-4 2.4h.1a2.3 2.3 0 001-1.9v-7.3c.4 0 .7.2.7.8v7a2.3 2.3 0 01-1 1.8.6.6 0 01-.7.1.6.6 0 01-.3-.5h.2zm-4.1 2.3h.2a2.3 2.3 0 001-1.8v-7.3c.3 0 .6.2.6.8v7a2.3 2.3 0 01-.9 1.8h-.1c-.5.3-.9 0-1-.4h.2zm-4.1 2.4l.2-.1a2.3 2.3 0 001-1.8v-7.4c.3 0 .7.3.7.8v7a2.4 2.4 0 01-1 2h-.7l-.3-.2v-.3h.1zm-4 2.3h.1a2.3 2.3 0 001-1.8v-7.5c.4 0 .7.2.7.8v7a2.3 2.3 0 01-1 1.8.6.6 0 01-1 0v-.4h.2zm-4.1 2.4h.2a2.3 2.3 0 001-1.9v-7.3c.3 0 .6.2.6.8v7a2.3 2.3 0 01-1 1.9.6.6 0 01-.6 0 .6.6 0 01-.4-.4l.2-.1z" fill="#404FCE"/><path d="M183 391l-15.2-8.8a.6.6 0 00-.6 0l-8 4.6 16.5 13.4 8-4.7a.8.8 0 00.3-.7v-2a2.2 2.2 0 00-1-1.8z" fill="url(#paint45_linear)"/><path d="M175 400.1l-15.2-8.8a2.2 2.2 0 01-1-1.8v-2c0-.7.5-1 1-.7l15.3 8.8a2.2 2.2 0 011 1.8v2c0 .7-.5 1-1 .7z" fill="#404FCE"/><path d="M172.6 397.8l-10.2-6a1.5 1.5 0 01-.6-1.1v-.9c0-.5.3-.7.6-.5l10.2 6a1.5 1.5 0 01.6 1.1v1c0 .4-.3.6-.6.4z" fill="#242993"/><path d="M189 398.7a4 4 0 00-2-3.2 1.3 1.3 0 00-1.2-.1l-5 2.9 2.5 4.5 5-2.9a1.4 1.4 0 00.6-1.2z" fill="url(#paint46_linear)"/><path d="M183.9 401.7c0 1.1-.8 1.6-1.9 1a4 4 0 01-1.8-3.2c0-1.2.8-1.6 1.8-1a4 4 0 011.9 3.2z" fill="#404FCE"/><path d="M183.3 401.3c0 .8-.6 1.2-1.3.7a2.7 2.7 0 01-1.2-2.1c0-.8.5-1.1 1.2-.8a2.8 2.8 0 011.3 2.2z" fill="#242993"/><path d="M163 383.2a4 4 0 00-1.8-3.2 1.3 1.3 0 00-1.3-.1l-5 2.9 2.5 4.5 5-2.9a1.3 1.3 0 00.6-1.2z" fill="url(#paint47_linear)"/><path d="M158 386.1c0 1.2-.9 1.7-1.9 1a4 4 0 01-1.8-3.1c0-1.2.8-1.7 1.8-1a4 4 0 011.9 3.1z" fill="#404FCE"/><path d="M157.4 385.8c0 .8-.6 1.1-1.3.7a2.7 2.7 0 01-1.2-2.2c0-.8.5-1.1 1.2-.7a2.8 2.8 0 011.3 2.2z" fill="#242993"/><path d="M144.3 368.6l-15.3-8.8a.6.6 0 00-.6 0l-8 4.6 16.5 13.4 8-4.6.2-.4.1-.4v-2a2.3 2.3 0 00-1-1.8z" fill="url(#paint48_linear)"/><path d="M136.3 377.7l-15.3-8.8a2.2 2.2 0 01-.9-1.8v-2c0-.7.4-1 1-.8l15.2 8.9a2.2 2.2 0 011 1.7v2c0 .8-.5 1-1 .8z" fill="#404FCE"/><path d="M133.8 375.4l-10.2-6a1.5 1.5 0 01-.6-1.1v-1c0-.4.3-.6.6-.4l10.2 6a1.5 1.5 0 01.6 1.1v.9c0 .5-.3.7-.6.5z" fill="#242993"/><path d="M150.1 376.4a4 4 0 00-1.8-3.3 1.2 1.2 0 00-1.3 0l-5 2.8 2.6 4.5 5-2.8a1.3 1.3 0 00.5-1.2z" fill="url(#paint49_linear)"/><path d="M145.1 379.2c0 1.2-.8 1.7-1.9 1.1a4 4 0 01-1.8-3.2c0-1.2.8-1.6 1.8-1a4 4 0 011.9 3.1z" fill="#404FCE"/><path d="M144.5 378.9c0 .8-.6 1.1-1.3.7a2.8 2.8 0 01-1.2-2.1c0-.9.5-1.2 1.2-.8a2.8 2.8 0 011.3 2.2z" fill="#242993"/><path d="M124.2 360.8a4 4 0 00-1.8-3.2 1.3 1.3 0 00-1.3-.1l-5.1 2.9 2.6 4.5 5-2.9a1.3 1.3 0 00.6-1.2z" fill="url(#paint50_linear)"/><path d="M119.2 363.7c0 1.2-.9 1.7-1.9 1a4 4 0 01-1.8-3.1c0-1.2.8-1.7 1.8-1.1a4 4 0 011.9 3.2z" fill="#404FCE"/><path d="M118.6 363.3c0 .9-.6 1.2-1.3.8a2.8 2.8 0 01-1.3-2.2c0-.8.6-1.1 1.3-.7a2.8 2.8 0 011.3 2.1z" fill="#242993"/><path d="M123.4 324.2l-2 1.2-11 1 2-1.1 11-1zM112 337.6l-1.7-1-.7 2 1 .6 1.3-1.6z" fill="#7990FC"/><path d="M103.8 340.4l-1 .6-6.5 3.7a4.2 4.2 0 00-1.9 3.3c0 1.2.9 1.7 2 1.1l4.5-2.6c1-.6 2-.1 2 1.1a4.3 4.3 0 01-2 3.3l-4.6 2.7a4.2 4.2 0 00-1.9 3.3c0 1.2.9 1.7 2 1.1l6.5-3.8 1-.5 6.5-3.8v-13.2l-6.6 3.7z" fill="#7990FC"/><path d="M96.6 350.2l-1.7-1 1.6-1 .1 2zm0 8.8l-1.7-.9 2.7-.5-1 1.5z" fill="#7990FC"/><path d="M105.5 341.3l-1 .6-6.6 3.7A4 4 0 0096 349c0 1.3.9 1.7 2 1.1l4.5-2.6c1-.6 2-.1 2 1.1a4.3 4.3 0 01-2 3.3l-4.6 2.7a4 4 0 00-1.9 3.3c0 1.2.9 1.7 2 1.1l6.4-3.8 1-.6 6.5-3.7v-13.3l-6.4 3.8z" fill="#2D36AD"/><defs><linearGradient id="paint0_linear" x1="184.2" y1="325.5" x2="186" y2="345.7" gradientUnits="userSpaceOnUse"><stop stop-color="#97A6FD"/><stop offset=".1" stop-color="#3DE6F1"/><stop offset=".3" stop-color="#30A2CB"/><stop offset=".6" stop-color="#266CAC"/><stop offset=".8" stop-color="#1E4596"/><stop offset=".9" stop-color="#1A2D89"/><stop offset="1" stop-color="#182484"/></linearGradient><linearGradient id="paint1_linear" x1="11211.6" y1="5535.8" x2="11444.7" y2="5616.1" gradientUnits="userSpaceOnUse"><stop stop-color="#97A6FD"/><stop offset=".1" stop-color="#97A6FD"/><stop offset=".3" stop-color="#30A2CB"/><stop offset=".6" stop-color="#266CAC"/><stop offset=".8" stop-color="#1E4596"/><stop offset=".9" stop-color="#1A2D89"/><stop offset="1" stop-color="#182484"/></linearGradient><linearGradient id="paint2_linear" x1="13609.4" y1="4615.9" x2="13859.3" y2="4417.8" gradientUnits="userSpaceOnUse"><stop stop-color="#97A6FD"/><stop offset=".1" stop-color="#3DE6F1"/><stop offset=".3" stop-color="#30A2CB"/><stop offset=".6" stop-color="#266CAC"/><stop offset=".8" stop-color="#1E4596"/><stop offset=".9" stop-color="#1A2D89"/><stop offset="1" stop-color="#182484"/></linearGradient><linearGradient id="paint3_linear" x1="19358.3" y1="2212" x2="19361.4" y2="2161.8" gradientUnits="userSpaceOnUse"><stop stop-color="#42FFFF"/><stop offset=".1" stop-color="#3DE6F1"/><stop offset=".3" stop-color="#30A2CB"/><stop offset=".6" stop-color="#266CAC"/><stop offset=".8" stop-color="#1E4596"/><stop offset=".9" stop-color="#1A2D89"/><stop offset="1" stop-color="#182484"/></linearGradient><linearGradient id="paint4_linear" x1="47724.1" y1="13302.8" x2="53410.9" y2="13302.8" gradientUnits="userSpaceOnUse"><stop stop-color="#97A6FD"/><stop offset=".1" stop-color="#97A6FD"/><stop offset=".3" stop-color="#30A2CB"/><stop offset=".6" stop-color="#266CAC"/><stop offset=".8" stop-color="#1E4596"/><stop offset=".9" stop-color="#1A2D89"/><stop offset="1" stop-color="#182484"/></linearGradient><linearGradient id="paint5_linear" x1="8445.8" y1="2802.6" x2="8834.7" y2="2802.6" gradientUnits="userSpaceOnUse"><stop stop-color="#97A6FD"/><stop offset=".1" stop-color="#97A6FD"/><stop offset=".3" stop-color="#30A2CB"/><stop offset=".6" stop-color="#266CAC"/><stop offset=".8" stop-color="#1E4596"/><stop offset=".9" stop-color="#1A2D89"/><stop offset="1" stop-color="#182484"/></linearGradient><linearGradient id="paint6_linear" x1="117580" y1="29479" x2="135554" y2="47947.5" gradientUnits="userSpaceOnUse"><stop stop-color="#97A6FC"/><stop offset=".1" stop-color="#3DE6F1"/><stop offset=".3" stop-color="#30A2CB"/><stop offset=".6" stop-color="#266CAC"/><stop offset=".8" stop-color="#1E4596"/><stop offset=".9" stop-color="#1A2D89"/><stop offset="1" stop-color="#182484"/></linearGradient><linearGradient id="paint7_linear" x1="96212.6" y1="33088.4" x2="147771" y2="-22756.2" gradientUnits="userSpaceOnUse"><stop stop-color="#97A6FD"/><stop offset=".1" stop-color="#3DE6F1"/><stop offset=".3" stop-color="#30A2CB"/><stop offset=".6" stop-color="#266CAC"/><stop offset=".8" stop-color="#1E4596"/><stop offset=".9" stop-color="#1A2D89"/><stop offset="1" stop-color="#182484"/></linearGradient><linearGradient id="paint8_linear" x1="148252" y1="29931.8" x2="162226" y2="58324.7" gradientUnits="userSpaceOnUse"><stop stop-color="#2B3AA5"/><stop offset="1" stop-color="#182484"/></linearGradient><linearGradient id="paint9_linear" x1="119122" y1="32644.7" x2="174673" y2="3751.8" gradientUnits="userSpaceOnUse"><stop stop-color="#97A6FD"/><stop offset=".1" stop-color="#97A6FD"/><stop offset=".3" stop-color="#30A2CB"/><stop offset=".6" stop-color="#266CAC"/><stop offset=".8" stop-color="#1E4596"/><stop offset=".9" stop-color="#1A2D89"/><stop offset="1" stop-color="#182484"/></linearGradient><linearGradient id="paint10_linear" x1="115336" y1="27306.7" x2="131047" y2="41094.1" gradientUnits="userSpaceOnUse"><stop stop-color="#97A6FD"/><stop offset=".1" stop-color="#97A6FD"/><stop offset=".3" stop-color="#30A2CB"/><stop offset=".6" stop-color="#266CAC"/><stop offset=".8" stop-color="#1E4596"/><stop offset=".9" stop-color="#1A2D89"/><stop offset="1" stop-color="#182484"/></linearGradient><linearGradient id="paint11_linear" x1="117540" y1="31603.4" x2="123312" y2="46610.7" gradientUnits="userSpaceOnUse"><stop stop-color="#2B3AA5"/><stop offset="1" stop-color="#182484"/></linearGradient><linearGradient id="paint12_linear" x1="41623" y1="7486.8" x2="45421.2" y2="7486.8" gradientUnits="userSpaceOnUse"><stop stop-color="#2B3AA5"/><stop offset="1" stop-color="#182484"/></linearGradient><linearGradient id="paint13_linear" x1="12615.9" y1="6443.9" x2="12379" y2="6524.4" gradientUnits="userSpaceOnUse"><stop stop-color="#97A6FD"/><stop offset=".1" stop-color="#97A6FD"/><stop offset=".3" stop-color="#30A2CB"/><stop offset=".6" stop-color="#266CAC"/><stop offset=".8" stop-color="#1E4596"/><stop offset=".9" stop-color="#1A2D89"/><stop offset="1" stop-color="#182484"/></linearGradient><linearGradient id="paint14_linear" x1="17520.2" y1="5186" x2="17407.4" y2="5390.8" gradientUnits="userSpaceOnUse"><stop stop-color="#97A6FD"/><stop offset=".1" stop-color="#97A6FD"/><stop offset=".3" stop-color="#30A2CB"/><stop offset=".6" stop-color="#266CAC"/><stop offset=".8" stop-color="#1E4596"/><stop offset=".9" stop-color="#1A2D89"/><stop offset="1" stop-color="#182484"/></linearGradient><linearGradient id="paint15_linear" x1="191.5" y1="306.4" x2="183.8" y2="329" gradientUnits="userSpaceOnUse"><stop stop-color="#97A6FD"/><stop offset=".1" stop-color="#97A6FD"/><stop offset=".3" stop-color="#97A6FE"/><stop offset=".5" stop-color="#97A6FE"/><stop offset=".7" stop-color="#97A6FE"/><stop offset=".8" stop-color="#97A6FE"/><stop offset=".9" stop-color="#97A6FE"/></linearGradient><linearGradient id="paint16_linear" x1="10793.7" y1="6227.1" x2="10584" y2="6123.9" gradientUnits="userSpaceOnUse"><stop stop-color="#97A6FD"/><stop offset=".1" stop-color="#97A6FD"/><stop offset=".3" stop-color="#30A2CB"/><stop offset=".6" stop-color="#266CAC"/><stop offset=".8" stop-color="#1E4596"/><stop offset=".9" stop-color="#1A2D89"/><stop offset="1" stop-color="#182484"/></linearGradient><linearGradient id="paint17_linear" x1="16321.6" y1="4985.9" x2="16232.8" y2="4772.1" gradientUnits="userSpaceOnUse"><stop stop-color="#97A6FD"/><stop offset=".1" stop-color="#97A6FD"/><stop offset=".3" stop-color="#30A2CB"/><stop offset=".6" stop-color="#266CAC"/><stop offset=".8" stop-color="#1E4596"/><stop offset=".9" stop-color="#1A2D89"/><stop offset="1" stop-color="#182484"/></linearGradient><linearGradient id="paint18_linear" x1="18608.5" y1="2419.7" x2="18605.2" y2="2368.4" gradientUnits="userSpaceOnUse"><stop stop-color="#97A6FD"/><stop offset=".1" stop-color="#3DE6F1"/><stop offset=".3" stop-color="#30A2CB"/><stop offset=".6" stop-color="#266CAC"/><stop offset=".8" stop-color="#1E4596"/><stop offset=".9" stop-color="#1A2D89"/><stop offset="1" stop-color="#182484"/></linearGradient><linearGradient id="paint19_linear" x1="15703.6" y1="4511.9" x2="15712.6" y2="4683.4" gradientUnits="userSpaceOnUse"><stop stop-color="#97A6FD"/><stop offset=".1" stop-color="#97A6FD"/><stop offset=".3" stop-color="#30A2CB"/><stop offset=".6" stop-color="#266CAC"/><stop offset=".8" stop-color="#1E4596"/><stop offset=".9" stop-color="#1A2D89"/><stop offset="1" stop-color="#182484"/></linearGradient><linearGradient id="paint20_linear" x1="10550.7" y1="5086.3" x2="10753" y2="5155.6" gradientUnits="userSpaceOnUse"><stop stop-color="#97A6FD"/><stop offset=".1" stop-color="#3DE6F1"/><stop offset=".3" stop-color="#30A2CB"/><stop offset=".6" stop-color="#266CAC"/><stop offset=".8" stop-color="#1E4596"/><stop offset=".9" stop-color="#1A2D89"/><stop offset="1" stop-color="#182484"/></linearGradient><linearGradient id="paint21_linear" x1="12762.1" y1="4238.7" x2="12978.9" y2="4067.4" gradientUnits="userSpaceOnUse"><stop stop-color="#97A6FD"/><stop offset=".1" stop-color="#3DE6F1"/><stop offset=".3" stop-color="#30A2CB"/><stop offset=".6" stop-color="#266CAC"/><stop offset=".8" stop-color="#1E4596"/><stop offset=".9" stop-color="#1A2D89"/><stop offset="1" stop-color="#182484"/></linearGradient><linearGradient id="paint22_linear" x1="18160" y1="2045" x2="18162.7" y2="2001.4" gradientUnits="userSpaceOnUse"><stop stop-color="#97A6FD"/><stop offset=".1" stop-color="#3DE6F1"/><stop offset=".3" stop-color="#30A2CB"/><stop offset=".6" stop-color="#266CAC"/><stop offset=".8" stop-color="#1E4596"/><stop offset=".9" stop-color="#1A2D89"/><stop offset="1" stop-color="#182484"/></linearGradient><linearGradient id="paint23_linear" x1="44793.9" y1="6757.6" x2="48590" y2="6757.6" gradientUnits="userSpaceOnUse"><stop stop-color="#2B3AA5"/><stop offset="1" stop-color="#182484"/></linearGradient><linearGradient id="paint24_linear" x1="13586.8" y1="5819.5" x2="13349.8" y2="5900" gradientUnits="userSpaceOnUse"><stop stop-color="#97A6FD"/><stop offset=".1" stop-color="#3DE6F1"/><stop offset=".3" stop-color="#30A2CB"/><stop offset=".6" stop-color="#266CAC"/><stop offset=".8" stop-color="#1E4596"/><stop offset=".9" stop-color="#1A2D89"/><stop offset="1" stop-color="#182484"/></linearGradient><linearGradient id="paint25_linear" x1="18840.4" y1="4677.1" x2="18727.8" y2="4881.4" gradientUnits="userSpaceOnUse"><stop stop-color="#97A6FD"/><stop offset=".1" stop-color="#97A6FD"/><stop offset=".3" stop-color="#30A2CB"/><stop offset=".6" stop-color="#266CAC"/><stop offset=".8" stop-color="#1E4596"/><stop offset=".9" stop-color="#1A2D89"/><stop offset="1" stop-color="#182484"/></linearGradient><linearGradient id="paint26_linear" x1="19243.5" y1="4266.1" x2="19199.4" y2="4505.1" gradientUnits="userSpaceOnUse"><stop stop-color="#97A6FD"/><stop offset=".1" stop-color="#3DE6F1"/><stop offset=".3" stop-color="#30A2CB"/><stop offset=".5" stop-color="#266CAC"/><stop offset=".7" stop-color="#1E4596"/><stop offset=".8" stop-color="#1A2D89"/><stop offset=".9" stop-color="#182484"/></linearGradient><linearGradient id="paint27_linear" x1="11621.5" y1="5625.6" x2="11411.8" y2="5522.4" gradientUnits="userSpaceOnUse"><stop stop-color="#97A6FD"/><stop offset=".1" stop-color="#3DE6F1"/><stop offset=".3" stop-color="#30A2CB"/><stop offset=".6" stop-color="#266CAC"/><stop offset=".8" stop-color="#1E4596"/><stop offset=".9" stop-color="#1A2D89"/><stop offset="1" stop-color="#182484"/></linearGradient><linearGradient id="paint28_linear" x1="17533" y1="4504.2" x2="17444" y2="4290.4" gradientUnits="userSpaceOnUse"><stop stop-color="#97A6FD"/><stop offset=".1" stop-color="#3DE6F1"/><stop offset=".3" stop-color="#30A2CB"/><stop offset=".6" stop-color="#266CAC"/><stop offset=".8" stop-color="#1E4596"/><stop offset=".9" stop-color="#1A2D89"/><stop offset="1" stop-color="#182484"/></linearGradient><linearGradient id="paint29_linear" x1="19934.2" y1="2167.6" x2="19930.9" y2="2116.7" gradientUnits="userSpaceOnUse"><stop stop-color="#97A6FD"/><stop offset=".1" stop-color="#97A6FD"/><stop offset=".3" stop-color="#30A2CB"/><stop offset=".6" stop-color="#266CAC"/><stop offset=".8" stop-color="#1E4596"/><stop offset=".9" stop-color="#1A2D89"/><stop offset="1" stop-color="#182484"/></linearGradient><linearGradient id="paint30_linear" x1="16915" y1="4084.8" x2="16923.9" y2="4256" gradientUnits="userSpaceOnUse"><stop stop-color="#97A6FD"/><stop offset=".1" stop-color="#97A6FD"/><stop offset=".3" stop-color="#30A2CB"/><stop offset=".6" stop-color="#266CAC"/><stop offset=".8" stop-color="#1E4596"/><stop offset=".9" stop-color="#1A2D89"/><stop offset="1" stop-color="#182484"/></linearGradient><linearGradient id="paint31_linear" x1="11378.4" y1="4620.7" x2="11580.8" y2="4690.2" gradientUnits="userSpaceOnUse"><stop stop-color="#97A6FD"/><stop offset=".1" stop-color="#3DE6F1"/><stop offset=".3" stop-color="#30A2CB"/><stop offset=".6" stop-color="#266CAC"/><stop offset=".8" stop-color="#1E4596"/><stop offset=".9" stop-color="#1A2D89"/><stop offset="1" stop-color="#182484"/></linearGradient><linearGradient id="paint32_linear" x1="13787.4" y1="3858.2" x2="14005.1" y2="3686" gradientUnits="userSpaceOnUse"><stop stop-color="#97A6FD"/><stop offset=".1" stop-color="#97A6FD"/><stop offset=".3" stop-color="#30A2CB"/><stop offset=".6" stop-color="#266CAC"/><stop offset=".8" stop-color="#1E4596"/><stop offset=".9" stop-color="#1A2D89"/><stop offset="1" stop-color="#182484"/></linearGradient><linearGradient id="paint33_linear" x1="19468.6" y1="1850.5" x2="19471.3" y2="1806.7" gradientUnits="userSpaceOnUse"><stop stop-color="#97A6FD"/><stop offset=".1" stop-color="#3DE6F1"/><stop offset=".3" stop-color="#30A2CB"/><stop offset=".6" stop-color="#266CAC"/><stop offset=".8" stop-color="#1E4596"/><stop offset=".9" stop-color="#1A2D89"/><stop offset="1" stop-color="#182484"/></linearGradient><linearGradient id="paint34_linear" x1="47987" y1="6033.6" x2="51783" y2="6033.6" gradientUnits="userSpaceOnUse"><stop stop-color="#2B3AA5"/><stop offset="1" stop-color="#182484"/></linearGradient><linearGradient id="paint35_linear" x1="14557.6" y1="5194.7" x2="14320.6" y2="5275.2" gradientUnits="userSpaceOnUse"><stop stop-color="#97A6FD"/><stop offset=".1" stop-color="#97A6FD"/><stop offset=".3" stop-color="#30A2CB"/><stop offset=".6" stop-color="#266CAC"/><stop offset=".8" stop-color="#1E4596"/><stop offset=".9" stop-color="#1A2D89"/><stop offset="1" stop-color="#182484"/></linearGradient><linearGradient id="paint36_linear" x1="20202.9" y1="4180.5" x2="20090.4" y2="4385.2" gradientUnits="userSpaceOnUse"><stop stop-color="#97A6FD"/><stop offset=".1" stop-color="#97A6FD"/><stop offset=".3" stop-color="#30A2CB"/><stop offset=".6" stop-color="#266CAC"/><stop offset=".8" stop-color="#1E4596"/><stop offset=".9" stop-color="#1A2D89"/><stop offset="1" stop-color="#182484"/></linearGradient><linearGradient id="paint37_linear" x1="20649.9" y1="3813.4" x2="20605.9" y2="4052.3" gradientUnits="userSpaceOnUse"><stop stop-color="#97A6FD"/><stop offset=".1" stop-color="#97A6FD"/><stop offset=".3" stop-color="#97A6FD"/><stop offset=".5" stop-color="#97A6FD"/><stop offset=".7" stop-color="#97A6FD"/><stop offset=".8" stop-color="#97A6FD"/><stop offset=".9" stop-color="#97A6FD"/></linearGradient><linearGradient id="paint38_linear" x1="12449.2" y1="5024.3" x2="12239.5" y2="4921.1" gradientUnits="userSpaceOnUse"><stop stop-color="#97A6FD"/><stop offset=".1" stop-color="#3DE6F1"/><stop offset=".3" stop-color="#30A2CB"/><stop offset=".6" stop-color="#266CAC"/><stop offset=".8" stop-color="#1E4596"/><stop offset=".9" stop-color="#1A2D89"/><stop offset="1" stop-color="#182484"/></linearGradient><linearGradient id="paint39_linear" x1="18744.3" y1="4029.9" x2="18655.3" y2="3815.7" gradientUnits="userSpaceOnUse"><stop stop-color="#97A6FD"/><stop offset=".1" stop-color="#97A6FD"/><stop offset=".3" stop-color="#30A2CB"/><stop offset=".6" stop-color="#266CAC"/><stop offset=".8" stop-color="#1E4596"/><stop offset=".9" stop-color="#1A2D89"/><stop offset="1" stop-color="#182484"/></linearGradient><linearGradient id="paint40_linear" x1="21345.6" y1="1948.5" x2="21342.3" y2="1897.2" gradientUnits="userSpaceOnUse"><stop stop-color="#97A6FD"/><stop offset=".1" stop-color="#3DE6F1"/><stop offset=".3" stop-color="#30A2CB"/><stop offset=".6" stop-color="#266CAC"/><stop offset=".8" stop-color="#1E4596"/><stop offset=".9" stop-color="#1A2D89"/><stop offset="1" stop-color="#182484"/></linearGradient><linearGradient id="paint41_linear" x1="18126.2" y1="3666" x2="18135.2" y2="3837.3" gradientUnits="userSpaceOnUse"><stop stop-color="#97A6FE"/><stop offset=".1" stop-color="#97A6FD"/><stop offset=".3" stop-color="#30A2CB"/><stop offset=".6" stop-color="#266CAC"/><stop offset=".8" stop-color="#1E4596"/><stop offset=".9" stop-color="#1A2D89"/><stop offset="1" stop-color="#182484"/></linearGradient><linearGradient id="paint42_linear" x1="12206.3" y1="4135.1" x2="12408.5" y2="4204.9" gradientUnits="userSpaceOnUse"><stop stop-color="#97A6FD"/><stop offset=".1" stop-color="#3DE6F1"/><stop offset=".3" stop-color="#30A2CB"/><stop offset=".6" stop-color="#266CAC"/><stop offset=".8" stop-color="#1E4596"/><stop offset=".9" stop-color="#1A2D89"/><stop offset="1" stop-color="#182484"/></linearGradient><linearGradient id="paint43_linear" x1="14705" y1="3457.9" x2="14921.9" y2="3286.5" gradientUnits="userSpaceOnUse"><stop stop-color="#97A6FD"/><stop offset=".1" stop-color="#97A6FD"/><stop offset=".3" stop-color="#30A2CB"/><stop offset=".6" stop-color="#266CAC"/><stop offset=".8" stop-color="#1E4596"/><stop offset=".9" stop-color="#1A2D89"/><stop offset="1" stop-color="#182484"/></linearGradient><linearGradient id="paint44_linear" x1="20842.8" y1="1651.1" x2="20845.5" y2="1607.5" gradientUnits="userSpaceOnUse"><stop stop-color="#97A6FD"/><stop offset=".1" stop-color="#97A6FD"/><stop offset=".3" stop-color="#30A2CB"/><stop offset=".6" stop-color="#266CAC"/><stop offset=".8" stop-color="#1E4596"/><stop offset=".9" stop-color="#1A2D89"/><stop offset="1" stop-color="#182484"/></linearGradient><linearGradient id="paint45_linear" x1="11763.3" y1="5125" x2="12065.8" y2="5125" gradientUnits="userSpaceOnUse"><stop stop-color="#2B3AA5"/><stop offset="1" stop-color="#182484"/></linearGradient><linearGradient id="paint46_linear" x1="4121" y1="2415.6" x2="4154.4" y2="2415.6" gradientUnits="userSpaceOnUse"><stop stop-color="#2B3AA5"/><stop offset="1" stop-color="#182484"/></linearGradient><linearGradient id="paint47_linear" x1="3991" y1="2342.2" x2="4024.3" y2="2342.2" gradientUnits="userSpaceOnUse"><stop stop-color="#2B3AA5"/><stop offset="1" stop-color="#182484"/></linearGradient><linearGradient id="paint48_linear" x1="11250.4" y1="4918.2" x2="11552.8" y2="4918.2" gradientUnits="userSpaceOnUse"><stop stop-color="#2B3AA5"/><stop offset="1" stop-color="#182484"/></linearGradient><linearGradient id="paint49_linear" x1="3909.6" y1="2306.4" x2="3942.7" y2="2306.4" gradientUnits="userSpaceOnUse"><stop stop-color="#2B3AA5"/><stop offset="1" stop-color="#182484"/></linearGradient><linearGradient id="paint50_linear" x1="3795.9" y1="2233" x2="3829.2" y2="2233" gradientUnits="userSpaceOnUse"><stop stop-color="#2B3AA5"/><stop offset="1" stop-color="#182484"/></linearGradient></defs></svg>